<svg xmlns="http://www.w3.org/2000/svg" width="197" height="65" fill="currentColor" viewBox="0 0 197 65">
  <path d="M90.042 35.528c-.747 0-1.461-.325-2.078-.714-.39-.227-1.04-.681-1.494-.843 2.013-1.33 3.312-4.055 3.312-7.688 0-5.255-2.76-8.499-7.209-8.499-1.266 0-2.5.292-3.474.811-2.403 1.297-3.8 4.217-3.8 7.85 0 2.465.65 4.574 1.916 6.228 1.267 1.654 2.923 2.368 5.423 2.368 1.299.422 2.598 1.168 3.41 1.687.617.422 1.786 1.168 3.085 1.168 1.006 0 1.493-.292 1.493-.292l.877-2.206s-.78.13-1.494.13h.033Zm-7.501-3.082c-.812 0-1.462-.195-2.014-.584-1.006-.713-1.493-2.53-1.493-5.417 0-2.011.26-3.503.844-4.574.487-.876 1.461-1.46 2.598-1.46 1.786 0 2.662 1.266 2.955 2.109.292.94.422 2.173.422 3.893 0 4.281-.974 6.065-3.345 6.065l.033-.032Zm10.001.616c-.195-.551-.26-1.2-.26-2.465v-7.915l3.183-.616v7.915c0 1.102.097 1.686.26 2.01.162.325.649.585 1.136.585.812 0 1.754-.584 2.013-1.168v-8.693l3.085-.65v9.44c0 .811.26 1.655.747 2.238l-2.305 1.298c-.422-.292-.747-.714-.975-1.2-.811.778-1.948 1.167-3.247 1.167-1.753 0-3.247-.81-3.637-2.01v.064Zm22.699-3.471v-.746c0-2.562-.52-4.249-1.657-5.384-.811-.811-2.143-1.298-3.572-1.298-1.656 0-2.857.52-3.896 1.654-1.072 1.2-1.559 2.66-1.559 4.899 0 3.892 2.306 6.39 5.845 6.39 1.721 0 3.247-.552 4.644-1.72l-1.267-1.913c-.974.81-2.013 1.233-3.15 1.233-1.656 0-2.597-1.07-2.597-2.985v-.097h7.144l.065-.032Zm-7.079-2.4c0-1.72.714-2.66 1.915-2.66.65 0 1.104.227 1.429.714.292.454.39.94.39 1.849v.13h-3.734v-.065.032Zm19.288 2.4v-.746c0-2.562-.519-4.249-1.656-5.384-.812-.811-2.143-1.298-3.572-1.298-1.656 0-2.857.52-3.897 1.654-1.071 1.2-1.558 2.66-1.558 4.899 0 3.892 2.305 6.39 5.845 6.39 1.721 0 3.247-.552 4.643-1.72l-1.266-1.913c-.974.81-2.013 1.233-3.15 1.233-1.656 0-2.598-1.07-2.598-2.985v-.097h7.144l.065-.032Zm-7.111-2.4c0-1.72.714-2.66 1.916-2.66.649 0 1.104.227 1.428.714.293.454.39.94.39 1.849v.13h-3.734v-.065.032Zm9.384-1.395c0-1.07-.13-2.076-.422-2.887l2.858-.81c.292.518.454 1.037.454 1.556.487-.324.877-.616 1.429-.908a5.252 5.252 0 0 1 2.208-.519c1.364 0 2.566.714 2.955 1.784.163.454.228.973.228 1.752v9.018h-3.183v-8.013c0-1.394-.227-1.816-1.071-1.816-.65 0-1.494.422-2.241 1.103v8.726h-3.247v-8.953l.032-.033Zm16.789 9.342c-1.527 0-3.183-.486-5.001-1.427l1.169-2.368c.974.616 2.695 1.395 4.091 1.395.91 0 1.656-.617 1.656-1.395 0-.843-.617-1.265-1.915-1.524l-1.462-.26c-.811-.13-1.851-.714-2.273-1.265-.422-.52-.714-1.427-.714-2.206 0-2.4 1.916-4.022 4.773-4.022 1.981 0 3.28.616 4.417 1.168l-1.072 2.173c-1.234-.616-2.111-.876-3.052-.876-.942 0-1.559.487-1.559 1.2 0 .617.422.973 1.559 1.265l1.493.39c1.526.389 2.014.843 2.468 1.394.455.584.682 1.265.682 2.109 0 2.563-2.111 4.282-5.293 4.282l.033-.033Zm7.566-13.753c0-1.622-.033-2.595-.163-3.698l3.312-.746c.13.68.163 1.46.163 3.211v9.602c0 2.108 0 2.4.227 2.757.13.227.39.324.65.324.13 0 .194 0 .357-.032l.552 1.914c-.552.227-1.234.324-1.916.324-1.364 0-2.5-.649-2.858-1.687-.227-.616-.292-1.005-.292-2.757v-9.212h-.032Zm15.587 9.277.064-4.152c0-1.33-.065-1.72-.227-2.206-.487-1.362-1.916-2.14-3.994-2.14-1.137 0-2.176.226-3.377.713-.877.357-1.364.616-2.013 1.005l1.363 2.303c1.332-.875 2.533-1.394 3.572-1.394 1.169 0 1.462.454 1.462 1.816v.52h-.715c-3.929 0-5.942 1.362-5.942 4.249 0 2.465 1.494 3.86 4.254 3.86 1.006 0 1.883-.227 2.5-.681.227-.163.52-.422.747-.65.325.617.974 1.169 1.753 1.493l1.722-1.979c-1.072-.81-1.169-1.395-1.169-2.757Zm-3.215 1.33c-.487.519-1.072.843-1.689.843-.812 0-1.429-.648-1.429-1.622 0-1.46.78-1.881 3.02-1.881h.13l-.065 2.66h.033Zm12.079-7.072c-.649 0-1.493.422-2.24 1.103v8.726h-3.247v-8.953c0-1.07-.13-2.076-.423-2.887l2.858-.81c.292.518.455 1.037.455 1.556.487-.324.876-.616 1.428-.908a5.252 5.252 0 0 1 2.209-.519c1.363 0 2.565.714 2.955 1.784.162.454.227.973.227 1.752v9.018h-3.182v-8.013c0-1.394-.228-1.816-1.072-1.816l.032-.033Zm17.536 5.32V17.427l-3.215-.519v4.25c0 .713.032 1.557.097 1.816-.617-.486-1.299-.713-2.208-.713-3.15 0-5.293 2.66-5.293 6.52 0 3.86 1.981 6.26 5.131 6.26 1.104 0 2.046-.324 2.857-1.038.033.324.098.519.195.714h2.89c-.227-.487-.454-1.46-.454-4.51v.033Zm-3.183 1.298c-.324.389-.974.81-1.591.81-1.688 0-2.24-.875-2.24-3.503 0-2.627.617-3.957 2.078-3.957.584 0 1.169.26 1.753.81v5.872-.032ZM81.989 49.379h5.585v7.72c-1.169.778-2.955 1.265-4.644 1.265-2.078 0-3.831-.714-5.098-2.076-1.396-1.525-2.046-3.568-2.046-6.423 0-3.146.845-5.385 2.566-6.942 1.169-1.07 2.598-1.556 4.319-1.556 1.72 0 3.28.55 4.546 1.654l-.91 1.232c-1.363-.908-2.305-1.265-3.604-1.265-1.916 0-3.442.876-4.124 2.79-.422 1.233-.65 2.628-.65 4.184 0 2.174.423 3.925 1.17 5.028.746 1.07 2.435 1.752 3.994 1.752 1.039 0 1.916-.227 2.63-.649v-5.028h-3.345l-.39-1.654v-.032Zm18.087-1.557c-.812-1.168-2.11-2.109-4.124-2.109-3.15 0-5.13 2.4-5.13 6.293 0 3.893 1.883 6.39 5.195 6.39 3.02 0 5.163-2.108 5.163-6.13 0-1.947-.357-3.374-1.104-4.444Zm-1.429 7.2c-.422 1.169-1.364 1.817-2.598 1.817-1.039 0-2.013-.486-2.435-1.2-.455-.746-.747-2.238-.747-3.925 0-1.427.195-2.4.584-3.146.423-.811 1.397-1.298 2.468-1.298.975 0 2.046.487 2.566 1.557.39.811.552 1.914.552 3.6 0 1.169-.098 1.85-.357 2.596h-.033Zm12.534-8.952h2.014l-4.514 12.132h-1.851l-4.319-12.035 1.916-.422 2.793 8.272c.325.973.584 2.044.584 2.044h.065s.195-.941.585-2.011l2.76-7.98h-.033Zm13.217 6.325v-.26c0-2.854-.325-3.99-1.364-5.06-.812-.843-1.948-1.297-3.247-1.297-1.462 0-2.631.519-3.605 1.654-1.006 1.2-1.461 2.498-1.461 4.542 0 3.99 2.013 6.39 5.325 6.39 1.559 0 2.988-.52 4.06-1.492l-.715-1.2c-.844.778-1.786 1.135-2.955 1.135s-2.305-.422-2.987-1.46c-.422-.616-.552-1.492-.552-2.627v-.292h7.501v-.033Zm-4.709-5.157c.91 0 1.754.421 2.176 1.07.357.584.519 1.362.552 2.66h-5.488c.098-2.498 1.072-3.73 2.76-3.73Zm13.314-1.525c.325 0 .649.13.649.13l-.779 2.043s-.325-.097-.519-.097c-.715 0-1.462.325-2.014.876-.552.551-.714.908-.714 1.914v7.525h-1.884V48.86c0-1.752-.422-2.563-.422-2.563l1.884-.519s.454.94.389 1.946c.877-1.232 2.144-2.01 3.378-2.01h.032Zm11.008 1.849c.195.422.292.908.292 1.395v9.115h-1.915v-8.11c0-1.265-.098-1.589-.423-2.01-.259-.325-.779-.52-1.331-.52-.974 0-2.468.779-3.345 1.687v8.953h-1.818v-9.245c0-1.72-.455-2.53-.455-2.53l1.819-.519s.422.908.422 1.881c1.266-1.265 2.5-1.849 3.799-1.849s2.468.714 2.955 1.752Zm19.029 1.46v9.05h-1.916v-8.856c0-1.167-.519-1.751-1.558-1.751-1.072 0-1.916.713-3.183 1.849v8.79h-1.916v-8.53c0-.715-.065-1.201-.324-1.558-.293-.324-.682-.486-1.234-.486-.91 0-1.819.454-3.053 1.589v8.953h-1.818v-9.31c0-1.751-.422-2.562-.422-2.562l1.818-.422s.422.94.422 1.784c.812-.876 2.273-1.816 3.507-1.816s2.371.713 2.793 2.01c1.169-1.232 2.63-2.01 3.864-2.01 1.786 0 3.02 1.362 3.02 3.243v.033Zm12.664 3.373v-.26c0-2.854-.324-3.99-1.363-5.06-.812-.843-1.949-1.297-3.248-1.297-1.461 0-2.63.519-3.604 1.654-1.007 1.2-1.461 2.498-1.461 4.542 0 3.99 2.013 6.39 5.325 6.39 1.559 0 2.988-.52 4.059-1.492l-.714-1.2c-.845.778-1.786 1.135-2.955 1.135s-2.306-.422-2.988-1.46c-.422-.616-.552-1.492-.552-2.627v-.292h7.501v-.033Zm-4.741-5.157c.91 0 1.754.421 2.176 1.07.357.584.52 1.362.552 2.66h-5.488c.098-2.498 1.072-3.73 2.76-3.73Zm16.659.324c.195.422.292.908.292 1.395v9.115h-1.916v-8.11c0-1.265-.097-1.589-.422-2.01-.26-.325-.779-.52-1.331-.52-.975 0-2.468.779-3.345 1.687v8.953h-1.818v-9.245c0-1.72-.455-2.53-.455-2.53l1.818-.519s.423.908.423 1.881c1.266-1.265 2.5-1.849 3.799-1.849s2.468.714 2.955 1.752Zm8.605 9.212.26 1.2c-.617.325-1.267.487-2.111.487-.617 0-1.104-.13-1.559-.324-.844-.422-1.169-1.168-1.169-2.4v-8.24h-1.558V46.07h1.558c0-1.168.195-3.05.195-3.05l1.981-.421s-.227 1.881-.227 3.47h3.02l-.585 1.428h-2.5v7.753c0 1.33.357 1.784 1.558 1.784.52 0 .845-.065 1.169-.227l-.032-.033ZM15.745 63.586h.325-.065s-.098 0-.098-.097c0 0 0-.097.033-.162l.065-.162h.779l.13.324v.065h-.033.748-.13c-.066 0-.13-.032-.228-.292-.162-.422-.617-1.492-.65-1.654 0-.065-.032-.098-.064-.098 0 0-.033.033-.065.098l-.682 1.687s-.098.227-.228.227h-.097.39l-.13.064Zm.65-1.524.324.908h-.682l.325-.908h.032Zm1.623-.454s.13.065.13.162v.94c0 .389.097.583.227.713a.96.96 0 0 0 .584.195c.163 0 .39 0 .553-.195.227-.194.26-.519.26-.81v-.843c0-.098 0-.13.097-.162h.097-.714.162c.098 0 .098.065.098.162v.876c0 .292 0 .519-.163.68a.541.541 0 0 1-.357.13c-.097 0-.227 0-.325-.097-.13-.097-.227-.292-.227-.648v-.941c0-.098 0-.13.097-.162h.098-.845.227Zm2.792 0s.098.065.098.162v1.622c0 .065 0 .13-.065.13h-.13.974c.487 0 .78-.195.91-.325a1.05 1.05 0 0 0 .292-.746.948.948 0 0 0-.26-.681c-.292-.292-.747-.292-1.072-.292h-.876.13v.13Zm.455.68v-.583h.162c.228 0 .52 0 .78.26.13.097.26.324.26.68 0 .26-.065.52-.228.682-.162.13-.357.195-.617.195-.227 0-.324-.065-.357-.098V62.29Zm2.305 1.298h.326-.065s-.097 0-.097-.097c0 0 0-.097.032-.162l.065-.162h.78l.13.324v.065h-.033.747-.162c-.065 0-.13-.032-.228-.292-.162-.422-.617-1.492-.682-1.654 0-.065-.032-.098-.065-.098 0 0-.032.033-.064.098l-.682 1.687s-.098.227-.228.227h-.13.39l-.032.064Zm.65-1.524.325.908h-.682l.325-.908h.032Zm1.494 1.524h.584-.097s-.065 0-.065-.032c0 0 0-.065.032-.097l.39-.65c.13.195.292.455.422.715v.064h-.032.714-.13c-.065 0-.097-.064-.162-.13-.065-.097-.487-.81-.585-.94l.455-.616s.13-.195.195-.227h.13-.617.097s.033 0 .033.032v.097c-.033.065-.293.454-.357.552a9.442 9.442 0 0 1-.325-.584v-.065l.032-.032h.098-.845.098c.097 0 .162.097.227.194l.455.746-.52.746s-.13.195-.227.195h-.13.097l.033.032Zm4.871 0h.324-.064s-.098 0-.098-.097c0 0 0-.097.032-.162l.066-.162h.779l.13.324v.065h-.033.715-.13c-.065 0-.13-.032-.228-.292-.162-.422-.584-1.492-.682-1.654 0-.065-.032-.098-.064-.098 0 0-.033.033-.065.098l-.682 1.687s-.098.227-.228.227h-.065.39l-.097.064Zm.65-1.524.356.908h-.682l.325-.908Zm1.331-.195s0-.065.032-.097c.032-.065.097-.065.26-.098h.39v1.688c0 .065 0 .13-.066.13h-.129.909-.163c-.065 0-.097-.065-.097-.13v-1.686h.325c.227 0 .325.097.325.162v.065-.422H32.76c-.065 0-.097-.033-.13-.033l-.032.065s-.065.26-.065.292v.033l.032.032Zm4.935-.259s.098.065.098.162v1.622c0 .065 0 .13-.065.13h-.13.877-.163c-.065 0-.097-.065-.097-.13v-.812h.39c.097 0 .13.065.13.097v.13-.421h-.033s-.065.032-.13.032h-.487v-.712h.422s.162.065.195.097v.13-.389h-1.299.13l.162.065Zm2.079 0s.097.065.097.162v1.622c0 .065 0 .13-.065.13h-.13.877-.162c-.065 0-.098-.065-.098-.13V61.77c0-.098 0-.13.098-.162h.097-.812.13-.032Zm1.59 0s.098.065.13.162v1.622c0 .065 0 .13-.064.13h-.13.974c.487 0 .78-.195.91-.325a1.05 1.05 0 0 0 .291-.746.948.948 0 0 0-.26-.681c-.292-.292-.746-.292-1.07-.292h-.879.163l-.065.13Zm.455.68v-.518s0-.033.033-.065h.162c.227 0 .52 0 .78.26a.96.96 0 0 1 .26.68c0 .26-.066.52-.228.682-.162.13-.325.195-.617.195-.227 0-.325-.065-.357-.098v-1.07l-.033-.065Zm2.403-.68s.098.065.13.162v1.622c0 .065 0 .13-.065.13h-.13H45.1c.097 0 .13 0 .13-.065s.032-.227.032-.292V63.1v.032c0 .098-.065.162-.13.195h-.26c-.26 0-.324-.033-.324-.227v-.617h.39c.097 0 .13.033.162.098v.097-.422l-.033.033s-.065.032-.13.032h-.422v-.713h.39c.13 0 .162.032.162.097v.13-.357H43.77h.129l.13.13Zm2.079 0s.097.065.13.162v1.622c0 .065 0 .13-.066.13h-.129 1.169c.13 0 .162 0 .162-.065s.033-.292.033-.325V63.1v.032c0 .065-.033.13-.066.163-.064.064-.162.064-.324.064-.195 0-.26 0-.325-.065-.065-.064-.065-.227-.065-.583v-1.038c0-.098 0-.13.098-.163h.129-.843.13l-.032.098Zm2.045 0s.098.065.098.162v1.622c0 .065 0 .13-.065.13h-.13.877-.195c-.098 0-.098-.065-.098-.13V61.77c0-.098 0-.13.098-.162h.13-.812.13-.033Zm1.948 2.011s.293 0 .423-.097a.562.562 0 0 0 .26-.455c0-.26-.13-.454-.455-.68l-.065-.066c-.227-.162-.292-.26-.292-.389 0-.162.13-.292.325-.292.162 0 .26.097.292.13a.253.253 0 0 1 .065.162v.032-.389l-.033-.032c-.065 0-.195-.033-.357-.033-.39 0-.617.227-.617.52 0 .226.097.421.39.648l.13.098c.227.162.26.291.26.421s-.13.292-.358.292c-.162 0-.325-.065-.39-.26v-.194.422c0 .065 0 .065.066.097.13.065.227.065.39.065H50.1ZM27.76 34.846c.422.195.909 0 1.428.033-.097-.227-.227-.39-.162-.714.13-.648-.39-.778-.617-.778-.584.032-.942.162-1.559 0 .422.421.325 1.167.877 1.46h.033Zm10.326 12.911c-2.306 0-3.182.649-4.449 1.59v7.46s5.456-1.882 8.41-7.136c-.681-1.006-1.688-1.914-3.961-1.914Zm1.883 3.016-.682-.778-1.169 1.038.487.551s.488-.227.942.26c-.325.292-.91.778-1.234 1.07-.422-.519-.13-.94-.13-.94l-.487-.552-1.429 1.265-.454-.551 1.461-1.233-.52-.616s-.194.162-.487.422c-.422-.487-.747-1.103-.454-1.914.844-.195 1.429.227 1.85.713-.291.26-.486.422-.486.422l.52.616 1.2-1.005-.681-.779c.617-.065 1.169.13 1.461.487.292.357.455.908.292 1.524ZM24.025 40.62c.163.552.293 1.136.325 1.784 0 .779-.552 1.687-1.137 2.693-.065.13-.13.227-.194.357 1.72 8.498 9.969 11.32 9.969 11.32V40.653h-8.93l-.033-.033Zm6.17 10.089c-.422.097-1.072.13-1.494.13-.422 0-1.071-.033-1.493-.13.032-.163.097-.422.162-.65-.292 0-.617-.129-.877-.226.13-.454.325-.876.487-1.492.552.13 1.104.162 1.721.162s1.17-.033 1.721-.162c.163.584.357 1.038.487 1.492-.26.097-.552.194-.876.227.065.26.13.486.162.649Zm-3.377-2.985v-.551c.292-.098 1.526-.162 1.883-.162s1.559.064 1.884.162c.032.162.032.39 0 .551-.455.13-1.267.195-1.884.195s-1.428-.065-1.883-.195Zm4.578-3.73c-.454 1.103-.909 2.206-1.039 2.563a5.399 5.399 0 0 0-.779-.065c.325-.941.682-2.303 1.007-3.18.227-.583 1.234-.324.811.682Zm-2.695-1.59c.065-.519 1.494-.616 1.234.52-.26 1.102-.617 2.432-.877 3.535h-.714c-.26-1.135-.584-2.433-.877-3.536-.26-1.102 1.17-1.005 1.234-.519Zm-1.883.909c.325.843.682 2.206 1.006 3.179-.26 0-.519 0-.779.065-.13-.325-.584-1.46-1.039-2.563-.422-1.006.585-1.265.812-.681Z"/>
  <path d="M41.983 42.21v-.39h.39c.551 0 .811-.519.94-1.135h-9.676v7.785c.617-.454 1.234-.843 2.013-1.103v-1.719h.78c.032-1.881.487-3.244 1.364-4.152l.26-.26.26.26c.876.908 1.33 2.27 1.363 4.152h.812v1.817a4.25 4.25 0 0 1 1.883 1.492 14.873 14.873 0 0 0 1.429-5.06h-.13c-.812 0-1.688-.584-1.753-1.687h.065Zm14.904 17.808c-.487.162-1.071.227-1.948.227h-1.104c-3.767-.065-7.663-1.2-10.034-3.633 3.28-3.308-.584-6.033-2.663-3.211-.65.876-1.169 1.492-1.623 2.335-.358.682-.098 1.363.714 2.433.455.584 1.559 1.492 2.468 2.076H23.83c.91-.584 2.014-1.492 2.468-2.076.812-1.07 1.104-1.751.715-2.433-.455-.843-.974-1.46-1.624-2.335-2.078-2.822-5.942-.097-2.663 3.211-2.37 2.433-6.267 3.536-10.034 3.633h-1.039c-.877 0-1.461-.097-1.948-.227-.78-.194-.942.162-.52 1.492.293.909.52 2.368.617 3.374H56.79c.097-1.006.325-2.465.617-3.374.422-1.33.26-1.686-.552-1.492h.032Zm-14.677-6.52c.617-.81 1.526-.584 1.883.098.39.746-.195 1.621-.941 2.335-1.072-1.168-1.202-2.076-.942-2.433Zm-1.591 3.86c-.39-.551-.52-.843-.325-1.362.195-.487.585-.94 1.007-1.557.65 2.563 4.513 4.995 7.37 5.806h-4.545c-1.17-.648-2.663-1.686-3.54-2.887h.033Zm-18.12-3.762c.357-.682 1.267-.909 1.883-.098.26.357.163 1.265-.909 2.433-.78-.714-1.364-1.622-.941-2.335h-.033Zm2.76.843c.422.616.812 1.07 1.007 1.557.195.519.065.843-.325 1.362-.877 1.2-2.338 2.239-3.54 2.887h-4.546c2.858-.81 6.722-3.243 7.372-5.806h.032Zm30.752 9.699H10.679c-.195-1.427-.487-2.368-.714-3.147h46.792c-.26.779-.519 1.72-.714 3.147h-.032ZM36.3 24.466s-.26.065-.357.162c-.163 0-.325-.064-.487-.064v-.909a.462.462 0 0 0 .292-.422.444.444 0 0 0-.455-.454.444.444 0 0 0-.454.454.45.45 0 0 0 .227.39v.876s-.325 0-.487-.033a.422.422 0 0 0-.39-.26.444.444 0 0 0-.455.455c0 .26.195.454.455.454.163 0 .292-.065.357-.195.163 0 .358.033.52.065v1.298s-.26.227-.26.389c0 .26.195.454.455.454s.454-.195.454-.454a.391.391 0 0 0-.26-.39v-1.264c.163 0 .293.032.423.064a.462.462 0 0 0 .422.293c.26 0 .455-.195.455-.455a.444.444 0 0 0-.455-.454Zm-3.864-.259c-.195 0-.358.097-.422.26-.163 0-.325 0-.455.032v-.876s.227-.227.227-.39a.444.444 0 0 0-.454-.454.444.444 0 0 0-.455.454c0 .195.097.357.26.422v.909s-.325.032-.487.064c-.065-.097-.195-.162-.358-.162a.444.444 0 0 0-.454.454c0 .26.195.454.454.454.195 0 .358-.13.423-.291.13 0 .26-.033.422-.065v1.265s-.26.227-.26.389c0 .26.195.454.455.454s.454-.195.454-.454a.45.45 0 0 0-.227-.39v-1.297s.325-.032.487-.065c.065.13.227.195.39.195.26 0 .454-.195.454-.454a.444.444 0 0 0-.454-.454Zm11.04 15.213c0-.876-.13-1.557-.422-1.849-.097-.097-.195-.13-.39-.13l-.779.098.422-.649c.422-.649 1.007-1.038 1.624-1.07v-5.807H22.824v6.488s.162.097.227.13l.065.064c.585.487.812.811.617 2.433 0 .195.097.584.195.973h19.58c0-.227 0-.421.033-.616l-.065-.065Zm-15.034-2.595c.097.454.194.714.422 1.103-.78.454-2.76 1.622-4.254.292v-3.925c1.136-.649 1.753-1.135 2.338-2.076a4.124 4.124 0 0 1-1.396-1.168c2.175.617 3.28.94 5.845 0-.423.649-1.04 1.07-1.56 1.395.585.94 1.17 2.044 1.365 2.92-.78-.065-1.624.13-2.273.68-.975.033-2.176.358-2.858-1.816-.357.162-.682.39-.682.39.39 1.427 1.104 2.4 3.02 2.173l.033.032Zm3.377.649c-.195.292-1.43.681-1.754.487-.52-.325-.78-.974-.65-1.266.163-.389 1.494-.746 1.949-.616.422.13.617 1.168.455 1.395Zm8.865-4.639c-.39-.097-2.046-.194-2.598 1.038-.325 0-.65-.13-.844-.324-.228.292-.552.454-1.007.584.39.81 1.234.681 1.721.292v.357c0 2.01 2.143 2.53 3.474 1.751-.227.649-.13 1.46 0 2.044h-5.195c.097-.552.78-1.2 1.364-1.59l-.455-.713a15.13 15.13 0 0 1-1.688.648c-1.43.357-1.364-.648.13-1.07v-.39h-.942c.227-1.037 2.208-2.302 3.085-2.627-.033-1.103 1.396-1.46 2.565-1.492 1.429-.032 1.786 1.525 1.786 1.979 0 .649-.162 2.043-.974 2.498-1.17.648-2.143-.227-2.143-1.038 0-.876.617-1.363 1.656-1.265 1.039.13.974-.455.162-.682h-.097Z"/>
  <path d="M69 25.212c-.228.065-.747.227-1.104.26.681-.649 1.071-1.46 1.071-2.109-.325.098-.909.325-1.429.422 1.04-.876 1.624-1.914 1.364-3.276-.325.162-.78.421-1.234.616.91-1.395.91-2.627.52-3.373-.422.389-.91.81-1.429 1.135.325-1.622.325-2.66-.357-3.374-.682 1.298-1.299 2.271-2.273 3.439.065-1.07-.033-2.4-.747-3.114 0 0-.195 1.492-.715 1.979-.13-1.46-.584-2.271-1.233-3.05 0 0-.033 1.525-.455 2.466-.357-1.266-1.007-2.271-1.851-3.212.065 2.822-.714 8.11-2.987 11.678-.26 2.108-.487 5.287-3.93 7.169-.487-.357-1.364-.811-2.597-.714-.325-1.59 1.753-3.05 3.572-4.185 1.818-1.167 2.597-2.173 2.565-3.73-.033-1.719-1.202-2.4-2.403-2.465-1.689-.065-3.085 1.46-3.377 2.108-.487.227-1.949.682-2.533.844-.65.162-1.396.454-1.884.843.293.162 1.072.227 1.397.195.584-.098 2.403-.422 4.156-.649.65.357 1.656.908.585 1.687-1.494.94-2.11 1.2-4.222 2.303-3.312 1.752-2.24 6.098-1.428 6.423 0 1.46 1.331 4.152 2.208 5.06.39 1.849-.13 4.606-.682 5.774-.455-1.136-1.267-3.73-1.786-5.255.552-2.887-.325-4.152-.942-4.639-.032 0-.065-.032-.13-.065v-7.2h-5.617c-.065-.585-.293-1.006-.682-1.136-.195-1.298-.585-4.25-.812-6.423 2.435 2.174 1.104 5.774 4.026 7.104 1.104-1.265 1.137-1.72.942-2.92 1.104-.291 1.916-1.2 2.208-1.913-1.039.486-2.695-.39-3.15-1.07 1.819-.066 3.475-1.428 5.196-3.212 1.526-1.59 3.572-1.362 3.41-.097 1.071-.163 1.493-1.622 1.136-2.53 1.559-.487 2.76-1.622 2.955-3.439-2.078 1.038-4.708-.681-6.69 1.427 0-2.79-.097-5.092-.13-5.806.098 0 .228.065.326.097 2.013.714 2.467 3.114 6.624.39-2.208.26-2.338-1.622-3.345-1.655 1.526-.876 1.624-2.854 1.624-2.854-1.299 1.038-4.286 1.103-4.87 1.427-.78.454-1.754 1.038-2.404 1.395-1.72.94-.52 6.033-.682 7.915-.941-2.79-2.825-2.368-3.8-3.958-.746 1.33.033 3.568.358 4.185-1.072.876-.78 2.465-.52 2.92.91-.65 2.339-.488 2.76.615-1.168.714-3.084.844-4.448-.389 0-.39-.13-.81-.584-1.135.097-.552 0-1.07-.26-1.525 1.461-2.043 1.558-6 2.76-7.136.097 1.395.844 2.53 1.559 2.692-.585-.94-.585-2.854-.553-3.73 0-.39-.714-.714-.909-.714-.325 0-.714.65-1.104 1.038-.357-1.914-.162-2.757 0-3.6.812 1.46 1.916 1.784 2.5 1.719-1.948-1.557-1.623-2.984-2.207-3.05-.325-.032-.585 0-.747 0-.682 0-.78 1.33-.877 1.947-.455-.81-.877-1.525-1.624-2.465-.714-1.85-1.623-1.395-2.5-2.238.682 1.07.13 1.719 1.753 2.465.422.39.91 1.038 1.234 1.524a6.05 6.05 0 0 1-.714.811c-.195.292-.292 1.46-.942 2.303.942-.389 1.3-.973 1.624-1.524 2.922 2.206.552 7.85-.13 9.082-.65-.421-1.461-.68-2.208-.81l-.065-.26-.682-2.238h.325c.357 0 .454-.26.39-.454l2.013.616.909.26-.552-.747-.942-1.297.942-1.298.552-.746-.91.26-1.818.551c-.13-.421-.454-.616-.844-.649l.617-2.076.26-.875-.747.551-1.3.94-1.298-.94-.747-.551.26.875.617 2.076c-.357.065-.715.26-.844.65l-1.819-.552-.877-.26.552.746.942 1.298-.942 1.297-.552.747.877-.26 2.046-.616c-.065.194 0 .454.39.454h.324l-.682 2.238-.065.26c-.779.13-1.623.389-2.273.843-1.98-3.828-1.428-7.688.228-8.985 0 .81.682 1.913 1.006 2.14-.227-.843.163-2.335-.26-2.692-.292-.26-.779-.39-1.266-.39.325-.55.812-1.232 1.559-2.27 1.169-.551 1.494-1.914 1.786-2.595-1.267.454-2.176 1.103-2.403 2.174-.455.583-.942 1.297-1.494 2.108 0-1.006-.52-1.33-1.234-1.395-2.143.454-1.98 1.979-3.8 3.05 1.235.421 3.216-2.304 3.865-2.012.098 1.687-.292 2.984-.292 3.925-.325-.357-.487-.584-.747-.649-.26-.032-.974 0-1.461.552-.13.843-.098 2.433-.91 4.347 1.202-1.103 1.754-3.212 1.949-3.828.292.422.65 1.33.714 2.108.13 1.525 1.072 4.055 1.884 5.288-.228.421-.293.908-.228 1.427-.584.422-.65 1.006-.52 1.427-1.136.584-2.532 1.07-3.247 1.298-.292-2.368 1.949-2.27 2.144-1.622.941-1.103.292-2.692-.39-2.855.714-1.881 0-3.049-.585-3.73-.13 2.011-2.37 2.336-2.63 3.86-.097-1.233-.162-4.509-.26-6.13C22.5 7.338 18.732 6.3 18.148 6.3c-2.468.13-2.695-.195-2.63-1.362-1.235 1.427-.812 2.692.227 3.276-.13.843-1.494 1.524-2.338 1.72 2.013 1.848 4.319.745 5.423-.293a.759.759 0 0 0 .227-.227c.39.714.682 2.011.682 2.725-1.884-.098-2.208 1.362-2.208 1.881 2.37-.973 2.63 3.568 3.247 4.314-.617-.032-1.689-1.46-3.247-1.556-1.916-.13-2.566.908-3.345.843.13 1.33 1.786 2.108 2.825 2.27-.552 1.363-.065 2.304 1.072 2.66 0-1.265 1.59-1.654 3.312-.648 2.046 1.2 3.117 1.297 4.741.778-.26.584-1.007.649-1.916 1.557-1.266 1.265-1.299 2.887-2.728 3.503 1.689.811 4.19-.324 4.546-.94.715.422 1.592.162 1.852-.26-.942-2.108.26-3.503 1.104-3.86-.228 2.011-.52 4.282-.682 5.385-.39.162-.617.551-.682 1.135h-5.618v7.234c-.292-.13-.585-.227-.877-.454-.487-.325-.617-.811-1.201-1.46.13-1.362 1.104-3.05 1.818-3.406.098-.065.065-2.173.065-2.173s.487 0 .422-.033c-.65-.389-1.428-.097-1.98.552-.553.454-1.787 1.265-2.663 1.557-1.17-.973-2.988-1.85-4.32-3.18 0 0 1.754 0 2.566-.356.228-.13.78-1.038.552-1.881a6.161 6.161 0 0 1-1.039-.52 10.83 10.83 0 0 1-1.169-.745c-.78-.584-1.072-1.071-2.403-1.428.098-.616.227-.454.812-.843.747-.487 1.136-1.103 1.461-1.687.228-.454 0-1.427-.617-.195-.195.422-.78 1.006-1.429 1.168.065-.389.065-.584.065-.81 1.916-1.363 1.754-2.563 1.591-3.699-.064-.648-.746-.94-.714-.26 0 .455.422 1.72-.91 2.466 0-.551-.194-.81-.291-1.103 1.169-1.557.682-3.049.194-3.73-.324-.422-1.104-.584-.746.097.292.552.746 2.109-.13 2.725-.293-.39-.65-.519-.78-1.038.098-1.687 0-2.692-.227-3.309-.195-.551-.747-.908-.682-.097.033.94.13 2.108.033 2.173-.098.065-1.332-1.07-1.851-1.427-.52-.357-1.104-.227-.52.487.52.616 2.11 1.784 1.916 2.173-.13.227-1.266-.714-1.85-.908-.585-.195-.78.097-.293.519.812.68 1.364 1.103 2.695 1.557 1.331.454 2.013 2.303 1.591 4.93 0 .13-.26.098-.39.065-.064-1.005-.227-2.206-.487-2.725-.324-.68-.941-.713-.714.227.195.747.292 1.558.162 2.563-1.104-.195-1.526-.487-1.98-.746-.065-.519.227-1.33.26-2.108.032-.747-.39-1.2-.65-.26-.227.876-.39 1.33-.552 1.946-.325-.097-.65-.26-.812-.421-.065-.098 0-1.07-.065-1.817-.065-.81-.39-.81-.65-.065a5.885 5.885 0 0 0-.227 1.298c-.39-.227-.65-.681-.682-1.038.065-.844.195-1.752.293-2.336.065-.39-.195-1.233-.52-.227-.227.714-.292 1.33-.422 1.817-.292 0-.65-1.655-.844-2.693-.098-.486-.487-1.005-.552.033-.065 1.168.162 2.335.454 2.854-.552-.065-1.104-1.07-1.493-1.654-.358-.52-.52 0-.488.227.325 2.076 1.981 2.822 2.728 2.952 1.17 1.654 3.377 2.368 5.26 3.179-2.435 0-3.084.94-4.188.324.065.908.52 1.33.941 1.557.325.13.617.195.78.227.195 1.103 1.266 1.07 2.175 1.103-.227 2.173 0 5.028 1.949 7.169-.065 1.103-.13 2.563-.13 3.503-1.559 1.46-2.955 4.477-3.507 6.163-.422 1.265-1.04 2.239-1.981 2.693.78.843 1.948.421 2.598-.033.032.746.227 1.265.325 1.687-.455.681-.747 1.135-.715 1.946-.52.13-.844.454-1.136.811-.163.227 0 1.233.227 1.622.617 1.395.13 4.541 0 5.482.26 0 .747 0 .844-.357.163.13.52.422.715 1.038-.033.26-.195 1.233.292 1.363.39.097 2.143.032 2.403-.26a5.45 5.45 0 0 1-.682-1.135c0-.487-.033-1.07-.162-1.298-.195-.356-.715-1.167-1.04-1.492-.065-.584-.13-3.146.13-4.12.455-.324 3.54-2.594 4.19-4.8.551.194.389 1.72.389 3.698 0 .519.65.81 1.04.843.843.098 2.012.908 3.344 2.855.26-.292.584-.552.584-.552.163.227.39.811.487 1.168.13.26 1.234.422 2.046.195.26-.098.422-.13.617-.422-1.039-1.817-1.689-3.017-3.02-4.055-.617-.454-1.461-.713-2.143-1.135.455-.876 1.753-4.963.974-6.455-.26-.487-1.234-.973-2.403-.779.974-1.2 2.988-3.535 3.247-4.25.228.26 1.43.098 2.306.422.325.13 1.234 1.298 1.266 1.687.065.714.13 1.59-.39 3.569.358-.065.293-.065.65-.228.065.52-.097.941-.552 1.752.13.714.422 1.817.78 2.011.064-.194.194-.422.324-.648.033.162.065.356.13.519a6.4 6.4 0 0 0 .26.843c.097.292.227.616.325.908.13.325.292.649.422.973.162.325.357.681.52 1.006.194.357.421.681.649 1.005.26.357.52.682.78 1.006.291.357.584.681.908 1.006.325.356.682.68 1.072 1.005.39.325.812.649 1.234.94.454.325.91.617 1.396.91.52.291 1.04.583 1.591.843.585.291 1.17.55 1.754.778 0 0 .097-.032.13-.065.065 0 .097-.032.162-.065.097-.032.195-.065.292-.13.585-.227 1.137-.519 1.689-.81.52-.26 1.007-.552 1.494-.876.454-.292.909-.584 1.331-.909.39-.291.78-.616 1.17-.973.356-.324.681-.648 1.006-1.005.292-.325.584-.649.877-1.006.26-.324.519-.681.746-1.005a10.4 10.4 0 0 0 .617-1.006c.195-.324.358-.649.52-.973.13-.325.292-.616.39-.94.13-.293.227-.585.324-.91.098-.259.163-.55.228-.843.065-.259.13-.486.162-.745.032-.228.097-.422.13-.65 0-.194.065-.356.065-.55 0-.293.032-.585.065-.877.194.584.65 1.947 1.104 3.244.325.908.617 1.72.812 2.174.227.486 1.85.551 2.013 0 .26-.746.455-1.298.877-2.174.324-.648.746-1.492 1.396-2.757a26.986 26.986 0 0 1 1.331 2.757c.163.357.26.681.293.811.13 1.233.064 5.644-.293 8.272-3.637-.973-4.643.778-4.319 2.108.52-.584 1.202-.486 1.624-.194-.097.973.162 1.654 1.137 1.946 1.039-2.757 4.773-2.141 5.13-1.914 0-.519.52-1.849-1.396-2.14.065-2.369.325-5.288.39-5.905.097-.616.162-.973-.13-1.946a14.625 14.625 0 0 1-.293-1.038c-.26-.973-.519-2.206-.519-3.568.325.324 1.136.584 1.689.487.422 1.784 1.039 1.265 1.363 2.01.163.39.195.747.26 1.071.033.325.098.584.26.811 1.299.033 2.37-.26 3.15-.81a2.68 2.68 0 0 0 .617-.585c-.325-1.913-.844-2.854-1.851-4.022-.26-1.557-1.007-2.984-1.981-4.25 1.266-.421 2.533-1.427 3.215-2.14.617-.033 1.299-.552 1.364-1.525a7.2 7.2 0 0 0 .941-.13c0-.26-.097-.68-.13-.94.455 0 .91 0 1.332-.065-.13-.357-.293-.746-.422-1.006.454 0 1.039-.032 1.493-.065-.26-.454-.422-.875-.584-1.265.52-.064 1.364-.194 2.046-.357a23.86 23.86 0 0 0-.845-.81c1.754-.52 2.533-1.752 2.63-2.303-.26 0-.811.13-1.103.097.974-.584 1.656-1.363 1.753-2.238l-.097.13ZM35.358 10.226l1.072-.324-.52.713-.13.195.13.194.52.714-1.364-.421c.13-.293.227-.584.292-1.071Zm-5.163 1.46.52-.714.13-.194-.13-.195-.52-.714 1.072.325c.065.454.162.778.292 1.07l-1.364.422Zm7.404 16.284c-.39.064-.844.259-1.3.551-1.07.714-2.305.746-2.987-.519-.681 1.265-1.915 1.233-2.987.519-.422-.292-.877-.487-1.299-.552.195-1.265.487-3.633.714-5.611 1.397-.649 3.118-.779 3.572.843.422-1.622 2.144-1.46 3.54-.843.227 2.01.52 4.379.714 5.611h.033Zm-4.287-8.856c1.364 0 2.5.357 3.313.681 0 .26 0 .52.065.844-.91-.26-2.144-.455-3.378-.455s-2.467.195-3.377.455c0-.325.033-.584.065-.844.812-.292 1.948-.681 3.312-.681Zm-2.467-1.33a9.47 9.47 0 0 1 1.883-.292l.454.876a8 8 0 0 0-1.59.162l-.747-.746Zm4.416-.13c.65.13 1.299.325 1.85.552l.26 1.038c-.422-.162-.974-.39-1.656-.584l-.454-1.006ZM48.509 7.08c.715 0 1.981-.065 2.728-.422-.78.973-.877 1.297-2.143 1.46 1.656.162 2.338 1.621 3.15 1.848-2.76.844-3.053-1.88-5.553-1.719.844-.616 1.364-.876 1.819-1.135V7.08Zm-7.078 10.8c.097-.875.617-1.492.909-1.59-.747-.843-.91-1.945-.974-2.724 1.233.52 3.052 1.979 3.344 4.444l.812-.551c-.227-4.315-.195-4.315-.227-7.266 0-.422 0-1.363 1.331-1.266.065 1.103.227 3.99.163 8.045h.454c.422-1.135 1.916-2.433 3.637-2.335 1.201.064 1.591.064 2.273-.26-.552 1.363-2.598 1.946-3.117 2.044.811.68.552 1.622.357 1.849-.715-1.233-3.053-.811-5.326 1.751-.162.195-.39.422-.617.649.163-3.082-2.338-3.114-3.084-2.822l.065.032Zm-2.696 2.044c1.072 1.07 3.248 1.46 4.936.519 0 .292-.065.616-.195.973-.941.487-2.143.779-3.54.292.196 1.395 1.787 2.433 3.345 2.855-.52.389-1.169.551-1.623.519.292.81.454 1.881-.163 2.757-.779-.52-1.169-1.006-1.46-2.985-.26-1.816-1.494-3.6-2.534-4.184 0-.195-.032-.39-.032-.551.52.194 1.006.097 1.299-.195h-.033Zm-4.254-8.596h-.844l.097-1.492c1.267-.552 1.17.616.747 1.492Zm-1.169 2.692 1.007.746c-.422-.032-.78-.032-1.007-.032-.227 0-.584 0-1.006.032l1.006-.746Zm-.909-.13.455-1.524h.877l.454 1.524-.714-.518-.195-.13-.195.13-.714.519h.032Zm.715-5.806.194.13.195-.13.747-.519-.422 1.427H33.8a.51.51 0 0 0-.455-.292.51.51 0 0 0-.455.292h-.032l-.422-1.427.746.52h-.065Zm-.942 3.244c-.422-.908-.52-2.076.747-1.492l.097 1.492h-.844Zm-2.793 5.514c.715-.843 2.566-1.167 3.93-1.167 1.363 0 3.214.291 3.929 1.167.162.195.26.454.292.714-1.234-.551-2.793-.876-4.222-.876-1.428 0-2.987.325-4.221.876 0-.26.13-.519.292-.714Zm-.682 1.784s.098-.064.163-.097l.714.584s-.292.13-.422.162l-.227.098c-.293.13-.52 0-.585-.13-.065-.162 0-.422.357-.649v.032Zm-13.67-8.498c1.396-.681 1.266-1.72 2.078-2.239-.52-.064-1.527-.291-1.527-1.038 1.397.682 1.851-.583 4.482 1.103-1.754.552-3.085 2.693-5.034 2.141v.033ZM20.615 20.8c-.845-.357-2.144-.552-2.858.454-.39-.681.195-1.72.552-2.011-1.85 0-2.89-.52-3.15-1.07.682-.39 2.403-1.006 3.8 0 .974.713 1.46 1.07 2.597 1.427.423-.422.26-.227.39-.357-.942-.649-1.364-5.677-3.215-5.84.26-.648 1.234-.583 1.981-.388.065-1.136-.422-2.985-1.104-4.055 1.072-.552 1.818.032 2.176 1.362.39 1.428-.065 4.963.844 8.142l.584-.519c-.292-1.849 1.754-2.53 2.209-3.47.162 1.232-.098 1.816-.423 2.27a1.1 1.1 0 0 1 .942 1.33c-1.786-.26-2.825 1.525-2.403 2.952-1.331.292-2.208.065-2.955-.227h.033Zm6.332 5.385c-.227.097-.91.064-1.104-.39-.163.746-1.656 1.59-2.76 1.492.617-.648 1.006-2.14 2.208-2.92 1.201-.778 1.72-1.329 2.143-2.659-.552.26-3.41 1.006-4.222.097 1.721-.26 3.702-1.135 4.871-1.816.293.194.715.292 1.17.097-.033.487-.098 1.103-.163 1.784-1.429.325-2.695 2.174-2.11 4.282l-.033.033ZM44.32 44.383c0 .195-.033.357-.065.552 0 .227-.065.421-.098.648-.065.26-.097.487-.162.746-.065.26-.163.552-.227.811-.098.292-.195.584-.325.876-.13.325-.26.617-.39.908l-.487.974c-.195.324-.39.648-.617.973-.227.356-.455.68-.714 1.005-.26.325-.552.681-.845 1.006-.324.324-.65.681-1.006.973-.357.324-.747.649-1.137.94a18.24 18.24 0 0 1-1.299.909c-.487.292-.974.584-1.493.843a15.44 15.44 0 0 1-1.657.779l-.292.13-.13.064a14.981 14.981 0 0 1-1.656-.713 24.35 24.35 0 0 1-1.558-.843 14.216 14.216 0 0 1-1.364-.909c-.422-.292-.812-.616-1.202-.94a30.509 30.509 0 0 1-1.039-.974 13.374 13.374 0 0 1-.91-1.005c-.259-.325-.519-.649-.746-1.006-.227-.324-.422-.649-.65-1.005-.194-.325-.357-.65-.519-.974a8.239 8.239 0 0 1-.422-.94 7.472 7.472 0 0 1-.325-.908c-.097-.26-.162-.552-.26-.844-.065-.26-.13-.519-.194-.746v-.13c.649-1.135 1.558-2.4 1.526-3.211-.065-1.492-.747-2.757-.682-3.406.195-1.622-.065-1.752-.552-2.14-.13-.13-.357-.196-.52-.293v-7.071h5.78c1.17 0 3.994.065 5.293.065 1.3 0 4.092-.033 5.26-.065h5.781v6.714c-.584-.162-1.266.065-1.754.844.942-.098 1.267 1.135 1.267 2.4 0 1.525-.422 2.757-1.461 2.757a1.301 1.301 0 0 0 1.948 1.136v.13c0 .291 0 .583-.065.875l-.032.065Z"/>
</svg>
