<svg width="330" height="55" viewBox="0 0 330 55" fill="none" xmlns="http://www.w3.org/2000/svg">
<path d="M61.0015 20.8484C60.7874 20.9 60.3236 21.0375 60.0025 21.0719C60.609 20.5047 60.9659 19.8172 60.9659 19.25C60.6804 19.3359 60.163 19.525 59.6992 19.6281C60.6269 18.8719 61.1443 17.9781 60.9123 16.8094C60.6269 16.9469 60.2344 17.1703 59.8241 17.325C60.6447 16.1219 60.6269 15.0562 60.2879 14.4375C59.9311 14.7641 59.4851 15.1422 59.0212 15.4172C59.3245 14.025 59.3067 13.1312 58.7001 12.4953C58.0757 13.6297 57.5405 14.4719 56.6663 15.4687C56.7377 14.5406 56.6306 13.3891 56.0062 12.8047C56.0062 12.8047 55.8278 14.0937 55.3639 14.5062C55.2569 13.2516 54.8466 12.5641 54.2578 11.8937C54.2578 11.8937 54.2222 13.2 53.8475 14.0078C53.5264 12.9078 52.9555 12.0656 52.2062 11.2578C52.2597 13.6812 51.5639 18.2359 49.548 21.3125C49.316 23.1344 49.1019 25.8672 46.0334 27.4828C45.5874 27.1906 44.8202 26.7953 43.7141 26.8641C43.4287 25.4891 45.2841 24.2516 46.8897 23.2547C48.5132 22.2406 49.209 21.3812 49.1911 20.0406C49.1555 18.5625 48.1207 17.9609 47.0503 17.9266C45.5339 17.8578 44.3029 19.1812 44.0174 19.7312C43.5714 19.9375 42.2869 20.3156 41.7517 20.4531C41.1629 20.6078 40.5028 20.8312 40.0747 21.175C40.3244 21.3297 41.0381 21.3812 41.3057 21.3297C41.823 21.2609 43.4644 20.9688 45.0165 20.7797C45.5874 21.0719 46.4972 21.5703 45.5339 22.2234C44.1958 23.0484 43.6249 23.2547 41.7517 24.2C38.7902 25.6953 39.7535 29.4594 40.4672 29.7344C40.4672 31.0062 41.6446 33.2922 42.4475 34.1C42.8043 35.6984 42.3226 38.0703 41.823 39.0672C41.4127 38.1047 40.6991 35.8531 40.2352 34.5469C40.7169 32.0719 39.9319 30.9719 39.3967 30.5594C38.8615 30.1297 38.0052 30.25 37.4343 31.1094C38.2906 31.0234 38.5761 32.0719 38.5582 33.1719C38.5404 34.4781 38.1836 35.5438 37.238 35.5438C37.3094 36.6609 38.5582 36.9875 39.1826 36.4375C39.2897 36.6953 39.7892 38.1562 40.2531 39.4625C40.5385 40.2359 40.8061 40.9578 40.9845 41.3359C41.1808 41.7484 42.6259 41.8172 42.7864 41.3359C43.0183 40.7 43.1968 40.2188 43.5536 39.4625C43.8212 38.8953 44.2137 38.1734 44.7846 37.1078C45.177 37.7609 45.6944 38.775 45.9799 39.4625C46.1226 39.7891 46.2118 40.0469 46.2296 40.1672C46.3545 41.2328 46.2832 45.0313 45.9799 47.3C42.7507 46.4578 41.823 47.9703 42.1085 49.1047C42.5723 48.6063 43.1789 48.675 43.5536 48.9328C43.4644 49.7578 43.6963 50.3594 44.5705 50.6172C45.4982 48.2453 48.8343 48.7781 49.1555 48.9672C49.1733 48.5031 49.6193 47.3687 47.9066 47.1281C47.978 45.0828 48.1921 42.5734 48.2634 42.0578C48.3348 41.5422 48.4062 41.2156 48.1564 40.3906C48.085 40.15 47.978 39.8406 47.8888 39.4797C47.6569 38.6547 47.4428 37.5719 47.4249 36.4031C47.7282 36.6953 48.4418 36.9187 48.9235 36.8156C49.2982 38.3625 49.8512 37.9156 50.1367 38.5688C50.2794 38.8953 50.3151 39.2219 50.3508 39.4969C50.3865 39.7719 50.44 39.9953 50.5827 40.2016C51.7245 40.2359 52.7057 39.9781 53.4015 39.4969C53.6156 39.3594 53.8118 39.1875 53.9546 39.0156C53.6691 37.3656 53.1874 36.5578 52.2954 35.5609C52.0635 34.2203 51.4034 32.9828 50.5113 31.8828C51.6353 31.5219 52.7771 30.6453 53.3837 30.0266C53.9189 29.9922 54.5433 29.5625 54.5968 28.7031C54.9179 28.6688 55.1855 28.6516 55.4353 28.6C55.3996 28.3594 55.3461 28.0156 55.3104 27.8094C55.7208 27.8094 56.1311 27.7922 56.5057 27.7578C56.3987 27.4484 56.2381 27.1219 56.1311 26.8813C56.5414 26.8813 57.0588 26.8469 57.4691 26.8297C57.255 26.4344 57.0766 26.0734 56.9517 25.7297C57.4334 25.6781 58.1649 25.575 58.7715 25.4375C58.5752 25.2484 58.3611 25.0422 58.0222 24.7328C59.5921 24.2859 60.2879 23.2203 60.3593 22.7562C60.1274 22.7562 59.6457 22.8594 59.3602 22.825C60.3236 22.275 60.9123 21.5875 61.0015 20.8484Z" fill="black"/>
<path d="M29.1209 48.7098C20.3256 45.5473 19.2017 38.6035 19.166 35.441C19.166 35.441 19.1481 35.441 19.1303 35.441C19.1481 35.3551 19.1481 35.2863 19.166 35.2176C19.166 34.5301 19.2195 34.066 19.2373 33.9113C19.2195 33.4645 19.1481 33.1035 19.0589 32.8457C19.0411 32.7941 19.0054 32.7426 18.9697 32.6738V35.9395C18.9697 39.6004 20.3613 42.7629 23.1087 45.3238C25.5172 47.5754 28.2289 48.6238 28.9961 48.8816L29.1209 48.916L29.2458 48.8816C30.013 48.6066 32.7247 47.5754 35.1332 45.3238C37.8806 42.7629 39.2722 39.6004 39.2722 35.9395V35.3379C39.2008 35.441 39.1294 35.5098 39.0581 35.5957C38.9867 37.2457 38.6656 39.7895 37.5238 41.7145C36.1858 44.4129 34.0984 46.6301 29.1209 48.7098Z" fill="black"/>
<path d="M50.1898 50.8229C49.7617 50.9432 49.2264 51.0291 48.4415 51.0291H47.4602C44.0884 50.9604 40.6273 49.9979 38.5043 47.901C41.4302 45.0479 37.9869 42.7104 36.1315 45.1167C35.5428 45.8729 35.079 46.4057 34.6865 47.1448C34.3653 47.7292 34.5973 48.3307 35.3287 49.2416C35.7212 49.7401 36.7203 50.5135 37.5409 51.0291H20.6995C21.5024 50.5135 22.5014 49.7401 22.9118 49.2416C23.6432 48.3307 23.893 47.7463 23.554 47.1448C23.1437 46.4057 22.6798 45.8729 22.1089 45.1167C20.2535 42.6932 16.8103 45.0479 19.7361 47.901C17.6131 49.9979 14.1521 50.9604 10.7802 51.0291H9.85253C9.06755 51.0291 8.53234 50.9604 8.10416 50.8229C7.40839 50.6682 7.24782 50.9432 7.62247 52.112C7.87224 52.8682 8.08632 54.1401 8.17553 54.9995H50.1185C50.2077 54.1401 50.4217 52.8682 50.6715 52.0948C51.0462 50.9432 50.8856 50.651 50.1898 50.8229ZM37.0592 45.2198C37.6123 44.5151 38.4151 44.7042 38.7362 45.2885C39.0931 45.9245 38.5757 46.6979 37.8799 47.3167C36.9344 46.3198 36.8273 45.512 37.0592 45.2198ZM35.6677 48.537C35.3287 48.0729 35.2038 47.8151 35.3822 47.3682C35.5606 46.9385 35.9175 46.5604 36.2743 46.0276C36.863 48.2276 40.3062 50.3245 42.8574 51.0291H38.7898C37.7729 50.462 36.4348 49.5682 35.6677 48.537ZM19.4864 45.2885C19.8254 44.7042 20.6282 44.5151 21.1634 45.2198C21.3953 45.5292 21.2883 46.3198 20.3427 47.3167C19.6469 46.6979 19.1296 45.9245 19.4864 45.2885ZM21.9484 46.0104C22.323 46.5432 22.6798 46.9385 22.8404 47.351C23.0188 47.7979 22.9118 48.0729 22.5728 48.5198C21.8056 49.551 20.4676 50.4448 19.415 50.9948H15.3652C17.9164 50.3245 21.3596 48.2104 21.9484 46.0104ZM49.387 54.3635H8.90699C8.72858 53.126 8.47881 52.3182 8.26473 51.6479H50.0471C49.8152 52.3182 49.5654 53.126 49.387 54.3635Z" fill="black"/>
<path d="M40.9844 52.7996C40.9844 52.4559 40.9844 52.3871 40.9844 52.3184C40.9844 52.2324 41.0023 52.198 41.0736 52.1809C41.1093 52.1809 41.145 52.1809 41.1628 52.1809C41.1985 52.1809 41.1985 52.1809 41.1985 52.1637C41.1985 52.1465 41.1807 52.1465 41.145 52.1465C41.0558 52.1465 40.8774 52.1465 40.8239 52.1465C40.7525 52.1465 40.6098 52.1465 40.5027 52.1465C40.4671 52.1465 40.4492 52.1465 40.4492 52.1637C40.4492 52.1809 40.4671 52.1809 40.4849 52.1809C40.5206 52.1809 40.5384 52.1809 40.5741 52.1809C40.6455 52.198 40.6633 52.2324 40.6811 52.3184C40.6811 52.3871 40.6811 52.4559 40.6811 52.7996V53.2121C40.6811 53.4184 40.6811 53.6074 40.6633 53.7106C40.6455 53.7793 40.6455 53.8309 40.5919 53.8481C40.5741 53.8481 40.5384 53.8481 40.5027 53.8481C40.4671 53.8481 40.4671 53.8652 40.4671 53.8652C40.4671 53.8824 40.4849 53.8824 40.5206 53.8824C40.6098 53.8824 40.7703 53.8824 40.8239 53.8824C41.0201 53.8824 41.1807 53.8996 41.5196 53.8996C41.6445 53.8996 41.6624 53.8824 41.6624 53.8309C41.6802 53.7621 41.6981 53.5902 41.6981 53.5559C41.6981 53.5215 41.6981 53.5215 41.6802 53.5215C41.6624 53.5215 41.6624 53.5387 41.6624 53.5559C41.6624 53.6074 41.6267 53.659 41.591 53.6934C41.5375 53.7449 41.4304 53.7621 41.3056 53.7621C41.1272 53.7621 41.0558 53.7449 41.0201 53.7106C40.9666 53.659 40.9666 53.5043 40.9666 53.2121V52.7996H40.9844Z" fill="black"/>
<path d="M44.1238 53.9174C44.2486 53.9174 44.3912 53.9002 44.4982 53.8314C44.6764 53.7283 44.7299 53.5564 44.7299 53.4361C44.7299 53.2127 44.6229 53.058 44.3377 52.8518L44.2664 52.8002C44.0704 52.6627 44.0169 52.5768 44.0169 52.4736C44.0169 52.3361 44.1238 52.233 44.3021 52.233C44.4625 52.233 44.5338 52.3018 44.5695 52.3533C44.6229 52.4049 44.6408 52.4908 44.6408 52.508C44.6408 52.5424 44.6586 52.5424 44.6586 52.5424C44.6764 52.5424 44.6764 52.5252 44.6764 52.4736C44.6764 52.3018 44.6942 52.233 44.6942 52.1986C44.6942 52.1814 44.6764 52.1814 44.6586 52.1643C44.6051 52.1471 44.4982 52.1299 44.3377 52.1299C43.9991 52.1299 43.7852 52.3189 43.7852 52.5596C43.7852 52.7486 43.8743 52.9033 44.1417 53.1096L44.2486 53.1955C44.4447 53.3502 44.4803 53.4533 44.4803 53.5736C44.4803 53.6939 44.3734 53.8314 44.1595 53.8314C44.0169 53.8314 43.8743 53.7627 43.8208 53.5908C43.803 53.5564 43.803 53.5049 43.803 53.4705C43.803 53.4533 43.803 53.4189 43.7852 53.4189C43.7673 53.4189 43.7673 53.4533 43.7495 53.4877C43.7495 53.5221 43.7317 53.6596 43.7317 53.7799C43.7317 53.8314 43.7317 53.8486 43.7852 53.8658C43.8743 53.9002 43.9812 53.9174 44.1238 53.9174Z" fill="black"/>
<path d="M42.4649 53.2127C42.4649 53.4361 42.4649 53.6252 42.4471 53.7283C42.4471 53.7971 42.4292 53.8314 42.3758 53.8486C42.3579 53.8486 42.3223 53.8486 42.2866 53.8486C42.251 53.8486 42.251 53.8658 42.251 53.8658C42.251 53.883 42.2688 53.883 42.3044 53.883C42.4114 53.883 42.554 53.883 42.6075 53.883C42.6788 53.883 42.8214 53.883 42.9818 53.883C42.9996 53.883 43.0353 53.883 43.0353 53.8658C43.0353 53.8486 43.0174 53.8486 42.9996 53.8486C42.964 53.8486 42.9105 53.8486 42.8748 53.8486C42.8036 53.8314 42.7857 53.7971 42.7857 53.7283C42.7679 53.6252 42.7679 53.4533 42.7679 53.2127V52.8002C42.7679 52.4564 42.7679 52.3877 42.7679 52.3189C42.7679 52.233 42.7857 52.1986 42.857 52.1814C42.8927 52.1814 42.8927 52.1814 42.9283 52.1814C42.964 52.1814 42.964 52.1814 42.964 52.1471C42.964 52.1299 42.9461 52.1299 42.9105 52.1299C42.8214 52.1299 42.6788 52.1299 42.6253 52.1299C42.554 52.1299 42.4114 52.1299 42.3044 52.1299C42.2688 52.1299 42.251 52.1299 42.251 52.1471C42.251 52.1643 42.2688 52.1814 42.2866 52.1814C42.3223 52.1814 42.3579 52.1814 42.3758 52.1814C42.4292 52.1986 42.447 52.233 42.4649 52.3189C42.4649 52.3877 42.4649 52.4564 42.4649 52.8002V53.2127Z" fill="black"/>
<path d="M36.2563 53.2127C36.2563 53.4189 36.2563 53.608 36.2385 53.7111C36.2385 53.7799 36.2207 53.8314 36.1671 53.8314C36.1493 53.8314 36.1136 53.8314 36.0779 53.8314C36.0601 53.8314 36.0423 53.8314 36.0423 53.8486C36.0423 53.8658 36.0601 53.8658 36.0958 53.8658C36.185 53.8658 36.3455 53.8658 36.3991 53.8658C36.5239 53.8658 36.738 53.883 36.9164 53.883C37.3625 53.883 37.6122 53.7283 37.7193 53.608C37.862 53.4705 37.9869 53.2471 37.9869 52.9721C37.9869 52.6971 37.8798 52.508 37.7549 52.3877C37.4873 52.1299 37.0948 52.1299 36.7916 52.1299C36.6488 52.1299 36.4883 52.1299 36.4169 52.1299C36.3455 52.1299 36.2028 52.1299 36.0779 52.1299C36.0423 52.1299 36.0244 52.1299 36.0244 52.1471C36.0244 52.1643 36.0423 52.1643 36.0601 52.1643C36.0958 52.1643 36.1315 52.1643 36.1493 52.1643C36.2207 52.1814 36.2385 52.2158 36.2563 52.3018C36.2563 52.3705 36.2563 52.4393 36.2563 52.783V53.2127ZM36.5596 52.7658V52.3018C36.5596 52.2846 36.5775 52.2674 36.5953 52.2502C36.6132 52.2502 36.7024 52.233 36.7559 52.233C36.9521 52.233 37.2197 52.2674 37.4338 52.4736C37.5409 52.5768 37.6657 52.7486 37.6657 53.0408C37.6657 53.2814 37.6122 53.4877 37.4695 53.6252C37.3268 53.7455 37.1662 53.7971 36.9164 53.7971C36.7202 53.7971 36.631 53.7455 36.5953 53.7111C36.5775 53.6768 36.5775 53.5908 36.5596 53.5393C36.5596 53.4877 36.5596 53.3158 36.5596 53.0752V52.7658Z" fill="black"/>
<path d="M34.8113 53.2127C34.8113 53.4361 34.8113 53.6252 34.7935 53.7283C34.7935 53.7971 34.7757 53.8314 34.7222 53.8486C34.7044 53.8486 34.6687 53.8486 34.6331 53.8486C34.5974 53.8486 34.5974 53.8658 34.5974 53.8658C34.5974 53.883 34.6152 53.883 34.6509 53.883C34.74 53.883 34.9004 53.883 34.9539 53.883C35.0252 53.883 35.1678 53.883 35.3282 53.883C35.3461 53.883 35.3639 53.883 35.3639 53.8658C35.3639 53.8486 35.3461 53.8486 35.3282 53.8486C35.2926 53.8486 35.2391 53.8486 35.2035 53.8486C35.1322 53.8314 35.1143 53.7971 35.1143 53.7283C35.1143 53.6252 35.1143 53.4533 35.1143 53.2127V52.8002C35.1143 52.4564 35.1143 52.3877 35.1143 52.3189C35.1143 52.233 35.1322 52.1986 35.2035 52.1814C35.2213 52.1814 35.2569 52.1814 35.2748 52.1814C35.2926 52.1814 35.3104 52.1814 35.3104 52.1471C35.3104 52.1299 35.2926 52.1299 35.2569 52.1299C35.1678 52.1299 35.0252 52.1299 34.9717 52.1299C34.9004 52.1299 34.7578 52.1299 34.6687 52.1299C34.6331 52.1299 34.6152 52.1299 34.6152 52.1471C34.6152 52.1643 34.6331 52.1814 34.6509 52.1814C34.6687 52.1814 34.7044 52.1814 34.74 52.1814C34.7935 52.1986 34.8113 52.233 34.8291 52.3189C34.8291 52.3877 34.8291 52.4564 34.8291 52.8002V53.2127H34.8113Z" fill="black"/>
<path d="M33.2774 53.0236C33.2774 53.0064 33.2774 53.0064 33.2952 53.0064C33.3309 53.0064 33.5807 53.0064 33.652 53.0236C33.7234 53.0236 33.7591 53.0752 33.7769 53.1096C33.7769 53.1439 33.7948 53.1611 33.7948 53.1783C33.7948 53.1955 33.7948 53.2127 33.8126 53.2127C33.8305 53.2127 33.8305 53.1955 33.8305 53.1611C33.8305 53.1439 33.8305 53.0408 33.8483 52.9893C33.8483 52.9205 33.8661 52.8689 33.8661 52.8518C33.8661 52.8346 33.8661 52.8346 33.8483 52.8346C33.8305 52.8346 33.8305 52.8518 33.8126 52.8518C33.7948 52.8861 33.7591 52.8861 33.7056 52.8861C33.6699 52.8861 33.6342 52.8861 33.5985 52.8861H33.2952C33.2774 52.8861 33.2774 52.8861 33.2774 52.8689V52.3018C33.2774 52.2846 33.2952 52.2674 33.2952 52.2674L33.6699 52.2846C33.7591 52.2846 33.8126 52.3189 33.8305 52.3533C33.8483 52.3877 33.8483 52.4221 33.8483 52.4393C33.8483 52.4736 33.8483 52.4736 33.8661 52.4736C33.884 52.4736 33.884 52.4564 33.884 52.4393C33.884 52.4049 33.884 52.2674 33.9018 52.2502C33.9197 52.1986 33.9197 52.1643 33.9197 52.1471C33.9197 52.1299 33.9197 52.1299 33.9018 52.1299C33.884 52.1299 33.884 52.1471 33.8661 52.1471C33.8483 52.1471 33.8126 52.1471 33.7591 52.1471H33.1347C33.0633 52.1471 32.9206 52.1471 32.7957 52.1471C32.76 52.1471 32.7422 52.1471 32.7422 52.1643C32.7422 52.1814 32.76 52.1814 32.7779 52.1814C32.8135 52.1814 32.8492 52.1814 32.8671 52.1814C32.9384 52.1986 32.9563 52.233 32.9741 52.3189C32.9741 52.3877 32.9741 52.4564 32.9741 52.8002V53.2127C32.9741 53.4361 32.9741 53.608 32.9563 53.7111C32.9384 53.7799 32.9384 53.8314 32.8849 53.8314C32.8671 53.8314 32.8314 53.8314 32.7957 53.8314C32.76 53.8314 32.76 53.8486 32.76 53.8486C32.76 53.8658 32.7779 53.8658 32.8135 53.8658C32.9027 53.8658 33.0455 53.8658 33.1168 53.8658C33.1882 53.8658 33.3309 53.8658 33.4736 53.8658C33.5093 53.8658 33.5272 53.8658 33.5272 53.8486C33.5272 53.8314 33.5093 53.8314 33.4915 53.8314C33.4558 53.8314 33.4023 53.8314 33.3666 53.8314C33.2952 53.8143 33.2774 53.7627 33.2774 53.7111C33.2596 53.608 33.2596 53.4361 33.2596 53.2127V53.0236H33.2774Z" fill="black"/>
<path d="M18.0779 53.2127C18.0779 53.4189 18.0779 53.608 18.0601 53.7111C18.0601 53.7799 18.0422 53.8314 17.9887 53.8314C17.9708 53.8314 17.9352 53.8314 17.8995 53.8314C17.8638 53.8314 17.8638 53.8314 17.8638 53.8486C17.8638 53.8658 17.8816 53.8658 17.9173 53.8658C18.0065 53.8658 18.1671 53.8658 18.2206 53.8658C18.3455 53.8658 18.5596 53.883 18.738 53.883C19.184 53.883 19.4338 53.7283 19.5408 53.608C19.6835 53.4705 19.8084 53.2471 19.8084 52.9721C19.8084 52.6971 19.7014 52.508 19.5765 52.3877C19.3089 52.1299 18.9164 52.1299 18.6131 52.1299C18.4704 52.1299 18.3098 52.1299 18.2385 52.1299C18.1671 52.1299 18.0244 52.1299 17.8816 52.1299C17.846 52.1299 17.8281 52.1299 17.8281 52.1471C17.8281 52.1643 17.846 52.1643 17.8638 52.1643C17.8995 52.1643 17.9352 52.1643 17.9708 52.1643C18.0422 52.1814 18.0601 52.2158 18.0779 52.3018C18.0779 52.3705 18.0779 52.4393 18.0779 52.783V53.2127ZM18.3812 52.7658C18.3812 52.5939 18.3812 52.3877 18.3812 52.3018C18.3812 52.2846 18.399 52.2674 18.4169 52.2502C18.4347 52.2502 18.5239 52.233 18.5774 52.233C18.7737 52.233 19.0413 52.2674 19.2554 52.4736C19.3624 52.5768 19.4873 52.7486 19.4873 53.0408C19.4873 53.2814 19.4338 53.4877 19.291 53.6252C19.1483 53.7455 18.9878 53.7971 18.738 53.7971C18.5417 53.7971 18.4525 53.7455 18.4169 53.7111C18.399 53.6768 18.399 53.5908 18.399 53.5393C18.399 53.4877 18.399 53.3158 18.399 53.0752V52.7658H18.3812Z" fill="black"/>
<path d="M15.5791 53.1439C15.5791 53.4705 15.6683 53.6424 15.7932 53.7627C15.9716 53.9174 16.2035 53.9174 16.3284 53.9174C16.489 53.9174 16.6674 53.9002 16.828 53.7455C17.0242 53.5908 17.0599 53.3158 17.0599 53.0408V52.8002C17.0599 52.4564 17.0599 52.3877 17.0599 52.3189C17.0599 52.233 17.0777 52.1986 17.1491 52.1814C17.1848 52.1814 17.2026 52.1814 17.2205 52.1814C17.2561 52.1814 17.2561 52.1814 17.2561 52.1643C17.2561 52.1471 17.2383 52.1471 17.2026 52.1471C17.1134 52.1471 16.9528 52.1471 16.935 52.1471C16.935 52.1471 16.7923 52.1471 16.6674 52.1471C16.6317 52.1471 16.6139 52.1471 16.6139 52.1643C16.6139 52.1814 16.6317 52.1814 16.6496 52.1814C16.6674 52.1814 16.7209 52.1814 16.7388 52.1814C16.8101 52.1986 16.828 52.233 16.8458 52.3189C16.8458 52.3877 16.8458 52.4564 16.8458 52.8002V53.0924C16.8458 53.333 16.8458 53.5393 16.7031 53.6596C16.596 53.7455 16.4712 53.7799 16.3641 53.7799C16.2749 53.7799 16.1679 53.7627 16.0608 53.6768C15.9359 53.5736 15.8824 53.4361 15.8824 53.1096V52.783C15.8824 52.4393 15.8824 52.3705 15.8824 52.3018C15.8824 52.2158 15.9181 52.1814 15.9716 52.1643C16.0073 52.1643 16.0073 52.1643 16.043 52.1643C16.0608 52.1643 16.0787 52.1643 16.0787 52.1471C16.0787 52.1299 16.0608 52.1299 16.0251 52.1299C15.9359 52.1299 15.7932 52.1299 15.7219 52.1299C15.6505 52.1299 15.4899 52.1299 15.365 52.1299C15.3294 52.1299 15.3115 52.1299 15.3115 52.1471C15.3115 52.1643 15.3294 52.1643 15.3472 52.1643C15.3829 52.1643 15.4186 52.1643 15.4364 52.1643C15.5256 52.1814 15.5434 52.2158 15.5434 52.3018C15.5434 52.3705 15.5434 52.4393 15.5434 52.783V53.1439H15.5791Z" fill="black"/>
<path d="M38.8078 53.2123C38.8078 53.4186 38.8078 53.6076 38.79 53.7107C38.7722 53.7795 38.7722 53.8311 38.7186 53.8311C38.7008 53.8311 38.6651 53.8311 38.6294 53.8311C38.5938 53.8311 38.5938 53.8482 38.5938 53.8482C38.5938 53.8654 38.6116 53.8654 38.6473 53.8654C38.7365 53.8654 38.897 53.8654 38.9506 53.8654C39.0933 53.8654 39.2539 53.8826 39.6107 53.8826C39.6999 53.8826 39.7177 53.8826 39.7355 53.8139C39.7534 53.7623 39.7712 53.6076 39.7712 53.5561C39.7712 53.5389 39.7712 53.5045 39.7534 53.5045C39.7355 53.5045 39.7355 53.5217 39.7355 53.5389C39.7177 53.6248 39.682 53.6764 39.6285 53.7107C39.575 53.7451 39.4679 53.7451 39.3966 53.7451C39.1468 53.7451 39.1111 53.7107 39.1111 53.5561C39.1111 53.4873 39.1111 53.2811 39.1111 53.1951V53.0061C39.1111 52.9889 39.1111 52.9889 39.129 52.9889C39.1825 52.9889 39.4144 52.9889 39.4679 52.9889C39.5571 52.9889 39.5928 53.0232 39.6107 53.0748C39.6107 53.1092 39.6107 53.1436 39.6285 53.1607C39.6285 53.1779 39.6285 53.1779 39.6463 53.1779C39.6642 53.1779 39.6642 53.1607 39.6642 53.1436C39.6642 53.1264 39.6642 53.0404 39.682 52.9889C39.682 52.8686 39.6999 52.8342 39.6999 52.817C39.6999 52.7998 39.682 52.7998 39.682 52.7998C39.6642 52.7998 39.6642 52.817 39.6463 52.8342C39.6285 52.8514 39.5928 52.8686 39.5393 52.8686C39.4858 52.8686 39.2003 52.8686 39.1646 52.8686C39.1468 52.8686 39.1468 52.8686 39.1468 52.8514V52.267C39.1468 52.2498 39.1468 52.2498 39.1646 52.2498C39.2182 52.2498 39.4679 52.2498 39.5036 52.267C39.6285 52.2842 39.6463 52.3014 39.6642 52.3529C39.682 52.3873 39.682 52.4217 39.682 52.4389C39.682 52.4561 39.682 52.4732 39.6999 52.4732C39.7177 52.4732 39.7177 52.4561 39.7177 52.4389C39.7177 52.4045 39.7355 52.3014 39.7355 52.2842C39.7355 52.1811 39.7534 52.1467 39.7534 52.1295C39.7534 52.1123 39.7534 52.1123 39.7355 52.1123C39.7177 52.1123 39.7177 52.1295 39.6999 52.1295C39.682 52.1295 39.6463 52.1467 39.5928 52.1467H38.9862C38.9149 52.1467 38.7722 52.1467 38.6473 52.1467C38.6116 52.1467 38.5938 52.1467 38.5938 52.1639C38.5938 52.1811 38.6116 52.1811 38.6294 52.1811C38.6651 52.1811 38.7008 52.1811 38.7186 52.1811C38.8078 52.1982 38.8257 52.2326 38.8257 52.3186C38.8257 52.3873 38.8257 52.4561 38.8257 52.7998V53.2123H38.8078Z" fill="black"/>
<path d="M29.103 53.2123C29.103 53.4186 29.103 53.6076 29.0852 53.7107C29.0852 53.7795 29.0673 53.8311 29.0138 53.8311C28.996 53.8311 28.9603 53.8311 28.9246 53.8311C28.8889 53.8311 28.8889 53.8482 28.8889 53.8482C28.8889 53.8654 28.9068 53.8654 28.9424 53.8654C29.0495 53.8654 29.1922 53.8654 29.2457 53.8654C29.3171 53.8654 29.4598 53.8654 29.6204 53.8654C29.6382 53.8654 29.6561 53.8654 29.6561 53.8482C29.6561 53.8311 29.6382 53.8311 29.6204 53.8311C29.5847 53.8311 29.5312 53.8311 29.4955 53.8311C29.4241 53.8139 29.4063 53.7623 29.4063 53.7107C29.3884 53.6076 29.3884 53.4186 29.3884 53.2123V52.267H29.6917C29.9058 52.267 29.9772 52.3357 29.9772 52.4045V52.4217C29.9772 52.4561 29.995 52.4732 30.0129 52.4732C30.0307 52.4732 30.0307 52.4561 30.0307 52.4389C30.0307 52.3701 30.0307 52.2154 30.0307 52.1811C30.0307 52.1467 30.0307 52.1295 30.0129 52.1295C29.995 52.1295 29.9415 52.1467 29.7809 52.1467H28.8354C28.764 52.1467 28.657 52.1467 28.6035 52.1467C28.55 52.1467 28.5143 52.1123 28.4964 52.1123C28.4786 52.1123 28.4786 52.1295 28.4607 52.1639C28.4607 52.1811 28.4072 52.3873 28.4072 52.4217C28.4072 52.4561 28.4072 52.4561 28.4251 52.4561C28.4429 52.4561 28.4429 52.4389 28.4429 52.4217C28.4429 52.4045 28.4607 52.3701 28.4786 52.3357C28.5143 52.2842 28.5678 52.267 28.7105 52.267H29.0673V53.2123H29.103Z" fill="black"/>
<path d="M23.715 52.3701C23.7864 52.267 23.8399 52.1982 23.8934 52.1811C23.9291 52.1811 23.9648 52.1639 23.9827 52.1639C24.0005 52.1639 24.0183 52.1467 24.0183 52.1467C24.0183 52.1295 24.0005 52.1295 23.9827 52.1295C23.8934 52.1295 23.8042 52.1295 23.7507 52.1295C23.715 52.1295 23.608 52.1295 23.5188 52.1295C23.4831 52.1295 23.4653 52.1295 23.4653 52.1467C23.4653 52.1639 23.4831 52.1639 23.501 52.1639C23.5188 52.1639 23.5545 52.1639 23.5723 52.1639C23.5902 52.1639 23.608 52.1811 23.608 52.1982C23.608 52.2154 23.608 52.2498 23.5902 52.2842C23.5545 52.3529 23.3404 52.6623 23.269 52.7654C23.1798 52.6107 23.0728 52.4389 22.9657 52.2498C22.9479 52.2326 22.9479 52.1982 22.9479 52.1811C22.9479 52.1639 22.9479 52.1467 22.9836 52.1467C23.0014 52.1467 23.0371 52.1467 23.0549 52.1467C23.0728 52.1467 23.0906 52.1467 23.0906 52.1295C23.0906 52.1123 23.0728 52.1123 23.0371 52.1123C22.9479 52.1123 22.8052 52.1123 22.7873 52.1123C22.6803 52.1123 22.484 52.1123 22.4305 52.1123C22.3948 52.1123 22.377 52.1123 22.377 52.1295C22.377 52.1467 22.377 52.1467 22.3948 52.1467C22.4127 52.1467 22.4662 52.1467 22.5019 52.1639C22.5911 52.1811 22.6446 52.2498 22.6981 52.3357L23.1085 52.9889L22.6446 53.6248C22.5554 53.7451 22.5197 53.7795 22.4484 53.7967C22.4127 53.8139 22.377 53.8139 22.3592 53.8139C22.3413 53.8139 22.3235 53.8311 22.3235 53.8311C22.3235 53.8482 22.3413 53.8482 22.3592 53.8482H22.3948C22.4305 53.8482 22.5554 53.8482 22.5911 53.8482C22.6446 53.8482 22.8052 53.8482 22.823 53.8482H22.8587C22.8944 53.8482 22.9122 53.8482 22.9122 53.8311C22.9122 53.8139 22.8944 53.8139 22.8765 53.8139C22.8587 53.8139 22.8409 53.8139 22.823 53.8139C22.8052 53.8139 22.7695 53.7967 22.7695 53.7795C22.7695 53.7451 22.7873 53.7279 22.8052 53.6764L23.162 53.1264C23.269 53.2982 23.4118 53.5217 23.5366 53.7451C23.5545 53.7795 23.5366 53.7967 23.5366 53.7967C23.5188 53.7967 23.501 53.8139 23.501 53.8139C23.501 53.8311 23.5188 53.8482 23.5902 53.8482C23.7686 53.8482 23.9648 53.8482 24.0183 53.8482H24.0897C24.1254 53.8482 24.1432 53.8482 24.1432 53.8311C24.1432 53.8139 24.1254 53.8139 24.1075 53.8139C24.0897 53.8139 24.054 53.8139 24.0183 53.7967C23.947 53.7795 23.9113 53.7451 23.8756 53.6936C23.8221 53.6248 23.4296 52.9889 23.3582 52.8857L23.715 52.3701Z" fill="black"/>
<path d="M27.6402 53.4879C27.6581 53.4879 27.6581 53.4879 27.6581 53.5051L27.7651 53.7973C27.783 53.8316 27.7651 53.8488 27.7473 53.8488C27.7294 53.8488 27.7116 53.8488 27.7116 53.866C27.7116 53.8832 27.7473 53.8832 27.783 53.8832C27.9792 53.8832 28.1398 53.8832 28.229 53.8832C28.3182 53.8832 28.336 53.8832 28.336 53.866C28.336 53.8488 28.3182 53.8488 28.3003 53.8488C28.2647 53.8488 28.229 53.8488 28.1933 53.8488C28.1398 53.8316 28.0684 53.8145 27.9792 53.591C27.8187 53.2473 27.444 52.302 27.3905 52.1645C27.3726 52.1129 27.3548 52.0957 27.3191 52.0957C27.3013 52.0957 27.2834 52.1301 27.2478 52.1988L26.6412 53.6426C26.5877 53.7629 26.552 53.8316 26.4449 53.8488C26.4271 53.8488 26.3914 53.8488 26.3736 53.8488C26.3557 53.8488 26.3379 53.8488 26.3379 53.866C26.3379 53.8832 26.3557 53.8832 26.3914 53.8832C26.5163 53.8832 26.6412 53.8832 26.6769 53.8832C26.7482 53.8832 26.8553 53.8832 26.9266 53.8832C26.9623 53.8832 26.9623 53.8832 26.9623 53.866C26.9623 53.8488 26.9623 53.8488 26.9266 53.8488H26.8909C26.8196 53.8488 26.8017 53.8145 26.8017 53.7801C26.8017 53.7629 26.8196 53.6941 26.8374 53.6426L26.8909 53.5223C26.8909 53.5051 26.9088 53.5051 26.9088 53.5051H27.6402V53.4879ZM26.998 53.3676C26.9801 53.3676 26.9801 53.3676 26.9801 53.3504L27.2834 52.577C27.2834 52.577 27.2834 52.5598 27.3013 52.5598C27.3013 52.5598 27.3013 52.577 27.3191 52.577L27.6224 53.3504C27.6224 53.3504 27.6224 53.3676 27.6046 53.3676H26.998Z" fill="black"/>
<path d="M21.3775 53.4879C21.3954 53.4879 21.3954 53.4879 21.3954 53.5051L21.5024 53.7973C21.5203 53.8316 21.5024 53.8488 21.4846 53.8488C21.4668 53.8488 21.4489 53.8488 21.4489 53.866C21.4489 53.8832 21.4846 53.8832 21.5203 53.8832C21.7165 53.8832 21.8949 53.8832 21.9663 53.8832C22.0555 53.8832 22.0733 53.8832 22.0733 53.866C22.0733 53.8488 22.0555 53.8488 22.0376 53.8488C22.002 53.8488 21.9663 53.8488 21.9306 53.8488C21.8771 53.8316 21.8057 53.8145 21.7165 53.591C21.556 53.2473 21.1813 52.302 21.1099 52.1645C21.0921 52.1129 21.0743 52.0957 21.0564 52.0957C21.0386 52.0957 21.0207 52.1301 20.9851 52.1988L20.3785 53.6426C20.325 53.7629 20.2893 53.8316 20.1822 53.8488C20.1644 53.8488 20.1287 53.8488 20.1109 53.8488C20.093 53.8488 20.0752 53.8488 20.0752 53.866C20.0752 53.8832 20.093 53.8832 20.1287 53.8832C20.2536 53.8832 20.3785 53.8832 20.4142 53.8832C20.4855 53.8832 20.5926 53.8832 20.6639 53.8832C20.6996 53.8832 20.6996 53.8832 20.6996 53.866C20.6996 53.8488 20.6996 53.8488 20.6639 53.8488H20.6283C20.5569 53.8488 20.539 53.8145 20.539 53.7801C20.539 53.7629 20.5569 53.6941 20.5747 53.6426L20.6283 53.5223C20.6283 53.5051 20.6461 53.5051 20.6461 53.5051H21.3775V53.4879ZM20.7175 53.3676C20.7175 53.3676 20.6996 53.3676 20.7175 53.3504L21.0207 52.577L21.0386 52.5598L21.0564 52.577L21.3597 53.3504C21.3597 53.3676 21.3597 53.3676 21.3419 53.3676H20.7175Z" fill="black"/>
<path d="M14.3843 53.4875C14.3843 53.4875 14.4022 53.4875 14.4022 53.5047L14.5092 53.7969C14.5271 53.8312 14.5092 53.8484 14.4914 53.8484C14.4735 53.8484 14.4557 53.8484 14.4557 53.8656C14.4557 53.8828 14.4914 53.8828 14.5271 53.8828C14.7233 53.8828 14.9017 53.8828 14.9731 53.8828C15.0623 53.8828 15.0801 53.8828 15.0801 53.8656C15.0801 53.8484 15.0623 53.8484 15.0444 53.8484C15.0087 53.8484 14.9731 53.8484 14.9374 53.8484C14.8839 53.8312 14.8125 53.8141 14.7233 53.5906C14.5627 53.2469 14.1881 52.3016 14.1346 52.1641C14.1346 52.1125 14.1346 52.0781 14.0989 52.0781C14.081 52.0781 14.0632 52.1125 14.0275 52.1813L13.4388 53.625C13.3853 53.7453 13.3496 53.8141 13.2425 53.8312C13.2247 53.8312 13.189 53.8312 13.1712 53.8312C13.1533 53.8312 13.1355 53.8312 13.1355 53.8484C13.1355 53.8656 13.1533 53.8656 13.189 53.8656C13.3139 53.8656 13.4388 53.8656 13.4745 53.8656C13.5458 53.8656 13.6529 53.8656 13.7242 53.8656C13.7421 53.8656 13.7599 53.8656 13.7599 53.8484C13.7599 53.8312 13.7599 53.8312 13.7242 53.8312H13.6707C13.5993 53.8312 13.5815 53.7969 13.5815 53.7625C13.5815 53.7453 13.5994 53.6766 13.6172 53.625L13.6707 53.5047C13.6707 53.4875 13.6886 53.4875 13.6886 53.4875H14.3843ZM13.7421 53.3672C13.7242 53.3672 13.7242 53.3672 13.7242 53.35L14.0275 52.5766L14.0454 52.5594C14.0454 52.5594 14.0454 52.5766 14.0632 52.5766L14.3665 53.35C14.3665 53.3672 14.3665 53.3672 14.3487 53.3672H13.7421Z" fill="black"/>
<path d="M36.8985 35.5265L36.8806 35.1827H37.2374C37.7191 35.1827 37.9689 34.7359 38.0938 34.2031C36.2027 34.1859 29.459 34.2202 29.459 34.2202V40.9234C30.0299 40.528 30.5651 40.1843 31.2787 39.9781V38.8093V38.4999H31.5998H31.9923C32.028 36.8843 32.4383 35.6984 33.2233 34.9249L33.4552 34.7015L33.6872 34.9249C34.4721 35.6984 34.8646 36.8671 34.9182 38.4999H35.3285H35.6496V38.8093V40.064C36.4168 40.3734 36.9341 40.8374 37.3445 41.3359C37.9867 40.0812 38.4506 38.6374 38.6111 36.9702C38.5755 36.9702 38.5398 36.9874 38.5041 36.9874C37.737 36.9874 36.952 36.489 36.8985 35.5265Z" fill="black"/>
<path d="M33.4196 40.3047C31.3679 40.3047 30.5829 40.8547 29.459 41.6797V48.0906C29.459 48.0906 34.3116 46.475 36.9698 41.9547C36.3454 41.0953 35.4534 40.3047 33.4196 40.3047ZM35.0966 42.9L34.49 42.2297L33.4552 43.1234L33.8834 43.5875C33.8834 43.5875 34.3294 43.3812 34.7041 43.8281C34.4186 44.0687 33.9013 44.4984 33.6158 44.7391C33.2233 44.3094 33.4909 43.9141 33.4909 43.9141L33.0628 43.45L31.7782 44.55L31.3679 44.0859L32.6703 43.0203L32.2064 42.5047C32.2064 42.5047 32.028 42.6594 31.7782 42.8656C31.4036 42.4531 31.1181 41.9031 31.3858 41.2156C32.1351 41.0437 32.6524 41.4047 33.0271 41.8172C32.7773 42.0406 32.5989 42.1781 32.5989 42.1781L33.0806 42.7109L34.151 41.8516L33.5444 41.1641C34.0975 41.0953 34.5792 41.2844 34.8646 41.5937C35.0966 41.9031 35.2393 42.3844 35.0966 42.9Z" fill="black"/>
<path d="M38.5761 34.2031C38.5761 34.2031 38.5226 34.2031 38.4334 34.2031C38.2728 34.9766 37.8981 35.5094 37.238 35.5094C37.2916 36.2656 37.8981 36.6609 38.469 36.6609C38.5225 36.6609 38.5582 36.6438 38.6118 36.6438C38.6474 35.8703 38.6653 35.0625 38.5761 34.2031Z" fill="black"/>
<path d="M20.5038 34.1514C20.0221 34.1514 19.701 34.1514 19.701 34.1686C19.5761 35.5092 19.6296 36.7295 19.8259 37.8467C20.3254 37.0561 20.8249 36.2654 20.7892 35.7154C20.7714 35.1311 20.6287 34.6154 20.5038 34.1514Z" fill="black"/>
<path d="M20.8427 34.1514C20.9676 34.6154 21.1103 35.1311 21.1282 35.6982C21.146 36.3514 20.6465 37.1592 20.1113 38.0186C20.0399 38.1217 19.9864 38.2076 19.9329 38.3107C21.4671 45.6326 28.8174 48.0732 28.8174 48.0732V34.1686C28.8353 34.1686 23.3047 34.1514 20.8427 34.1514ZM26.3554 42.8482C25.9986 42.917 25.4099 42.9685 25.0174 42.9685C24.6249 42.9685 24.054 42.9342 23.6794 42.8482C23.715 42.6936 23.7686 42.4873 23.8221 42.2811C23.5545 42.2639 23.269 42.1607 23.0371 42.0748C23.1441 41.6967 23.3225 41.3186 23.4653 40.8029C23.9648 40.9061 24.4465 40.9576 24.9996 40.9576C25.5526 40.9576 26.0343 40.9232 26.5338 40.8029C26.6766 41.3186 26.855 41.6967 26.9798 42.0748C26.7658 42.1435 26.4803 42.2467 26.1949 42.2811C26.2662 42.4873 26.3197 42.6936 26.3554 42.8482ZM23.3582 39.8061C23.6258 39.7029 24.7141 39.6686 25.0352 39.6686C25.3564 39.6686 26.4268 39.7201 26.7122 39.8061C26.7479 39.9436 26.7479 40.1326 26.7301 40.2873C26.3197 40.4076 25.5883 40.4592 25.0531 40.4592C24.5 40.4592 23.7864 40.3904 23.3761 40.2873C23.3226 40.1326 23.3226 39.9436 23.3582 39.8061ZM27.4437 37.0732C27.0334 38.0014 26.6409 38.9811 26.516 39.2732C26.3019 39.2389 26.07 39.2217 25.8381 39.2045C26.1057 38.3795 26.4446 37.2107 26.7301 36.4717C26.9085 35.9561 27.8183 36.1967 27.4437 37.0732ZM25.0352 35.6811C25.1066 35.2514 26.3733 35.1654 26.1413 36.1107C25.9094 37.0732 25.6061 38.2076 25.3742 39.1701C25.2672 39.1701 25.1601 39.1701 25.0531 39.1701C24.946 39.1701 24.839 39.1701 24.7319 39.1701C24.5 38.2076 24.1967 37.0732 23.9648 36.1107C23.6972 35.1654 24.9639 35.2514 25.0352 35.6811ZM23.3404 36.4717C23.6258 37.2107 23.947 38.3795 24.2324 39.2045C24.0005 39.2217 23.7686 39.2389 23.5545 39.2732C23.4296 38.9811 23.0371 38.0186 22.6268 37.0732C22.2343 36.1967 23.1441 35.9561 23.3404 36.4717Z" fill="black"/>
<path d="M38.9329 24.2691H29.1385H19.3441H18.9873V24.6301V31.3676C19.0765 31.4191 19.1657 31.4879 19.2549 31.5566V24.5613H39.0935V31.0582C39.1649 31.127 39.2362 31.2129 39.3076 31.3332V24.6129V24.252H38.9329V24.2691Z" fill="black"/>
<path d="M19.9861 30.7143C20.5035 31.1268 20.6997 31.4189 20.5391 32.7939C20.5213 32.9658 20.6105 33.2924 20.7176 33.6361H38.1834C38.2012 33.4471 38.2191 33.2752 38.2191 33.1205C38.2369 32.3643 38.0942 31.7627 37.8444 31.5221C37.7552 31.4361 37.666 31.4018 37.5054 31.4018H37.4698L36.774 31.4705L37.1486 30.9033C37.5054 30.3361 38.0406 30.0096 38.5937 29.9752V24.9736H19.7363V30.5596C19.8077 30.5939 19.8612 30.6283 19.9326 30.6799L19.9861 30.7143ZM31.0829 30.0611V29.7174L30.2265 29.7002C30.4228 28.8236 32.189 27.7236 32.9918 27.4658C32.9561 26.5205 34.2406 26.2111 35.2754 26.1768C36.5599 26.1424 36.8632 27.483 36.8632 27.8955C36.8632 28.4455 36.7205 29.6658 36.0068 30.0439C34.9721 30.5939 34.0801 29.8377 34.0801 29.1502C34.0801 28.3939 34.6153 27.9643 35.5608 28.0674C36.4885 28.1705 36.4172 27.6549 35.7214 27.483C35.3824 27.3971 33.9017 27.3283 33.4021 28.3939C33.1167 28.4111 32.8134 28.2908 32.635 28.1189C32.4387 28.3596 32.1355 28.5143 31.7251 28.6346C32.0819 29.3393 32.8134 29.2189 33.2594 28.8924C33.2416 28.9955 33.2416 29.0814 33.2416 29.1846C33.2416 30.9205 35.1505 31.3502 36.328 30.6971C36.1317 31.2643 36.2209 31.9689 36.3101 32.4502H31.6716C31.743 31.9689 32.3674 31.4189 32.8848 31.0752L32.4744 30.4564C31.9749 30.6627 31.4932 30.8689 30.958 31.0064C29.6735 31.2986 29.7448 30.4049 31.0829 30.0611ZM27.8181 31.4705C27.6397 31.7111 26.5335 32.0377 26.2659 31.883C25.8021 31.608 25.5702 31.0408 25.6772 30.783C25.8021 30.4564 27.0152 30.1299 27.4077 30.2502C27.8002 30.3705 27.9608 31.2471 27.8181 31.4705ZM21.3776 28.7033C22.3946 28.1361 22.9298 27.7236 23.465 26.9158C23.0725 26.7268 22.5908 26.383 22.234 25.9018C24.1786 26.4346 25.1598 26.7096 27.4612 25.9189C27.0866 26.4861 26.5335 26.8299 26.0697 27.1221C26.5871 27.9471 27.1044 28.8924 27.2828 29.6486C26.6049 29.5971 25.8199 29.7518 25.2669 30.2502C24.4105 30.2846 23.3223 30.5424 22.7335 28.6689C22.4302 28.8236 22.1091 29.0127 22.1091 29.0127C22.4659 30.233 23.1082 31.0752 24.8209 30.8861C24.9101 31.2814 24.9814 31.5049 25.1955 31.8314C24.4997 32.2268 22.7335 33.2236 21.3955 32.0721V28.7033H21.3776Z" fill="black"/>
<path d="M19.7363 30.9551V33.6535H20.3602C20.2533 33.2926 20.1641 32.9832 20.1998 32.777C20.3424 31.402 20.1285 31.2645 19.7363 30.9551Z" fill="black"/>
<path d="M38.5751 33.6533V30.3018C38.1652 30.3361 37.7552 30.5768 37.4343 31.0752C37.47 31.0752 37.5056 31.0752 37.5413 31.0752C38.3078 31.0752 38.5751 32.0893 38.5573 33.1377C38.5573 33.3096 38.5395 33.4814 38.5395 33.6533H38.5751Z" fill="black"/>
<path d="M24.3218 29.0641C24.6429 29.2188 25.0532 29.0297 25.4635 29.0813C25.3743 28.9094 25.2851 28.7891 25.3387 28.5313C25.4457 28.05 25.0354 27.9297 24.857 27.9297C24.3753 27.9641 24.1255 28.05 23.626 27.9297C23.9471 28.2563 23.8757 28.8406 24.3218 29.0641Z" fill="black"/>
<path d="M318.76 37.8815V29.5799C318.76 28.2736 318.653 27.9471 318.297 27.5346C318.011 27.208 317.476 27.0189 316.887 27.0189C315.87 27.0189 314.282 27.8096 313.355 28.7377V37.8815H311.41V28.4283C311.41 26.6752 310.928 25.833 310.928 25.833L312.873 25.3174C312.873 25.3174 313.337 26.2283 313.337 27.2424C314.675 25.9533 315.995 25.3518 317.351 25.3518C318.725 25.3518 319.956 26.0564 320.473 27.1564C320.687 27.6033 320.776 28.1018 320.776 28.583V37.8986H318.76V37.8815Z" fill="black"/>
<path d="M273.142 37.8815V29.5799C273.142 28.2736 273.035 27.9471 272.679 27.5346C272.393 27.208 271.858 27.0189 271.269 27.0189C270.252 27.0189 268.665 27.8096 267.737 28.7377V37.8815H265.792V28.4283C265.792 26.6752 265.311 25.833 265.311 25.833L267.255 25.3174C267.255 25.3174 267.719 26.2283 267.719 27.2424C269.057 25.9533 270.377 25.3518 271.733 25.3518C273.125 25.3518 274.338 26.0564 274.855 27.1564C275.051 27.6033 275.158 28.1018 275.158 28.583V37.8986H273.142V37.8815Z" fill="black"/>
<path d="M239.423 38.0189H237.461L232.876 25.7299L234.928 25.3174L237.889 33.7736C238.246 34.7877 238.496 35.8705 238.496 35.8705H238.549C238.549 35.8705 238.763 34.908 239.156 33.808L242.082 25.6439H244.205L239.423 38.0189Z" fill="black"/>
<path d="M292.981 37.8811V28.8232C292.981 27.6373 292.428 27.0186 291.34 27.0186C290.198 27.0186 289.288 27.7404 287.968 28.9092V37.8811H285.952V29.167C285.952 28.4279 285.88 27.9295 285.595 27.5857C285.292 27.242 284.881 27.0873 284.293 27.0873C283.311 27.0873 282.366 27.5514 281.046 28.7201V37.8811H279.119V28.3764C279.119 26.6061 278.655 25.7639 278.655 25.7639L280.6 25.317C280.6 25.317 281.063 26.2795 281.063 27.1389C281.902 26.2279 283.472 25.2998 284.774 25.2998C286.023 25.2998 287.272 26.0389 287.736 27.3451C288.967 26.0904 290.519 25.2998 291.821 25.2998C293.712 25.2998 295.015 26.6748 295.015 28.6342V37.8982H292.981V37.8811Z" fill="black"/>
<path d="M300.528 32.0723V32.3645C300.528 33.516 300.689 34.4098 301.117 35.0457C301.83 36.1113 303.008 36.541 304.292 36.541C305.523 36.541 306.522 36.1629 307.414 35.3895L308.182 36.627C307.058 37.6066 305.523 38.1566 303.882 38.1566C300.35 38.1566 298.227 35.6988 298.227 31.6254C298.227 29.5629 298.69 28.2223 299.761 26.9848C300.778 25.8332 302.044 25.2832 303.579 25.2832C304.952 25.2832 306.166 25.7473 307.022 26.6066C308.128 27.6895 308.485 28.841 308.485 31.7801V32.0551H300.528V32.0723ZM305.773 27.8785C305.345 27.2082 304.453 26.7957 303.472 26.7957C301.652 26.7957 300.635 28.0676 300.528 30.6113H306.362C306.326 29.2879 306.148 28.4801 305.773 27.8785Z" fill="black"/>
<path d="M247.524 32.0723V32.3645C247.524 33.516 247.685 34.4098 248.113 35.0457C248.826 36.1113 250.004 36.541 251.288 36.541C252.519 36.541 253.518 36.1629 254.411 35.3895L255.178 36.627C254.054 37.6066 252.519 38.1566 250.878 38.1566C247.346 38.1566 245.223 35.6988 245.223 31.6254C245.223 29.5629 245.687 28.2223 246.757 26.9848C247.774 25.8332 249.041 25.2832 250.575 25.2832C251.949 25.2832 253.162 25.7473 254.036 26.6066C255.142 27.6895 255.499 28.841 255.499 31.7801V32.0551H247.524V32.0723ZM252.769 27.8785C252.341 27.2082 251.431 26.7957 250.468 26.7957C248.648 26.7957 247.631 28.0676 247.524 30.6113H253.358C253.322 29.2879 253.144 28.4801 252.769 27.8785Z" fill="black"/>
<path d="M263.829 27.4652C263.704 27.4137 263.472 27.3621 263.276 27.3621C262.509 27.3621 261.742 27.6887 261.153 28.2559C260.564 28.823 260.404 29.184 260.404 30.198V37.8809H258.406V28.4277C258.406 26.623 257.978 25.8152 257.978 25.8152L259.976 25.2996C259.976 25.2996 260.457 26.2621 260.386 27.2934C261.314 26.0387 262.652 25.248 263.972 25.248C264.311 25.248 264.668 25.3684 264.668 25.3684L263.829 27.4652Z" fill="black"/>
<path d="M226.633 38.2074C223.136 38.2074 221.138 35.7152 221.138 31.6762C221.138 27.6887 223.207 25.248 226.561 25.248C228.684 25.248 230.076 26.1762 230.932 27.3965C231.717 28.5137 232.11 29.9574 232.11 31.9512C232.11 36.0418 229.826 38.2074 226.633 38.2074ZM229.237 28.3934C228.702 27.3105 227.578 26.8121 226.526 26.8121C225.402 26.8121 224.349 27.3277 223.921 28.1355C223.51 28.8918 223.314 29.8887 223.314 31.3324C223.314 33.0512 223.618 34.5809 224.117 35.3543C224.581 36.0934 225.598 36.5918 226.704 36.5918C228.042 36.5918 229.041 35.9215 229.469 34.7355C229.755 33.9793 229.862 33.2918 229.862 32.0715C229.826 30.3699 229.648 29.2184 229.237 28.3934Z" fill="black"/>
<path d="M168.08 38.5344C167.295 38.2078 166.564 37.6406 166.242 37.0047C165.993 37.2453 165.707 37.5031 165.457 37.675C164.815 38.1219 163.888 38.3625 162.817 38.3625C159.909 38.3625 158.321 36.9359 158.321 34.4266C158.321 31.4703 160.444 30.0953 164.619 30.0953C164.869 30.0953 165.101 30.0953 165.386 30.1125V29.5969C165.386 28.1875 165.101 27.7234 163.852 27.7234C162.746 27.7234 161.479 28.2391 160.07 29.15L158.607 26.7781C159.303 26.3656 159.802 26.1078 160.73 25.7469C162.014 25.2312 163.103 25.0078 164.316 25.0078C166.51 25.0078 168.027 25.7984 168.544 27.2078C168.722 27.7234 168.794 28.1187 168.776 29.4766L168.704 33.7219C168.687 35.0969 168.776 35.6984 169.935 36.5234L168.08 38.5344ZM165.154 32.3641C162.781 32.3641 161.961 32.7766 161.961 34.2891C161.961 35.2688 162.603 35.9391 163.477 35.9391C164.119 35.9391 164.762 35.6125 165.261 35.0797L165.315 32.3641H165.154Z" fill="black"/>
<path d="M115.094 32.6047V32.7078C115.094 34.65 116.093 35.7672 117.859 35.7672C119.036 35.7672 120.142 35.3547 121.177 34.5125L122.515 36.4891C120.999 37.675 119.429 38.2422 117.573 38.2422C113.809 38.2422 111.383 35.6812 111.383 31.7109C111.383 29.4422 111.865 27.9469 113.024 26.7094C114.095 25.5578 115.397 25.0078 117.145 25.0078C118.662 25.0078 120.089 25.5062 120.927 26.3312C122.123 27.5172 122.676 29.2188 122.676 31.8484V32.6047H115.094ZM119.108 30.0437C119.108 29.1156 119.001 28.6172 118.697 28.1531C118.358 27.6547 117.877 27.4141 117.181 27.4141C115.879 27.4141 115.129 28.3938 115.129 30.1469V30.1984H119.09V30.0437H119.108Z" fill="black"/>
<path d="M101.856 32.6047V32.7078C101.856 34.65 102.855 35.7672 104.622 35.7672C105.799 35.7672 106.905 35.3547 107.94 34.5125L109.278 36.4891C107.762 37.675 106.174 38.2422 104.336 38.2422C100.572 38.2422 98.1455 35.6812 98.1455 31.7109C98.1455 29.4422 98.6272 27.9469 99.7868 26.7094C100.857 25.5578 102.16 25.0078 103.908 25.0078C105.424 25.0078 106.852 25.5062 107.69 26.3312C108.885 27.5172 109.439 29.2188 109.439 31.8484V32.6047H101.856ZM105.87 30.0437C105.87 29.1156 105.763 28.6172 105.46 28.1531C105.121 27.6547 104.639 27.4141 103.944 27.4141C102.641 27.4141 101.892 28.3938 101.892 30.1469V30.1984H105.853V30.0437H105.87Z" fill="black"/>
<path d="M179.551 37.8816V29.6832C179.551 28.2566 179.284 27.827 178.392 27.827C177.696 27.827 176.804 28.2738 176.019 28.9613V37.8816H172.594V28.7379C172.594 27.6551 172.433 26.6238 172.13 25.7816L175.181 24.9395C175.484 25.4551 175.662 26.0051 175.662 26.5207C176.18 26.177 176.608 25.8848 177.179 25.5926C177.874 25.2488 178.767 25.0426 179.534 25.0426C180.997 25.0426 182.263 25.7816 182.674 26.8645C182.852 27.3285 182.923 27.8785 182.923 28.6691V37.8816H179.551Z" fill="black"/>
<path d="M132.363 37.8816V29.6832C132.363 28.2566 132.113 27.827 131.203 27.827C130.508 27.827 129.616 28.2738 128.831 28.9613V37.8816H125.405V28.7379C125.405 27.6551 125.245 26.6238 124.941 25.7816L127.992 24.9395C128.295 25.4551 128.474 26.0051 128.474 26.5207C128.991 26.177 129.419 25.8848 129.99 25.5926C130.686 25.2488 131.578 25.0426 132.345 25.0426C133.808 25.0426 135.075 25.7816 135.485 26.8645C135.664 27.3285 135.735 27.8785 135.735 28.6691V37.8816H132.363Z" fill="black"/>
<path d="M93.3816 38.2254C92.9534 37.9332 92.5966 37.5207 92.3647 36.9879C91.5262 37.7785 90.2952 38.191 88.9215 38.191C87.0839 38.191 85.4961 37.3488 85.0501 36.1457C84.8539 35.5785 84.7646 34.9082 84.7646 33.6363V25.5582L88.1365 24.9395V33.052C88.1365 34.1863 88.2435 34.7707 88.4219 35.1145C88.6004 35.4582 89.1177 35.6988 89.6173 35.6988C90.4558 35.6988 91.4905 35.1145 91.7403 34.4957V25.627L95.0229 24.9566V34.5816C95.0229 35.4238 95.3084 36.2832 95.8079 36.8676L93.3816 38.2254Z" fill="black"/>
<path d="M143.513 38.2766C141.908 38.2766 140.142 37.7781 138.215 36.8328L139.446 34.4266C140.498 35.0453 142.318 35.8531 143.799 35.8531C144.762 35.8531 145.529 35.2344 145.529 34.4266C145.529 33.5672 144.887 33.1203 143.513 32.8797L141.979 32.6047C141.105 32.45 140.035 31.8656 139.571 31.3156C139.107 30.7828 138.821 29.8547 138.821 29.0469C138.821 26.5891 140.837 24.9219 143.888 24.9219C145.993 24.9219 147.367 25.5406 148.562 26.1078L147.438 28.325C146.136 27.6891 145.19 27.4141 144.209 27.4141C143.21 27.4141 142.55 27.9125 142.55 28.6516C142.55 29.2875 142.978 29.6313 144.191 29.9234L145.779 30.3187C147.385 30.7141 147.92 31.1781 148.384 31.7453C148.866 32.3297 149.098 33.0516 149.098 33.8938C149.115 36.5063 146.867 38.2766 143.513 38.2766Z" fill="black"/>
<path d="M329.376 27.0705H326.717V34.9768C326.717 36.3346 327.092 36.7986 328.359 36.7986C328.912 36.7986 329.251 36.7299 329.607 36.558L329.893 37.7955C329.251 38.1221 328.537 38.2939 327.645 38.2939C326.985 38.2939 326.468 38.1736 325.986 37.9502C325.094 37.5377 324.755 36.7471 324.755 35.5096V27.0877H323.096V25.6096H324.755C324.755 24.4236 324.951 22.4986 324.951 22.4986L327.056 22.0518C327.056 22.0518 326.807 23.9768 326.807 25.5924H330L329.376 27.0705Z" fill="black"/>
<path d="M213.395 38.1563C211.2 38.1563 209.327 37.4172 207.989 36.0422C206.508 34.4953 205.812 32.3984 205.812 29.4937C205.812 26.2625 206.705 23.9766 208.524 22.3953C209.773 21.3125 211.29 20.7969 213.109 20.7969C214.982 20.7969 216.588 21.3641 217.908 22.4641L216.963 23.7187C215.536 22.7906 214.501 22.4125 213.145 22.4125C211.093 22.4125 209.488 23.3234 208.774 25.2656C208.31 26.5203 208.078 27.9469 208.078 29.5625C208.078 31.7797 208.506 33.5672 209.309 34.6844C210.112 35.8016 211.896 36.4891 213.555 36.4891C214.661 36.4891 215.607 36.2656 216.338 35.8188V30.6625H212.806L212.396 28.9953H218.301V36.8844C217.07 37.6578 215.179 38.1563 213.395 38.1563Z" fill="black"/>
<path d="M82.6953 40.7859C82.6953 40.7859 82.1779 41.0781 81.1075 41.0781C79.7338 41.0781 78.5028 40.2875 77.8427 39.875C77.0042 39.3422 75.6126 38.5688 74.2389 38.1563C71.5807 38.1563 69.8323 37.4516 68.4765 35.75C67.1206 34.0656 66.4248 31.9 66.4248 29.3906C66.4248 25.6953 67.8877 22.7219 70.4389 21.3812C71.4915 20.8484 72.7938 20.5391 74.114 20.5391C78.8418 20.5391 81.7676 23.8734 81.7676 29.2359C81.7676 32.9484 80.3939 35.7328 78.2709 37.0906C78.7526 37.2625 79.4483 37.7094 79.8587 37.95C80.5009 38.3109 81.2681 38.6547 82.053 38.6547C82.8202 38.6547 83.6408 38.5344 83.6408 38.5344L82.6953 40.7859ZM77.2004 25.3688C76.915 24.5094 75.9694 23.2031 74.0784 23.2031C72.8831 23.2031 71.8305 23.7875 71.3131 24.6984C70.7065 25.7984 70.4211 27.3109 70.4211 29.3734C70.4211 32.3297 70.9384 34.1859 72.0089 34.925C72.5798 35.3203 73.2934 35.5094 74.1319 35.5094C76.6117 35.5094 77.6643 33.6875 77.6643 29.3219C77.6643 27.5859 77.5037 26.3313 77.2004 25.3688Z" fill="black"/>
<path d="M194.697 37.8809C194.59 37.6918 194.537 37.4855 194.501 37.1418C193.663 37.8637 192.663 38.2074 191.486 38.2074C188.168 38.2074 186.062 35.7152 186.062 31.7965C186.062 27.8605 188.328 25.1449 191.664 25.1449C192.61 25.1449 193.359 25.3684 193.984 25.8668C193.93 25.5918 193.877 24.7324 193.877 23.9934V19.6621L197.284 20.1777V33.2918C197.284 36.4027 197.534 37.3996 197.766 37.898H194.697V37.8809ZM193.93 28.5996C193.288 28.0496 192.681 27.7918 192.057 27.7918C190.523 27.7918 189.863 29.0293 189.863 31.8309C189.863 34.5465 190.451 35.423 192.235 35.423C192.878 35.423 193.591 34.9934 193.93 34.6152V28.5996Z" fill="black"/>
<path d="M155.199 38.1732C153.736 38.1732 152.559 37.5029 152.149 36.4545C151.899 35.8186 151.845 35.4232 151.845 33.6186V24.1998C151.845 22.5498 151.792 21.5357 151.667 20.4014L155.164 19.6279C155.289 20.3154 155.342 21.1232 155.342 22.9107V32.742C155.342 34.9076 155.36 35.1998 155.574 35.5436C155.699 35.767 155.984 35.8873 156.27 35.8873C156.395 35.8873 156.484 35.8873 156.645 35.8357L157.233 37.8123C156.644 38.0529 155.931 38.1732 155.199 38.1732Z" fill="black"/>
<path d="M31.8321 20.2465C31.7073 20.2465 31.5824 20.298 31.511 20.4012C31.3683 20.384 31.2256 20.3496 31.065 20.3324V19.559C31.2077 19.5074 31.3148 19.3699 31.3148 19.198C31.3148 18.9918 31.1364 18.8027 30.9223 18.8027C30.7082 18.8027 30.5298 18.9746 30.5298 19.198C30.5298 19.3355 30.619 19.473 30.7439 19.5418V20.2809C30.6012 20.2637 30.4763 20.2465 30.3157 20.2465C30.2622 20.109 30.1195 20.023 29.9589 20.023C29.7448 20.023 29.5664 20.1949 29.5664 20.4012C29.5664 20.6074 29.7448 20.7793 29.9589 20.7793C30.1016 20.7793 30.2265 20.7105 30.2979 20.6074C30.4584 20.6246 30.6012 20.6418 30.7439 20.659L30.726 21.7762C30.6012 21.8449 30.512 21.9652 30.512 22.1199C30.512 22.3262 30.6904 22.5152 30.9044 22.5152C31.1185 22.5152 31.3148 22.3434 31.3148 22.1199C31.3148 21.9652 31.2077 21.8277 31.0828 21.7762L31.1007 20.6934C31.2256 20.7105 31.3505 20.7277 31.4753 20.7449C31.5289 20.8996 31.6716 21.0027 31.85 21.0027C32.0641 21.0027 32.2425 20.8309 32.2425 20.6246C32.2246 20.4184 32.0462 20.2465 31.8321 20.2465Z" fill="black"/>
<path d="M28.3532 20.023C28.1926 20.023 28.0499 20.109 27.9785 20.2465C27.8358 20.2637 27.6931 20.2637 27.5504 20.2809V19.5418C27.6752 19.473 27.7644 19.3527 27.7644 19.198C27.7644 18.9918 27.586 18.8027 27.372 18.8027C27.14 18.8027 26.9616 18.9746 26.9616 19.198C26.9616 19.3527 27.0687 19.4902 27.1935 19.559L27.2114 20.3324C27.0687 20.3496 26.9081 20.3668 26.7654 20.4012C26.694 20.3152 26.587 20.2465 26.4442 20.2465C26.2302 20.2465 26.0518 20.4184 26.0518 20.6418C26.0518 20.848 26.2302 21.0199 26.4442 21.0199C26.6227 21.0199 26.7654 20.9168 26.8189 20.7621C26.9438 20.7449 27.0687 20.7277 27.1935 20.7105L27.2114 21.7934C27.0687 21.8449 26.9795 21.9824 26.9795 22.1371C26.9795 22.3434 27.1579 22.5324 27.372 22.5324C27.586 22.5324 27.7823 22.3605 27.7823 22.1371C27.7823 21.9824 27.6931 21.8621 27.5682 21.7934V20.6762C27.7109 20.659 27.8536 20.6418 28.0142 20.6246C28.0856 20.7277 28.2105 20.7965 28.3532 20.7965C28.5673 20.7965 28.7635 20.6246 28.7635 20.4184C28.7635 20.1949 28.5673 20.023 28.3532 20.023Z" fill="black"/>
<path d="M41.8945 12.0658C41.8945 9.65957 41.8053 7.68301 41.7696 7.06426C41.8588 7.08145 41.9658 7.11582 42.0729 7.15019C43.8569 7.75176 44.2673 9.83144 47.9781 7.47676C45.9978 7.70019 45.8907 6.08457 44.9809 6.0502C46.3546 5.29395 46.4438 3.5752 46.4438 3.5752C45.302 4.46895 42.6259 4.52051 42.1086 4.8127C41.4128 5.20801 40.5564 5.70645 39.9677 6.01582C38.4334 6.82363 39.5038 11.2236 39.3433 12.8221C38.5048 10.433 36.8278 10.7939 35.9536 9.41894C35.2935 10.5705 35.9893 12.4783 36.2569 13.0283C35.2935 13.7846 35.5611 15.1596 35.793 15.5377C36.6137 14.9705 37.8804 15.108 38.255 16.0705C37.1846 16.7064 35.3827 16.8096 34.1517 15.6752L33.7235 16.1393C34.5977 17.2393 36.7564 17.6689 38.3799 16.7752C38.3799 17.033 38.3085 17.308 38.2015 17.6174C37.363 18.0471 36.2747 18.2705 35.0437 17.858C35.2043 19.0611 36.6494 19.9549 38.0231 20.333C37.5592 20.6768 36.9883 20.8143 36.578 20.7627C36.8456 21.4674 36.9883 22.3955 36.4353 23.1346C35.7574 22.7049 35.3827 22.258 35.1329 20.5736C34.8653 18.8721 33.5987 17.1533 32.6174 16.8096C32.5639 17.4111 32.5639 17.1533 32.671 17.5314C35.2757 19.3705 33.8127 22.7049 36.5245 23.908C37.5236 22.808 37.5414 22.4299 37.3808 21.3986C38.3621 21.1408 39.0935 20.3502 39.3611 19.7314C38.4334 20.1611 36.9527 19.4049 36.5423 18.8205C38.1658 18.7689 39.6644 17.6002 41.1987 16.0533C42.5724 14.6783 44.3921 14.8846 44.2494 15.9674C45.195 15.8299 45.5696 14.5924 45.2663 13.7846C46.6579 13.3549 47.7461 12.3752 47.8889 10.8283C46.0156 11.7221 43.6607 10.2439 41.8945 12.0658ZM44.1245 13.3549C44.856 13.9393 44.6241 14.7643 44.4457 14.9533C43.8034 13.8877 41.7339 14.2486 39.7001 16.4658C39.5574 16.6377 39.3611 16.8268 39.147 17.0158C39.3076 14.3689 37.0597 14.3174 36.3996 14.5924C36.471 13.8361 36.9705 13.3033 37.2203 13.2346C36.5602 12.4955 36.4175 11.5674 36.3461 10.8799C37.4522 11.3439 39.0757 12.5814 39.3433 14.7127L40.0569 14.2486C39.8428 10.5189 39.8963 10.5361 39.8607 8.00957C39.8607 7.64863 39.8785 6.82363 41.0381 6.90957C41.0917 7.85488 41.2344 10.3471 41.1809 13.8189H41.5912C41.9658 12.8564 43.3039 11.7049 44.856 11.808C45.9086 11.8768 46.2832 11.8596 46.8898 11.6018C46.4081 12.7705 44.6062 13.2861 44.1245 13.3549ZM41.0917 6.25645C41.841 5.74082 42.3226 5.5002 42.7151 5.27676C43.3574 5.29395 44.4813 5.2252 45.1414 4.89863C44.4457 5.72363 44.3743 6.01582 43.2325 6.13613C44.7133 6.25645 45.3377 7.52832 46.0513 7.73457C43.5893 8.47363 43.3396 6.11895 41.0917 6.25645Z" fill="black"/>
<path d="M25.5878 17.9785C24.2141 18.0473 22.8761 19.766 23.4291 21.7254C23.215 21.7941 22.6263 21.7941 22.43 21.3988C22.2873 22.0348 20.9314 22.7738 19.9502 22.6707C20.4854 22.1035 20.8601 20.8316 21.9127 20.1613C22.9831 19.491 23.4469 19.0269 23.8216 17.8754C23.3221 18.0988 20.7709 18.7348 20.0394 17.9785C21.7343 17.7379 23.7146 16.827 24.6958 16.2254L24.3033 15.8301C23.2507 16.4145 21.8413 16.8785 21.1277 17.102C20.8779 15.0738 22.8761 15.1598 23.0366 15.7098C23.8573 14.7645 23.2864 13.4066 22.6798 13.252C23.3042 11.6363 22.6798 10.6395 22.1446 10.0379C22.0197 11.7566 20.0216 12.0316 19.7897 13.3551C19.7183 12.3066 19.6469 9.4707 19.5577 8.0957C19.4328 5.51758 16.061 4.60664 15.5436 4.60664C13.3492 4.70977 13.153 4.43477 13.2065 3.45508C12.0826 4.67539 12.4572 5.7582 13.4028 6.29102C13.2779 7.03008 12.0647 7.59727 11.3154 7.75195C13.0995 9.35039 15.169 8.40508 16.168 7.49414C16.2394 7.42539 16.2929 7.37383 16.3643 7.30508C16.7211 7.90664 16.9887 9.02383 16.9887 9.65976C15.3117 9.57383 15.0262 10.8113 15.0262 11.2754C17.1493 10.4332 17.3812 14.352 17.9342 14.9707C17.399 14.9363 16.4356 13.716 15.0262 13.6301C13.3136 13.5441 12.7248 14.4207 12.029 14.3863C12.1539 15.5379 13.6168 16.191 14.5624 16.3285C14.0807 17.5145 14.5089 18.3223 15.5079 18.6145C15.5079 17.5316 16.9352 17.1879 18.4516 18.0473C20.2892 19.0785 21.2169 19.1644 22.6976 18.7348C22.4479 19.2504 21.7878 19.302 20.985 20.0754C19.8432 21.1582 19.8075 22.5676 18.5408 23.0832C20.0394 23.7707 22.2873 22.8082 22.6084 22.2582C23.2329 22.6363 24.0357 22.4129 24.2498 22.0348C23.2329 19.8691 24.9455 18.5973 25.6235 18.6145C25.6235 18.5973 25.9268 17.9613 25.5878 17.9785ZM17.8272 17.102C17.0779 16.8098 15.9183 16.6207 15.276 17.4973C14.9192 16.8957 15.4366 16.0191 15.7577 15.7441C14.1164 15.7785 13.1887 15.2973 12.9389 14.816C13.5455 14.4895 15.0798 13.9566 16.3464 14.8504C17.2206 15.4691 17.6488 15.7613 18.6835 16.0879C19.0582 15.727 18.9155 15.8988 19.0404 15.7957C18.2018 15.2285 17.8272 10.9145 16.168 10.7598C16.4 10.2098 17.2563 10.2613 17.9521 10.4332C18.0056 9.4707 17.5953 7.87226 16.9709 6.94414C17.9342 6.46289 18.5943 6.97852 18.9155 8.13008C19.2723 9.35039 18.8441 12.3926 19.6826 15.1426L20.2 14.6785C19.9324 13.0801 21.7699 12.4957 22.1624 11.6879C22.323 12.7535 22.0911 13.252 21.7699 13.6301C22.43 13.6988 22.7333 14.3348 22.6263 14.7645C21.0385 14.541 20.1108 16.0707 20.4676 17.291C19.2723 17.5488 18.4695 17.3598 17.8272 17.102ZM13.3136 5.08789C14.5624 5.67227 14.9727 4.58945 17.3098 6.05039C15.7577 6.51445 14.5624 8.3707 12.814 7.88945C14.0629 7.28789 13.938 6.41133 14.6694 5.96445C14.2056 5.91289 13.2957 5.70664 13.3136 5.08789Z" fill="black"/>
<path d="M33.6703 23.3402C33.4206 21.7934 32.8497 17.4277 32.7783 15.984L32.0825 16.0184C32.0825 16.259 32.1182 16.5855 32.1539 16.9809C31.3332 16.7402 30.2449 16.5855 29.1388 16.5855C28.0327 16.5855 26.9445 16.7574 26.1238 16.9809C26.1595 16.6027 26.1952 16.2762 26.1952 16.0184L25.5172 15.9668C25.4459 17.4277 24.875 21.7762 24.6252 23.323C24.2149 23.4777 23.9473 23.873 23.9473 24.5777C23.9473 24.5777 27.6938 24.6293 29.1567 24.6293C30.6196 24.6293 34.3661 24.5777 34.3661 24.5777C34.3483 23.873 34.0807 23.4949 33.6703 23.3402ZM29.1388 23.2887C28.5501 24.3887 27.444 24.3543 26.4628 23.7355C26.0703 23.4949 25.6778 23.323 25.3031 23.2715C25.4637 22.1887 25.7492 20.1605 25.9454 18.4418C27.1942 17.8918 28.7464 17.7715 29.121 19.1637C29.4956 17.7715 31.0478 17.909 32.2966 18.4418C32.4928 20.1605 32.7783 22.2059 32.9389 23.2715C32.582 23.323 32.1717 23.4949 31.7792 23.7355C30.8515 24.3543 29.7454 24.3887 29.1388 23.2887Z" fill="black"/>
<path d="M36.9169 6.39375C36.9348 6.05 36.2747 5.79219 36.0963 5.775C35.8108 5.75781 35.4718 6.325 35.0972 6.66875C34.7761 5.01875 34.9366 4.29687 35.115 3.55781C35.8465 4.82969 36.8277 5.10469 37.3451 5.03594C35.5967 3.69531 35.9 2.475 35.3648 2.40625C35.0615 2.37187 34.8474 2.38906 34.6869 2.38906C34.0803 2.38906 33.9911 3.54062 33.9019 4.05625C33.5094 3.35156 33.1169 2.75 32.439 1.925C31.7967 0.326562 31.0117 0.721875 30.2089 0C30.8333 0.910937 30.3338 1.47812 31.7789 2.13125C32.1535 2.475 32.5995 3.025 32.885 3.45469C32.6352 3.76406 32.4746 3.93594 32.2427 4.15937C32.0643 4.41719 31.9751 5.41406 31.4221 6.15312C32.2427 5.80937 32.5817 5.31094 32.8671 4.84687C35.4897 6.75469 33.3667 11.6016 32.7601 12.6672C32.1892 12.2891 31.4399 12.0828 30.7798 11.9625L30.7084 11.7391L30.1019 9.83125H30.3873C30.7084 9.83125 30.7976 9.625 30.7441 9.45312L32.546 9.98594L33.3488 10.2266L32.8671 9.57344L32.0286 8.45625L32.8671 7.33906L33.3488 6.68594L32.546 6.92656L30.9225 7.40781C30.8155 7.04687 30.5122 6.875 30.1732 6.84062L30.7263 5.07031L30.9582 4.31406L30.2981 4.77812L29.1385 5.58594L27.9788 4.77812L27.3187 4.31406L27.5507 5.07031L28.1037 6.84062C27.7826 6.89219 27.4615 7.06406 27.3544 7.40781L25.7309 6.92656L24.9281 6.68594L25.4098 7.33906L26.2483 8.45625L25.4098 9.57344L24.9281 10.2266L25.7309 9.98594L27.5507 9.45312C27.4972 9.625 27.5685 9.83125 27.8896 9.83125H28.1751L27.5685 11.7391L27.4793 11.9797C26.7835 12.1 26.0342 12.3234 25.4633 12.7016C23.6971 9.41875 24.1967 6.08437 25.6774 4.98437C25.6596 5.68906 26.284 6.63437 26.5873 6.82344C26.391 6.10156 26.73 4.8125 26.3375 4.48594C26.0699 4.2625 25.6596 4.15937 25.2136 4.15937C25.5169 3.67812 25.9272 3.07656 26.623 2.2C27.6577 1.75312 27.961 0.584375 28.2108 0C27.0868 0.395312 26.2483 0.9625 26.0699 1.87344C25.6774 2.38906 25.2314 2.99062 24.7319 3.69531C24.7676 2.83594 24.268 2.54375 23.6258 2.49219C21.7347 2.87031 21.8596 4.19375 20.2361 5.10469C21.3422 5.48281 23.0906 3.12812 23.6971 3.38594C23.7863 4.82969 23.4474 5.96406 23.4474 6.75469C23.1619 6.44531 23.0192 6.23906 22.7694 6.20469C22.5375 6.17031 21.8952 6.22187 21.4671 6.68594C21.3422 7.425 21.3779 8.8 20.6643 10.4328C21.7168 9.50469 22.2342 7.66562 22.3948 7.13281C22.6624 7.49375 22.9657 8.28437 23.037 8.97187C23.1619 10.2781 24.0004 12.4781 24.714 13.5266C24.5178 13.8875 24.4643 14.3 24.5356 14.7641C23.9826 15.1594 23.9112 15.7094 24.1075 16.0875C24.3216 16.4828 24.8568 16.7578 25.499 16.5172L25.6953 16.4312C26.3732 16.1562 27.622 15.6578 29.1385 15.6578C30.6549 15.6578 31.9216 16.1562 32.5817 16.4312L32.7779 16.5172C33.4202 16.7578 33.9554 16.4828 34.1695 16.0875C34.3657 15.7094 34.2944 15.1594 33.7413 14.7641C33.8127 14.2828 33.7413 13.8359 33.5094 13.4406L33.5272 13.4578C34.8296 11.6703 34.9188 8.26719 35.9892 7.30469C36.0784 8.49062 36.7385 9.4875 37.3808 9.625C36.8812 8.78281 36.8812 7.15 36.9169 6.39375ZM30.976 7.99219L31.9394 7.7L31.4756 8.31875L31.3507 8.47344L31.4756 8.62812L31.9394 9.24687L30.7263 8.88594C30.8155 8.64531 30.9047 8.3875 30.976 7.99219ZM26.3732 9.26406L26.8371 8.64531L26.9619 8.49062L26.8371 8.33594L26.3732 7.71719L27.3366 8.00937C27.3901 8.40469 27.4793 8.67969 27.5864 8.92031L26.3732 9.26406ZM30.1732 8.95469H29.4239L29.5131 7.66562C30.6371 7.16719 30.5479 8.18125 30.1732 8.95469ZM29.9591 11.1547L29.3169 10.7078L29.1563 10.5875L28.9958 10.7078L28.3535 11.1547L28.7638 9.84844H29.5488L29.9591 11.1547ZM28.9779 6.15312L29.1385 6.27344L29.299 6.15312L29.9591 5.68906L29.5845 6.90937C29.5666 6.90937 29.5488 6.90937 29.5488 6.92656C29.4774 6.77187 29.3169 6.66875 29.1385 6.66875C28.9601 6.66875 28.7995 6.77187 28.7281 6.92656C28.7103 6.92656 28.7103 6.92656 28.6925 6.90937L28.3178 5.68906L28.9779 6.15312ZM28.1216 8.95469C27.7469 8.18125 27.6577 7.16719 28.7817 7.66562L28.8709 8.95469H28.1216ZM29.1385 11.2578L30.0483 11.8937C29.6559 11.8594 29.3347 11.8594 29.1385 11.8594C28.9422 11.8594 28.6211 11.8594 28.2286 11.8937L29.1385 11.2578ZM25.4277 15.7953L25.2314 15.8641C24.9638 15.9672 24.7854 15.8812 24.714 15.7609C24.6427 15.6234 24.6962 15.4 25.0173 15.2109C25.053 15.1937 25.1065 15.1594 25.1601 15.1422L25.8023 15.6406C25.6596 15.7094 25.5347 15.7609 25.4277 15.7953ZM27.6042 15.125L26.9441 14.5062C27.4972 14.3687 28.068 14.2828 28.6211 14.2484L29.0136 14.9875C28.5141 14.9875 28.0324 15.0562 27.6042 15.125ZM31.2793 15.2625L30.8868 14.4031C31.4756 14.5062 32.0465 14.6781 32.546 14.8844L32.7779 15.7781C32.4033 15.6234 31.9038 15.4172 31.2793 15.2625ZM29.1385 13.5609C27.8896 13.5609 26.4624 13.8531 25.3741 14.3C25.392 14.0594 25.4812 13.8703 25.6239 13.6812C26.2483 12.9422 27.9075 12.6844 29.1206 12.6844C30.3338 12.6844 31.993 12.9422 32.6174 13.6812C32.7779 13.8531 32.8493 14.0594 32.8671 14.3C31.8145 13.8359 30.423 13.5609 29.1385 13.5609Z" fill="black"/>
<path d="M20.2182 32.7252C20.3787 31.333 20.1468 31.2127 19.7365 30.8861C19.3797 30.594 18.7731 30.508 18.1843 30.1127C17.7562 29.8205 17.6313 29.4252 17.0961 28.8752C17.2031 27.7065 18.0773 26.2627 18.7196 25.9361C18.8088 25.8846 18.7909 24.0627 18.7909 24.0627C18.7909 24.0627 19.2191 24.0455 19.1834 24.0283C18.6125 23.6846 17.9167 23.9424 17.4172 24.5096C16.9355 24.8877 15.8116 25.6096 15.0444 25.8674C14.0097 25.0252 12.3862 24.269 11.1909 23.1346C11.1909 23.1346 12.7608 23.1174 13.4923 22.8424C13.6885 22.7221 14.1881 21.9658 13.974 21.2268C13.7242 21.1408 13.3853 20.969 13.0284 20.7799C12.6003 20.5393 12.1899 20.2986 11.9937 20.144C11.3158 19.6455 11.0303 19.2158 9.85284 18.9236C9.92421 18.408 10.0491 18.5283 10.5665 18.1846C11.2266 17.7549 11.6012 17.2393 11.8688 16.7236C12.0651 16.3283 11.8331 15.5033 11.3158 16.5518C11.1374 16.9127 10.62 17.4111 10.0312 17.5658C10.0848 17.2393 10.1026 17.0502 10.1026 16.8783C11.8331 15.7096 11.6547 14.6783 11.5298 13.6986C11.4228 13.1315 10.8519 12.8908 10.8698 13.4752C10.8876 13.8705 11.2444 14.9705 10.0669 15.6065C10.0312 15.1252 9.90637 14.9018 9.79932 14.6611C10.8519 13.3205 10.4059 12.0315 9.95989 11.4471C9.67444 11.069 8.9965 10.9486 9.29979 11.533C9.5674 12.0143 9.97773 13.3377 9.19275 13.8705C8.92514 13.5611 8.62185 13.4236 8.51481 12.994C8.58617 11.5502 8.49697 10.6565 8.30072 10.1408C8.12232 9.65958 7.64063 9.35021 7.67631 10.0721C7.71199 10.8799 7.78335 11.894 7.71199 11.9455C7.64063 12.0143 6.53452 11.0174 6.08851 10.7252C5.62465 10.4158 5.08944 10.5361 5.60681 11.1377C6.08851 11.6533 7.4979 12.6674 7.3195 12.994C7.21246 13.2002 6.19555 12.3924 5.66033 12.2205C5.12512 12.0486 4.96456 12.3236 5.41057 12.6674C6.14203 13.2346 6.62372 13.6127 7.81903 14.008C9.01434 14.3861 9.60308 15.9846 9.22843 18.2533C9.21059 18.3565 9.01434 18.3393 8.88946 18.3049C8.83594 17.4455 8.67537 16.3971 8.46129 15.9502C8.17584 15.3315 7.62279 15.3315 7.81903 16.1393C7.9796 16.7752 8.0688 17.4799 7.96175 18.3393C6.98053 18.1846 6.60588 17.9268 6.19555 17.6861C6.15987 17.2393 6.39179 16.5174 6.42747 15.8815C6.46316 15.2455 6.07066 14.8502 5.85658 15.6408C5.64249 16.4143 5.49977 16.7752 5.37489 17.3252C5.08944 17.2393 4.78615 17.119 4.66127 16.9643C4.58991 16.8955 4.66127 16.0361 4.58991 15.4002C4.51854 14.6955 4.2331 14.7127 4.01901 15.3315C3.91197 15.6236 3.84061 16.0018 3.80493 16.4486C3.46596 16.2596 3.23403 15.8815 3.19835 15.5549C3.25187 14.8158 3.37675 14.0424 3.46596 13.544C3.53732 13.2002 3.28755 12.4783 3.0021 13.3377C2.78802 13.9736 2.7345 14.4893 2.60961 14.919C2.35985 14.9018 2.03872 13.5096 1.86032 12.5986C1.78895 12.2033 1.43214 11.7393 1.36078 12.633C1.28942 13.6471 1.50351 14.6611 1.77111 15.108C1.27158 15.0565 0.789887 14.1799 0.433078 13.6643C0.12979 13.2174 -0.0307744 13.6815 0.00490656 13.8705C0.308194 15.658 1.78895 16.294 2.44905 16.4143C3.4838 17.8408 5.46409 18.4596 7.14109 19.1643C4.96456 19.1471 4.39366 19.9893 3.3946 19.4393C3.43028 20.2299 3.84061 20.5908 4.2331 20.7799C4.51854 20.9002 4.78615 20.9346 4.91103 20.969C5.08944 21.9315 6.03498 21.8799 6.8378 21.9315C6.62372 23.8049 6.87349 26.2799 8.56833 28.119C8.51481 29.0643 8.44345 30.319 8.46129 31.144C7.08757 32.3643 5.83874 34.9768 5.35705 36.4205C4.9824 37.5033 4.42934 38.3455 3.573 38.7408C4.26878 39.4455 5.30352 39.1018 5.9101 38.7065C5.94578 39.3424 6.10635 39.7893 6.21339 40.1674C5.8209 40.7346 5.53545 41.1299 5.57113 41.8346C5.12512 41.9549 4.80399 42.2299 4.57207 42.5221C4.4115 42.7111 4.58991 43.5705 4.76831 43.9315C5.32137 45.1346 4.89319 47.8502 4.78615 48.6408C5.01808 48.658 5.44625 48.658 5.53545 48.3315C5.67817 48.4518 6.01714 48.6924 6.17771 49.208C6.14203 49.4315 5.9993 50.2736 6.44531 50.3768C6.80212 50.4627 8.37209 50.4111 8.58617 50.1533C8.42561 49.9815 8.158 49.569 7.99744 49.1736C7.99744 48.7612 7.96175 48.2627 7.83687 48.0565C7.65847 47.7471 7.21245 47.0596 6.90917 46.7846C6.85565 46.2861 6.80212 44.069 7.03405 43.2268C7.44438 42.9518 10.1918 40.9924 10.7627 39.1018C11.2622 39.2736 11.1195 40.5799 11.1195 42.2815C11.1195 42.7455 11.6904 42.969 12.0472 43.0205C12.7965 43.1065 13.8491 43.794 15.0444 45.4955C15.2763 45.2549 15.5796 45.0315 15.5796 45.0315C15.7402 45.2377 15.9186 45.719 16.0256 46.0283C16.1505 46.269 17.1139 46.4065 17.8454 46.183C18.0951 46.0971 18.2379 46.0627 18.3984 45.8049C17.4707 44.2408 16.8998 43.1924 15.7045 42.333C15.1515 41.9377 14.4022 41.7315 13.7777 41.3533C14.1881 40.5971 15.3299 37.0908 14.6519 35.8018C14.42 35.3721 13.5458 34.9596 12.4932 35.1486C13.3674 34.1346 15.1693 32.1065 15.4012 31.4877C15.6153 31.7283 16.6679 31.5565 17.4529 31.8658C17.7383 31.9861 18.5412 32.983 18.5768 33.3268C18.6482 33.9455 18.6839 34.6846 18.2379 36.3861C18.559 36.3346 18.5055 36.3174 18.8088 36.1971C18.8623 36.644 18.7196 37.0049 18.3092 37.6924C18.4163 38.3111 18.7017 39.2565 19.005 39.4283C19.3975 38.2768 20.8783 36.6611 20.8426 35.6986C20.7712 34.3924 20.1468 33.2924 20.2182 32.7252Z" fill="black"/>
</svg>
