<svg width="26" height="14" viewBox="0 0 26 14" fill="none" xmlns="http://www.w3.org/2000/svg">
<path d="M12.9979 11.8294L24.1443 0.325484C24.3572 0.105553 24.6131 -0.00292229 24.9122 5.98422e-05C25.2114 0.00279347 25.4675 0.114126 25.6804 0.334057C25.8935 0.55374 26 0.818031 26 1.12693C26 1.43558 25.8935 1.69987 25.6804 1.9198L14.6397 13.3063C14.4064 13.5471 14.1463 13.7229 13.8593 13.8337C13.572 13.9446 13.2849 14 12.9979 14C12.7108 14 12.4237 13.9446 12.1365 13.8337C11.8495 13.7229 11.5893 13.5471 11.356 13.3063L0.315358 1.91085C0.102267 1.69117 -0.00283244 1.42837 5.80247e-05 1.12246C0.00270585 0.816539 0.110575 0.553739 0.323665 0.334056C0.536515 0.114125 0.792584 0.00415976 1.09187 0.00415978C1.39092 0.00415979 1.64699 0.114125 1.86008 0.334056L12.9979 11.8294Z" fill="#131212"/>
</svg>
