<svg width="26" height="14" viewBox="0 0 26 14" fill="none" xmlns="http://www.w3.org/2000/svg">
<path d="M13.0021 2.17061L1.85569 13.6745C1.64284 13.8944 1.38689 14.0029 1.08785 13.9999C0.788555 13.9972 0.532485 13.8859 0.319635 13.6659C0.106544 13.4463 1.30824e-08 13.182 0 12.8731C-1.30719e-08 12.5644 0.106544 12.3001 0.319635 12.0802L11.3603 0.693715C11.5936 0.452909 11.8537 0.27709 12.1407 0.166254C12.428 0.0554185 12.7151 1.29484e-08 13.0021 0C13.2891 -1.29484e-08 13.5763 0.0554184 13.8635 0.166254C14.1505 0.27709 14.4107 0.452909 14.644 0.693715L25.6846 12.0891C25.8977 12.3088 26.0028 12.5716 25.9999 12.8775C25.9973 13.1835 25.8894 13.4463 25.6763 13.6659C25.4635 13.8859 25.2074 13.9958 24.9081 13.9958C24.6091 13.9958 24.353 13.8859 24.1399 13.6659L13.0021 2.17061Z" fill="#131212"/>
</svg>
