<svg width="166" height="28" viewBox="0 0 166 28" fill="none" xmlns="http://www.w3.org/2000/svg">
<g clip-path="url(#clip0_10739_3580)">
<path d="M58.2447 20.2655C58.625 20.2655 58.9349 20.3365 59.2025 20.4642C59.456 20.6061 59.6532 20.8048 59.7941 21.0887C59.9209 21.3725 59.9913 21.7273 59.9913 22.153C59.9913 22.8058 59.8363 23.3025 59.5265 23.629C59.2166 23.9554 58.7517 24.1257 58.1179 24.1257H57.5404V20.2655H58.2587H58.2447ZM58.301 19.4424H56.5262V24.963H58.1601C58.7517 24.963 59.2588 24.8636 59.6955 24.6507C60.1181 24.4379 60.4561 24.1257 60.6815 23.6999C60.9069 23.2742 61.0336 22.7491 61.0336 22.1246C61.0336 21.5428 60.921 21.0461 60.7097 20.6487C60.4984 20.2514 60.1744 19.9533 59.78 19.7546C59.3715 19.5418 58.8926 19.4424 58.3292 19.4424M52.4695 19.4424H51.2581V24.963H52.1455V22.1814C52.1455 21.9969 52.1455 21.8266 52.1314 21.6421C52.1314 21.4576 52.1174 21.2873 52.1033 21.117C52.1033 20.9467 52.0892 20.7906 52.0751 20.6345H52.1033L54.695 24.963H55.9205V19.4424H55.0331V22.2524C55.0331 22.4227 55.0331 22.593 55.0472 22.7633C55.0472 22.9478 55.0472 23.1181 55.0613 23.2884C55.0613 23.4587 55.0613 23.6148 55.0754 23.7425H55.0472L52.4554 19.4424H52.4695ZM47.5113 22.6639L47.9902 21.2873C48.0184 21.2022 48.0466 21.0887 48.0747 20.9751C48.1029 20.8474 48.1452 20.7197 48.1733 20.592C48.2015 20.45 48.2297 20.3365 48.2578 20.223C48.2719 20.3081 48.3142 20.4217 48.3424 20.5778C48.3846 20.7197 48.4269 20.8616 48.4551 21.0035C48.4973 21.1454 48.5255 21.2448 48.5536 21.3015L49.0185 22.6781H47.4972L47.5113 22.6639ZM44.0885 19.4424H43.0884V24.963H46.7366L47.2437 23.5154H49.272L49.7932 24.963H50.8496L48.8354 19.4141H47.7085L46.0041 24.1115H44.0885V19.4282V19.4424ZM39.7782 24.0831C39.4965 23.9979 39.243 23.8986 39.0176 23.7993V24.7217C39.1584 24.7927 39.2993 24.8494 39.4683 24.892C39.6374 24.9346 39.8064 24.9772 39.9895 24.9913C40.1726 25.0197 40.3557 25.0197 40.567 25.0197C40.9755 25.0197 41.3417 24.9488 41.6375 24.821C41.9333 24.6933 42.1728 24.5088 42.3277 24.2676C42.4827 24.0263 42.5672 23.7425 42.5672 23.4303C42.5672 23.1464 42.5109 22.9052 42.3982 22.7065C42.2855 22.5078 42.1305 22.3375 41.9193 22.2098C41.708 22.0679 41.4685 21.9402 41.1727 21.8124C40.9192 21.6989 40.7079 21.5996 40.5529 21.5002C40.398 21.4151 40.2712 21.3157 40.2008 21.2164C40.1304 21.117 40.0881 20.9893 40.0881 20.8332C40.0881 20.7055 40.1163 20.592 40.1867 20.4926C40.243 20.3933 40.3416 20.3223 40.4684 20.2655C40.5952 20.2088 40.736 20.1804 40.9192 20.1804C41.1445 20.1804 41.3558 20.2088 41.5671 20.2655C41.7784 20.3223 41.9897 20.3933 42.215 20.4926L42.5249 19.6979C42.2714 19.5843 42.0178 19.4992 41.7643 19.4282C41.5108 19.3715 41.229 19.3289 40.9473 19.3289C40.5811 19.3289 40.2712 19.3857 39.9895 19.5134C39.7219 19.6269 39.4965 19.8114 39.3556 20.0243C39.2007 20.2514 39.1303 20.521 39.1303 20.8332C39.1303 21.0745 39.1725 21.2731 39.243 21.4576C39.3134 21.6279 39.4261 21.784 39.5528 21.9118C39.6796 22.0395 39.8205 22.153 39.9895 22.2382C40.1444 22.3233 40.3135 22.4085 40.4825 22.4794C40.736 22.5788 40.9473 22.6781 41.1164 22.7775C41.2854 22.8768 41.4122 22.9761 41.4967 23.0755C41.5812 23.189 41.6234 23.3167 41.6234 23.4728C41.6234 23.6148 41.5953 23.7283 41.5248 23.8418C41.4544 23.9412 41.3558 24.0263 41.215 24.0831C41.0741 24.1398 40.891 24.1682 40.6797 24.1682C40.398 24.1682 40.1163 24.1257 39.8346 24.0405M34.9186 19.4424H33.7072V24.963H34.5947V22.1814C34.5947 21.9969 34.5947 21.8266 34.5806 21.6421C34.5806 21.4576 34.5665 21.2873 34.5524 21.117C34.5524 20.9467 34.5383 20.7906 34.5242 20.6345H34.5524L37.1442 24.963H38.3696V19.4424H37.4822V22.2524C37.4822 22.4227 37.4822 22.593 37.4963 22.7633C37.4963 22.9478 37.4963 23.1181 37.5104 23.2884C37.5104 23.4587 37.5104 23.6148 37.5245 23.7425H37.4963L34.9045 19.4424H34.9186ZM33.1297 19.4424H30.0168V24.963H33.1297V24.1257H31.0028V22.5078H33.003V21.6847H31.0028V20.2797H33.1297V19.4566V19.4424ZM29.3407 19.4424H26.2277V24.963H29.3407V24.1257H27.2137V22.5078H29.2139V21.6847H27.2137V20.2797H29.3407V19.4566V19.4424ZM22.1147 19.4424H21.1287V23.0045C21.1287 23.6148 21.3118 24.1115 21.678 24.4804C22.0442 24.8494 22.5795 25.0481 23.2979 25.0481C23.805 25.0481 24.2134 24.963 24.5374 24.7785C24.8614 24.594 25.1149 24.3527 25.2699 24.0547C25.4248 23.7425 25.5093 23.4019 25.5093 23.0187V19.4424H24.5374V22.891C24.5374 23.1748 24.4952 23.4019 24.4106 23.6006C24.3261 23.7992 24.1994 23.9412 24.0162 24.0405C23.8331 24.1398 23.6077 24.1824 23.326 24.1824C22.9175 24.1824 22.6217 24.0831 22.4105 23.8702C22.1992 23.6573 22.1006 23.3309 22.1006 22.891V19.4282L22.1147 19.4424ZM16.424 22.1956C16.424 21.784 16.4804 21.4151 16.579 21.1312C16.6916 20.8332 16.8607 20.6061 17.086 20.45C17.3114 20.2939 17.6072 20.2088 17.9734 20.2088C18.5087 20.2088 18.9031 20.3791 19.1426 20.7339C19.382 21.0887 19.4947 21.5712 19.4947 22.1956C19.4947 22.6072 19.4384 22.9619 19.3398 23.26C19.2412 23.558 19.0721 23.7851 18.8468 23.9412C18.6214 24.0973 18.3256 24.1824 17.9734 24.1824C17.6213 24.1824 17.3255 24.0973 17.1001 23.9412C16.8748 23.7851 16.7057 23.558 16.593 23.26C16.4804 22.9619 16.4381 22.6072 16.4381 22.1956M15.6634 20.7055C15.4803 21.1312 15.3817 21.6279 15.3817 22.1956C15.3817 22.6213 15.438 23.0187 15.5366 23.3593C15.6352 23.7141 15.8042 24.0121 16.0155 24.2534C16.2268 24.5088 16.4944 24.6933 16.8184 24.8352C17.1424 24.9772 17.5227 25.0339 17.9734 25.0339C17.9875 25.0339 18.0157 25.0339 18.0439 25.0339C18.072 25.0339 18.0861 25.0339 18.1143 25.0339L19.1144 26.2828H20.4244L19.1003 24.8352C19.4243 24.7075 19.6919 24.5088 19.9032 24.2676C20.1145 24.0121 20.2694 23.7141 20.3821 23.3593C20.4807 23.0045 20.5371 22.6213 20.5371 22.1956C20.5371 21.6279 20.4385 21.1312 20.2553 20.7055C20.0722 20.2797 19.7905 19.9533 19.4102 19.7121C19.0299 19.4708 18.551 19.3573 17.9734 19.3573C17.3959 19.3573 16.9029 19.4708 16.5085 19.7121C16.1282 19.9533 15.8465 20.2797 15.6493 20.7055M10.832 20.2372C11.0855 20.2372 11.2968 20.2655 11.4517 20.3223C11.6208 20.3791 11.7334 20.4642 11.8039 20.592C11.8743 20.7055 11.9166 20.8758 11.9166 21.0603C11.9166 21.3725 11.832 21.5996 11.6489 21.7415C11.4658 21.8834 11.1982 21.9685 10.846 21.9685H10.2404V20.2372H10.832ZM10.8742 19.4424H9.26844V24.9346H10.2544V22.7633H11.0573L12.311 24.9346H13.4378L11.9166 22.4936C12.0997 22.4085 12.2687 22.3091 12.4236 22.1814C12.5786 22.0537 12.7054 21.8976 12.804 21.7131C12.9026 21.5286 12.9448 21.3015 12.9448 21.0319C12.9448 20.6771 12.8744 20.3791 12.7194 20.152C12.5645 19.9249 12.3391 19.7405 12.0292 19.6269C11.7194 19.5134 11.339 19.4566 10.8601 19.4566M4.59196 22.1814C4.59196 21.7699 4.6483 21.4151 4.7469 21.117C4.85959 20.819 5.01453 20.592 5.25399 20.4358C5.47936 20.2797 5.77517 20.1946 6.12731 20.1946C6.66257 20.1946 7.04288 20.3649 7.28234 20.7197C7.5218 21.0745 7.63449 21.557 7.63449 22.1814C7.63449 22.593 7.57814 22.9478 7.47954 23.2458C7.38094 23.5438 7.21191 23.7709 6.98654 23.927C6.76117 24.0831 6.47945 24.1682 6.11322 24.1682C5.74699 24.1682 5.47936 24.0831 5.23991 23.927C5.01453 23.7709 4.8455 23.5438 4.73282 23.2458C4.62013 22.9478 4.57788 22.593 4.57788 22.1814M3.83133 20.6913C3.64821 21.117 3.54961 21.6137 3.54961 22.1672C3.54961 22.593 3.60596 22.9761 3.70456 23.3309C3.80316 23.6857 3.97219 23.9837 4.18347 24.225C4.39476 24.4663 4.66239 24.6649 4.98636 24.8069C5.31034 24.9488 5.69065 25.0055 6.12731 25.0055C6.56397 25.0055 6.9302 24.9346 7.25417 24.8069C7.57814 24.6791 7.84577 24.4804 8.05706 24.225C8.26835 23.9695 8.42329 23.6715 8.53598 23.3309C8.63458 22.9903 8.69092 22.6072 8.69092 22.1814C8.69092 21.6137 8.59232 21.117 8.4092 20.6913C8.22609 20.2655 7.94437 19.9391 7.56406 19.7121C7.18374 19.485 6.70483 19.3573 6.1414 19.3573C5.57796 19.3573 5.07088 19.4708 4.69056 19.7121C4.31025 19.9391 4.02853 20.2797 3.84542 20.6913M3.12704 19.4424H0.0422573V24.9346H1.00009V22.7065H2.98618V21.8834H1.00009V20.2655H3.12704V19.4424ZM7.25417 14.2767C7.39503 13.7374 7.46546 13.1272 7.46546 12.4744C7.46546 11.4384 7.16966 10.6436 6.57805 10.1044C5.98645 9.56509 5.18356 9.29545 4.1553 9.29545H1.77481L1.1832 12.1196H3.40876L3.59187 11.2255L5.36668 13.4962L2.63404 15.7668L2.81715 14.8727H0.605688L0 17.7111H2.69038C3.29607 17.7111 3.84542 17.6401 4.33842 17.484C4.83142 17.3279 5.26808 17.1008 5.66248 16.817C6.0428 16.519 6.38085 16.1642 6.6344 15.7384C6.90203 15.3127 7.09923 14.8302 7.24009 14.2767M13.4801 11.1262L13.8604 9.29545H8.90221L7.14149 17.7111H12.0997L12.48 15.8662H9.74735L10.0713 14.2767H12.6068L13.0153 12.446H10.4798L10.7474 11.1262H13.4801ZM18.072 15.8803H15.3394L16.7198 9.29545H14.4802L12.7194 17.7111H17.6776L18.058 15.8662L18.072 15.8803ZM26.9179 17.7111L31.0591 9.29545H28.6927L26.6925 13.9361C26.608 14.1064 26.5235 14.3618 26.3967 14.7024C26.284 15.043 26.1854 15.3694 26.115 15.6817H26.0728C26.1009 15.5256 26.1291 15.3127 26.1432 15.0572C26.1432 14.8018 26.1573 14.5321 26.1714 14.2625C26.1714 13.9929 26.1714 13.7516 26.1714 13.5529L26.0305 9.30964H19.9736L19.706 10.6011L20.6216 11.0978L19.5933 15.9797L18.4946 16.4338L18.227 17.7253H22.4809L22.7485 16.4338L21.8189 15.9797L22.8471 11.0978L23.9317 10.6295L24.4388 17.7253H26.932L26.9179 17.7111ZM36.1159 11.1262L36.4962 9.29545H31.538L29.7773 17.7111H34.7355L35.1158 15.8662H32.3832L32.7072 14.2767H35.2426L35.6511 12.446H33.1156L33.3833 11.1262H36.1159ZM40.0599 11.7506C40.0599 11.9635 40.0318 12.148 39.9613 12.3041C39.8909 12.4602 39.8064 12.5879 39.6937 12.673C39.581 12.7724 39.4542 12.8292 39.3134 12.8859C39.1725 12.9285 39.0317 12.9569 38.8767 12.9569H38.5809L38.9753 11.041H39.2852C39.5669 11.041 39.7782 11.112 39.8909 11.2539C40.0036 11.3958 40.0599 11.5661 40.0599 11.779M47.2155 10.5869L47.4831 9.29545H43.187L42.9193 10.5869L43.8349 11.0836L42.8067 15.9655L41.708 16.4196V16.519L40.6797 14.1774C40.9192 14.0638 41.1727 13.9077 41.4122 13.709C41.6657 13.5103 41.877 13.2265 42.0319 12.8859C42.201 12.5453 42.2855 12.1054 42.2855 11.5945C42.2855 10.8281 42.0319 10.2463 41.5248 9.86311C41.0178 9.47994 40.2853 9.28126 39.3134 9.28126H37.1019L35.3412 17.6969H37.5808L38.2288 14.6315H38.6514L39.7641 17.6969H45.7083L45.976 16.4054L45.0463 15.9513L46.0746 11.0694L47.2155 10.5727V10.5869ZM53.6104 17.7111L55.3712 9.29545H53.3851L52.6385 12.815C52.5963 13.0136 52.554 13.2407 52.5117 13.5104C52.4695 13.78 52.4272 14.0354 52.3991 14.3051C52.3709 14.5605 52.3286 14.7876 52.3145 14.9579H52.2723L50.6383 9.29545H48.0466L46.2858 17.7111H48.2719L49.0044 14.1915C49.0466 14.0071 49.0889 13.78 49.1171 13.5387C49.1593 13.2975 49.1875 13.0562 49.2157 12.815C49.2438 12.5737 49.272 12.3608 49.2861 12.1763C49.3002 11.9919 49.3143 11.8641 49.3284 11.779H49.3706L51.0187 17.6969H53.6104V17.7111ZM62.3859 9.77796C62.0478 9.57928 61.6534 9.42317 61.2168 9.32383C60.766 9.22449 60.3012 9.16772 59.8223 9.16772C59.1602 9.16772 58.5686 9.26707 58.0334 9.45156C57.5122 9.65024 57.0474 9.90569 56.653 10.2463C56.2586 10.5869 55.9346 10.9842 55.681 11.4242C55.4275 11.8641 55.2303 12.3466 55.1035 12.8717C54.9768 13.3826 54.9204 13.9219 54.9204 14.4612C54.9204 15.5823 55.2021 16.4196 55.7796 16.9731C56.3572 17.5408 57.1178 17.8104 58.0615 17.8104C58.6813 17.8104 59.2307 17.7678 59.7237 17.6685C60.2026 17.5691 60.6392 17.4698 61.0336 17.3421L61.9915 12.7724H58.4982L58.1179 14.5321H59.4279L59.1321 15.8662C58.9771 15.8945 58.8644 15.9229 58.7517 15.9371C58.6531 15.9371 58.5264 15.9513 58.3714 15.9513C58.1179 15.9513 57.8925 15.8945 57.7235 15.7952C57.5545 15.6959 57.4136 15.5256 57.315 15.2985C57.2164 15.0714 57.1741 14.7876 57.1741 14.4328C57.1741 14.1064 57.2164 13.7374 57.315 13.3542C57.3995 12.9711 57.5545 12.6021 57.7517 12.2473C57.9489 11.8925 58.2165 11.6087 58.5545 11.3816C58.8926 11.1545 59.3011 11.041 59.7941 11.041C60.1322 11.041 60.442 11.0978 60.7378 11.1971C61.0336 11.2965 61.3013 11.4242 61.5407 11.5661L62.3859 9.79215V9.77796Z" fill="white"/>
<path d="M119.011 15.1283C118.687 15.1283 118.377 14.9864 118.11 14.8161C117.941 14.7167 117.659 14.518 117.462 14.4471C118.335 13.8652 118.898 12.6731 118.898 11.0837C118.898 8.78464 117.701 7.36548 115.771 7.36548C115.222 7.36548 114.687 7.4932 114.264 7.72027C113.222 8.28793 112.616 9.56517 112.616 11.1546C112.616 12.2332 112.898 13.1556 113.447 13.8794C113.997 14.6032 114.715 14.9154 115.8 14.9154C116.363 15.0999 116.926 15.4263 117.279 15.6534C117.546 15.8379 118.053 16.1643 118.617 16.1643C119.053 16.1643 119.265 16.0365 119.265 16.0365L119.645 15.0715C119.645 15.0715 119.307 15.1283 118.997 15.1283H119.011ZM115.757 13.7801C115.405 13.7801 115.123 13.6949 114.884 13.5246C114.447 13.2124 114.236 12.4177 114.236 11.1546C114.236 10.2748 114.349 9.62194 114.602 9.15362C114.814 8.77045 115.236 8.515 115.729 8.515C116.504 8.515 116.884 9.06847 117.011 9.43745C117.138 9.84901 117.194 10.3883 117.194 11.1404C117.194 13.0137 116.772 13.7943 115.743 13.7943L115.757 13.7801Z" fill="white"/>
<path d="M120.096 14.0497C120.012 13.8085 119.983 13.5246 119.983 12.9712V9.50841L121.364 9.23877V12.7015C121.364 13.184 121.406 13.4395 121.476 13.5814C121.547 13.7233 121.758 13.8368 121.969 13.8368C122.322 13.8368 122.73 13.5814 122.843 13.3259V9.5226L124.181 9.23877V13.3685C124.181 13.7233 124.294 14.0923 124.505 14.3477L123.505 14.9154C123.322 14.7877 123.181 14.6032 123.082 14.3903C122.73 14.7309 122.237 14.9012 121.674 14.9012C120.913 14.9012 120.265 14.5464 120.096 14.0213V14.0497Z" fill="white"/>
<path d="M129.942 12.5311V12.2047C129.942 11.0836 129.716 10.3456 129.223 9.84891C128.871 9.49412 128.294 9.28125 127.674 9.28125C126.956 9.28125 126.434 9.50832 125.984 10.005C125.519 10.5301 125.308 11.1687 125.308 12.148C125.308 13.8509 126.308 14.9437 127.843 14.9437C128.59 14.9437 129.252 14.7024 129.857 14.1915L129.308 13.3542C128.885 13.709 128.435 13.8935 127.942 13.8935C127.223 13.8935 126.815 13.4252 126.815 12.5879V12.5453H129.914L129.942 12.5311ZM126.871 11.4809C126.871 10.7288 127.181 10.3172 127.702 10.3172C127.984 10.3172 128.181 10.4166 128.322 10.6295C128.449 10.8281 128.491 11.041 128.491 11.4384V11.4951H126.871V11.4668V11.4809Z" fill="white"/>
<path d="M135.238 12.5311V12.2047C135.238 11.0836 135.012 10.3456 134.519 9.84891C134.167 9.49412 133.59 9.28125 132.97 9.28125C132.252 9.28125 131.73 9.50832 131.28 10.005C130.815 10.5301 130.604 11.1687 130.604 12.148C130.604 13.8509 131.604 14.9437 133.139 14.9437C133.885 14.9437 134.548 14.7024 135.153 14.1915L134.604 13.3542C134.181 13.709 133.731 13.8935 133.238 13.8935C132.519 13.8935 132.111 13.4252 132.111 12.5879V12.5453H135.21L135.238 12.5311ZM132.153 11.4809C132.153 10.7288 132.463 10.3172 132.984 10.3172C133.266 10.3172 133.463 10.4166 133.604 10.6295C133.731 10.8281 133.773 11.041 133.773 11.4384V11.4951H132.153V11.4668V11.4809Z" fill="white"/>
<path d="M136.224 10.8708C136.224 10.4024 136.168 9.96251 136.041 9.60772L137.281 9.25293C137.407 9.48 137.478 9.70706 137.478 9.93413C137.689 9.79221 137.858 9.66449 138.098 9.53676C138.379 9.39485 138.745 9.3097 139.055 9.3097C139.647 9.3097 140.168 9.62191 140.337 10.0902C140.408 10.2889 140.436 10.516 140.436 10.8566V14.8018H139.055V11.2965C139.055 10.6863 138.957 10.5018 138.591 10.5018C138.309 10.5018 137.943 10.6863 137.619 10.9843V14.8018H136.21V10.885L136.224 10.8708Z" fill="white"/>
<path d="M143.506 14.958C142.844 14.958 142.126 14.7451 141.337 14.3335L141.844 13.2976C142.267 13.5672 143.013 13.9078 143.619 13.9078C144.013 13.9078 144.337 13.6382 144.337 13.2976C144.337 12.9286 144.07 12.7441 143.506 12.6306L142.872 12.517C142.52 12.4603 142.069 12.2048 141.886 11.9636C141.703 11.7365 141.576 11.3391 141.576 10.9985C141.576 9.94835 142.407 9.23877 143.647 9.23877C144.506 9.23877 145.07 9.50841 145.563 9.74967L145.098 10.7005C144.563 10.4309 144.182 10.3173 143.774 10.3173C143.365 10.3173 143.098 10.5302 143.098 10.8424C143.098 11.1121 143.281 11.2682 143.774 11.3959L144.422 11.5662C145.084 11.7365 145.295 11.9352 145.492 12.1764C145.689 12.4319 145.788 12.7299 145.788 13.0989C145.788 14.22 144.872 14.9722 143.492 14.9722L143.506 14.958Z" fill="white"/>
<path d="M146.788 8.94059C146.788 8.23101 146.774 7.80526 146.718 7.32274L148.155 6.99634C148.211 7.29436 148.225 7.63496 148.225 8.40131V12.602C148.225 13.5245 148.225 13.6522 148.324 13.8083C148.38 13.9076 148.493 13.9502 148.605 13.9502C148.662 13.9502 148.69 13.9502 148.76 13.936L149 14.7733C148.76 14.8727 148.464 14.9152 148.169 14.9152C147.577 14.9152 147.084 14.6314 146.929 14.1773C146.83 13.9076 146.802 13.7373 146.802 12.971V8.94059H146.788Z" fill="white"/>
<path d="M153.55 12.9994L153.578 11.1829C153.578 10.6011 153.55 10.4308 153.479 10.2179C153.268 9.62185 152.648 9.28125 151.747 9.28125C151.254 9.28125 150.803 9.38059 150.282 9.59347C149.902 9.74957 149.69 9.86311 149.409 10.0334L150 11.041C150.578 10.6578 151.099 10.4308 151.55 10.4308C152.057 10.4308 152.183 10.6295 152.183 11.2255V11.4526C152.071 11.4526 151.972 11.4526 151.874 11.4526C150.169 11.4526 149.296 12.0486 149.296 13.3117C149.296 14.3902 149.944 15.0005 151.141 15.0005C151.578 15.0005 151.958 14.9011 152.226 14.7024C152.324 14.6315 152.451 14.5179 152.55 14.4186C152.691 14.6882 152.972 14.9295 153.31 15.0714L154.057 14.2057C153.592 13.8509 153.55 13.5955 153.55 12.9994ZM152.155 13.5813C151.944 13.8084 151.69 13.9503 151.423 13.9503C151.071 13.9503 150.803 13.6665 150.803 13.2407C150.803 12.6021 151.141 12.4176 152.113 12.4176H152.169L152.141 13.5813H152.155Z" fill="white"/>
<path d="M157.395 10.4876C157.113 10.4876 156.747 10.6721 156.423 10.9701V14.7876H155.014V10.8708C155.014 10.4024 154.958 9.96251 154.831 9.60772L156.071 9.25293C156.197 9.48 156.268 9.70706 156.268 9.93413C156.479 9.79221 156.648 9.66449 156.888 9.53676C157.169 9.39485 157.536 9.3097 157.845 9.3097C158.437 9.3097 158.958 9.62191 159.127 10.0902C159.198 10.2889 159.226 10.516 159.226 10.8566V14.8018H157.845V11.2965C157.845 10.6863 157.747 10.5018 157.381 10.5018L157.395 10.4876Z" fill="white"/>
<path d="M165.001 12.8149V7.20924L163.606 6.98218V8.84128C163.606 9.15349 163.62 9.52247 163.648 9.636C163.381 9.42313 163.085 9.32379 162.691 9.32379C161.324 9.32379 160.395 10.4875 160.395 12.1763C160.395 13.8651 161.254 14.9153 162.62 14.9153C163.099 14.9153 163.507 14.7734 163.86 14.4611C163.874 14.6031 163.902 14.6882 163.944 14.7734H165.198C165.099 14.5605 165.001 14.1347 165.001 12.8007V12.8149ZM163.62 13.3826C163.479 13.5529 163.198 13.7374 162.93 13.7374C162.198 13.7374 161.958 13.3542 161.958 12.2047C161.958 11.0552 162.226 10.4733 162.86 10.4733C163.113 10.4733 163.367 10.5868 163.62 10.8281V13.3968V13.3826Z" fill="white"/>
<path d="M115.518 21.1879H117.94V24.5655C117.433 24.9061 116.658 25.119 115.926 25.119C115.025 25.119 114.264 24.8068 113.715 24.2107C113.109 23.5437 112.827 22.6497 112.827 21.4008C112.827 20.0242 113.193 19.045 113.94 18.3638C114.447 17.8955 115.067 17.6826 115.813 17.6826C116.56 17.6826 117.236 17.9239 117.785 18.4064L117.391 18.9457C116.799 18.5483 116.391 18.3922 115.827 18.3922C114.996 18.3922 114.334 18.7754 114.039 19.6127C113.855 20.152 113.757 20.7622 113.757 21.4434C113.757 22.3942 113.94 23.1606 114.264 23.6431C114.588 24.1114 115.32 24.4094 115.996 24.4094C116.447 24.4094 116.828 24.3101 117.137 24.1256V21.9259H115.687L115.518 21.2021V21.1879Z" fill="white"/>
<path d="M123.363 20.5069C123.011 19.996 122.447 19.5845 121.574 19.5845C120.208 19.5845 119.349 20.6346 119.349 22.3376C119.349 24.0406 120.166 25.1334 121.602 25.1334C122.912 25.1334 123.842 24.2109 123.842 22.4512C123.842 21.5997 123.687 20.9752 123.363 20.5069ZM122.743 23.6575C122.56 24.1684 122.152 24.4522 121.616 24.4522C121.166 24.4522 120.743 24.2393 120.56 23.9271C120.363 23.6007 120.236 22.9479 120.236 22.2099C120.236 21.5855 120.321 21.1597 120.49 20.8333C120.673 20.4785 121.095 20.2657 121.56 20.2657C121.983 20.2657 122.447 20.4785 122.673 20.9469C122.842 21.3017 122.912 21.7842 122.912 22.5221C122.912 23.033 122.87 23.3311 122.757 23.6575H122.743Z" fill="white"/>
<path d="M128.181 19.7405H129.054L127.096 25.0482H126.293L124.42 19.7831L125.251 19.5986L126.462 23.2175C126.603 23.6432 126.716 24.1116 126.716 24.1116H126.744C126.744 24.1116 126.829 23.7 126.998 23.2317L128.195 19.7405H128.181Z" fill="white"/>
<path d="M133.913 22.5079V22.3943C133.913 21.1455 133.773 20.6488 133.322 20.1805C132.97 19.8115 132.477 19.6128 131.913 19.6128C131.279 19.6128 130.772 19.8399 130.35 20.3366C129.913 20.8617 129.716 21.4293 129.716 22.3234C129.716 24.069 130.589 25.1191 132.026 25.1191C132.702 25.1191 133.322 24.8921 133.787 24.4663L133.477 23.9412C133.11 24.2818 132.702 24.4379 132.195 24.4379C131.688 24.4379 131.195 24.2534 130.899 23.7993C130.716 23.5297 130.66 23.1465 130.66 22.6498V22.5221H133.913V22.5079ZM131.871 20.2514C132.265 20.2514 132.632 20.4359 132.815 20.7197C132.97 20.9752 133.04 21.3158 133.054 21.8834H130.674C130.716 20.7907 131.138 20.2514 131.871 20.2514Z" fill="white"/>
<path d="M137.647 19.5845C137.788 19.5845 137.928 19.6412 137.928 19.6412L137.59 20.5353C137.59 20.5353 137.449 20.4927 137.365 20.4927C137.055 20.4927 136.731 20.6346 136.492 20.8759C136.252 21.1172 136.182 21.2733 136.182 21.7132V25.0057H135.365V20.9611C135.365 20.1947 135.182 19.8399 135.182 19.8399L135.999 19.6129C135.999 19.6129 136.196 20.0244 136.168 20.4644C136.548 19.9251 137.097 19.5845 137.633 19.5845H137.647Z" fill="white"/>
<path d="M142.421 20.3933C142.506 20.5778 142.548 20.7907 142.548 21.0036V24.9914H141.717V21.4435C141.717 20.89 141.675 20.7481 141.534 20.5636C141.421 20.4217 141.196 20.3366 140.956 20.3366C140.534 20.3366 139.886 20.6772 139.506 21.0745V24.9914H138.717V20.9468C138.717 20.1946 138.52 19.8399 138.52 19.8399L139.308 19.6128C139.308 19.6128 139.491 20.0102 139.491 20.4359C140.041 19.8824 140.576 19.627 141.139 19.627C141.703 19.627 142.21 19.9392 142.421 20.3933Z" fill="white"/>
<path d="M150.676 21.032V24.9914H149.845V21.1171C149.845 20.6062 149.62 20.3508 149.169 20.3508C148.704 20.3508 148.338 20.663 147.789 21.1597V25.0056H146.957V21.2732C146.957 20.961 146.929 20.7482 146.817 20.592C146.69 20.4501 146.521 20.3792 146.281 20.3792C145.887 20.3792 145.493 20.5779 144.957 21.0746V24.9914H144.168V20.9184C144.168 20.1521 143.985 19.7973 143.985 19.7973L144.774 19.6128C144.774 19.6128 144.957 20.0244 144.957 20.3934C145.309 20.0102 145.943 19.5986 146.479 19.5986C147.014 19.5986 147.507 19.9108 147.69 20.4785C148.197 19.9392 148.831 19.5986 149.366 19.5986C150.141 19.5986 150.676 20.1947 150.676 21.0178V21.032Z" fill="white"/>
<path d="M156.169 22.5079V22.3943C156.169 21.1455 156.028 20.6488 155.578 20.1805C155.225 19.8115 154.732 19.6128 154.169 19.6128C153.535 19.6128 153.028 19.8399 152.606 20.3366C152.169 20.8617 151.972 21.4293 151.972 22.3234C151.972 24.069 152.845 25.1191 154.282 25.1191C154.958 25.1191 155.578 24.8921 156.042 24.4663L155.733 23.9412C155.366 24.2818 154.958 24.4379 154.451 24.4379C153.944 24.4379 153.451 24.2534 153.155 23.7993C152.972 23.5297 152.915 23.1465 152.915 22.6498V22.5221H156.169V22.5079ZM154.113 20.2514C154.507 20.2514 154.873 20.4359 155.056 20.7197C155.211 20.9752 155.282 21.3158 155.296 21.8834H152.915C152.958 20.7907 153.38 20.2514 154.113 20.2514Z" fill="white"/>
<path d="M161.338 20.3933C161.423 20.5778 161.465 20.7907 161.465 21.0036V24.9914H160.634V21.4435C160.634 20.89 160.592 20.7481 160.451 20.5636C160.338 20.4217 160.113 20.3366 159.873 20.3366C159.451 20.3366 158.803 20.6772 158.423 21.0745V24.9914H157.634V20.9468C157.634 20.1946 157.437 19.8399 157.437 19.8399L158.225 19.6128C158.225 19.6128 158.408 20.0102 158.408 20.4359C158.958 19.8824 159.493 19.627 160.056 19.627C160.62 19.627 161.127 19.9392 161.338 20.3933Z" fill="white"/>
<path d="M165.071 24.4236L165.184 24.9487C164.916 25.0907 164.635 25.1616 164.268 25.1616C164.001 25.1616 163.79 25.1048 163.592 25.0197C163.226 24.8352 163.085 24.5088 163.085 23.9695V20.3649H162.409V19.7404H163.085C163.085 19.2295 163.17 18.4064 163.17 18.4064L164.029 18.2219C164.029 18.2219 163.93 19.045 163.93 19.7404H165.24L164.987 20.3649H163.902V23.7566C163.902 24.3385 164.057 24.5372 164.578 24.5372C164.804 24.5372 164.945 24.5088 165.085 24.4378L165.071 24.4236Z" fill="white"/>
<path d="M86.7826 27.4039H86.9094H86.9235C86.9235 27.4039 86.9235 27.4039 86.9094 27.4039H86.8953C86.8953 27.4039 86.853 27.4039 86.853 27.3613C86.853 27.3613 86.853 27.3187 86.8671 27.2903L86.8953 27.2194H87.2334L87.2897 27.3613V27.3897H87.2756C87.2756 27.3897 87.2897 27.3897 87.3179 27.3897H87.5432H87.5996C87.5996 27.3897 87.5714 27.3897 87.5432 27.3897C87.5151 27.3897 87.4869 27.3755 87.4446 27.2619C87.3742 27.0775 87.177 26.6091 87.1629 26.5382C87.1629 26.5098 87.1488 26.4956 87.1348 26.4956C87.1348 26.4956 87.1207 26.5098 87.1066 26.5382L86.8108 27.2761C86.8108 27.2761 86.7685 27.3755 86.7122 27.3755C86.7122 27.3755 86.684 27.3755 86.6699 27.3755C86.6699 27.3755 86.6699 27.3755 86.6981 27.3755H86.839L86.7826 27.4039ZM87.0643 26.7369L87.2052 27.1342H86.9094L87.0502 26.7369H87.0643Z" fill="white"/>
<path d="M87.7685 26.5383C87.7685 26.5383 87.8249 26.5667 87.8249 26.6093C87.8249 26.6519 87.8249 26.6802 87.8249 26.8505V27.0208C87.8249 27.1911 87.8671 27.2763 87.9235 27.3331C88.008 27.404 88.1207 27.4182 88.177 27.4182C88.2474 27.4182 88.346 27.4182 88.4165 27.3331C88.5151 27.2479 88.5291 27.106 88.5291 26.9783V26.8505C88.5291 26.6802 88.5291 26.6377 88.5291 26.6093C88.5291 26.5667 88.5292 26.5525 88.5714 26.5383C88.5855 26.5383 88.5996 26.5383 88.5996 26.5383H88.6137C88.6137 26.5383 88.6137 26.5383 88.5855 26.5383C88.5432 26.5383 88.4728 26.5383 88.4587 26.5383C88.4587 26.5383 88.3883 26.5383 88.3319 26.5383C88.3179 26.5383 88.3038 26.5383 88.3038 26.5383C88.3038 26.5383 88.3038 26.5383 88.3319 26.5383C88.3319 26.5383 88.3601 26.5383 88.3742 26.5383C88.4165 26.5383 88.4165 26.5667 88.4165 26.6093C88.4165 26.6519 88.4165 26.6802 88.4165 26.8505V26.9925C88.4165 27.1202 88.4165 27.2195 88.346 27.2905C88.3038 27.3331 88.2334 27.3473 88.1911 27.3473C88.1488 27.3473 88.0925 27.3472 88.0502 27.3047C87.9939 27.2621 87.9516 27.177 87.9516 27.0208V26.8505C87.9516 26.6802 87.9516 26.6377 87.9516 26.6093C87.9516 26.5667 87.9516 26.5525 87.9939 26.5383C88.008 26.5383 88.0221 26.5383 88.0221 26.5383H88.0361C88.0361 26.5383 88.0361 26.5383 88.008 26.5383C87.9657 26.5383 87.8953 26.5383 87.8671 26.5383C87.839 26.5383 87.7544 26.5383 87.6981 26.5383C87.684 26.5383 87.6699 26.5383 87.6699 26.5383C87.6699 26.5383 87.6699 26.5383 87.6981 26.5383C87.7122 26.5383 87.7403 26.5383 87.7403 26.5383H87.7685Z" fill="white"/>
<path d="M88.9802 26.5382C88.9802 26.5382 89.0224 26.5666 89.0224 26.6092C89.0224 26.6517 89.0224 26.6801 89.0224 26.8504V27.0633C89.0224 27.1768 89.0224 27.262 89.0224 27.3187C89.0224 27.3471 89.0224 27.3755 88.9943 27.3755C88.9943 27.3755 88.9661 27.3755 88.952 27.3755C88.9379 27.3755 88.9379 27.3755 88.9379 27.3755C88.9379 27.3755 88.9379 27.3755 88.9661 27.3755H89.1069C89.1069 27.3755 89.276 27.3755 89.3605 27.3755C89.5718 27.3755 89.6985 27.2904 89.7549 27.2336C89.8253 27.1626 89.8817 27.0491 89.8817 26.9072C89.8817 26.7653 89.8253 26.6659 89.769 26.6092C89.6422 26.4814 89.445 26.4814 89.3041 26.4814C89.2337 26.4814 89.1633 26.4814 89.121 26.4814C89.0929 26.4814 89.0224 26.4814 88.952 26.4814C88.9379 26.4814 88.9238 26.4814 88.9238 26.4814C88.9238 26.4814 88.9238 26.4814 88.9379 26.4814C88.952 26.4814 88.9802 26.4814 88.9802 26.4814V26.5382ZM89.1774 26.8362C89.1774 26.7511 89.1774 26.6376 89.1774 26.6092C89.1774 26.6092 89.1774 26.595 89.1774 26.5808C89.1774 26.5808 89.2337 26.5808 89.2478 26.5808C89.3464 26.5808 89.4732 26.5808 89.5859 26.6943C89.6422 26.7369 89.6985 26.8362 89.6985 26.9923C89.6985 27.1059 89.6704 27.2194 89.5999 27.2904C89.5295 27.3471 89.445 27.3755 89.3323 27.3755C89.2337 27.3755 89.1915 27.3471 89.1774 27.3329C89.1774 27.3329 89.1774 27.2762 89.1774 27.2478C89.1774 27.2194 89.1774 27.1343 89.1774 27.0065V26.8646V26.8362Z" fill="white"/>
<path d="M90.1774 27.4039H90.3042H90.3183C90.3183 27.4039 90.3183 27.4039 90.3042 27.4039H90.2901C90.2901 27.4039 90.2478 27.4039 90.2478 27.3613C90.2478 27.3613 90.2478 27.3187 90.2619 27.2903L90.2901 27.2194H90.6281L90.6845 27.3613V27.3897H90.6704C90.6704 27.3897 90.6845 27.3897 90.7127 27.3897H90.938H90.9944C90.9944 27.3897 90.9944 27.3897 90.9803 27.3897C90.9803 27.3897 90.9521 27.3897 90.924 27.3897C90.8958 27.3897 90.8676 27.3755 90.8254 27.2619C90.7549 27.0775 90.5577 26.6091 90.5295 26.5382C90.5295 26.5098 90.5155 26.4956 90.5014 26.4956C90.5014 26.4956 90.4873 26.5098 90.4732 26.5382L90.1774 27.2761C90.1774 27.2761 90.1351 27.3755 90.0788 27.3755C90.0788 27.3755 90.0506 27.3755 90.0365 27.3755H90.0225C90.0225 27.3755 90.0225 27.3755 90.0506 27.3755H90.1915L90.1774 27.4039ZM90.4591 26.7369L90.6 27.1342H90.3042L90.445 26.7369H90.4591Z" fill="white"/>
<path d="M91.1071 27.404H91.3325H91.3607C91.3607 27.404 91.3607 27.404 91.3466 27.404C91.3466 27.404 91.3325 27.404 91.3184 27.404C91.3184 27.404 91.2902 27.404 91.2902 27.3898C91.2902 27.3898 91.2902 27.3614 91.3043 27.3472L91.4734 27.0634C91.5297 27.1485 91.6001 27.262 91.6565 27.3756C91.6565 27.3898 91.6565 27.404 91.6565 27.404H91.6424C91.6424 27.404 91.6424 27.404 91.6846 27.404H91.9241H91.9523C91.9523 27.404 91.9523 27.404 91.9382 27.404C91.9382 27.404 91.91 27.404 91.8959 27.404C91.8678 27.404 91.8537 27.3756 91.8255 27.3472C91.7973 27.3046 91.6142 26.9924 91.572 26.9356L91.7692 26.666C91.7692 26.666 91.8255 26.5808 91.8537 26.5667C91.8678 26.5667 91.8818 26.5667 91.8959 26.5667H91.91C91.91 26.5667 91.91 26.5667 91.8959 26.5667C91.8537 26.5667 91.8114 26.5667 91.7832 26.5667C91.7692 26.5667 91.7128 26.5667 91.6706 26.5667C91.6565 26.5667 91.6424 26.5667 91.6424 26.5667C91.6424 26.5667 91.6706 26.5667 91.6846 26.5667C91.6846 26.5667 91.6987 26.5667 91.6987 26.5808C91.6987 26.5808 91.6987 26.6092 91.6987 26.6234C91.6846 26.6518 91.572 26.8221 91.5438 26.8647C91.5015 26.7937 91.4452 26.6944 91.4029 26.6092V26.5808C91.4029 26.5808 91.4029 26.5808 91.417 26.5667H91.4452H91.4593C91.4593 26.5667 91.4593 26.5667 91.4311 26.5667C91.3888 26.5667 91.3184 26.5667 91.3043 26.5667C91.248 26.5667 91.1494 26.5667 91.1212 26.5667C91.1071 26.5667 91.093 26.5667 91.093 26.5667C91.093 26.5667 91.1212 26.5667 91.1353 26.5667C91.1775 26.5667 91.2057 26.6092 91.2339 26.6518L91.4311 26.9782L91.2057 27.3046C91.2057 27.3046 91.1494 27.3898 91.1071 27.3898C91.093 27.3898 91.0649 27.3898 91.0649 27.3898H91.0508C91.0508 27.3898 91.0508 27.3898 91.0649 27.3898H91.093L91.1071 27.404Z" fill="white"/>
<path d="M93.2196 27.4039H93.3463H93.3604C93.3604 27.4039 93.3604 27.4039 93.3463 27.4039H93.3322C93.3322 27.4039 93.29 27.4039 93.29 27.3613C93.29 27.3613 93.29 27.3187 93.3041 27.2903L93.3322 27.2194H93.6703L93.7266 27.3613V27.3897H93.7126C93.7126 27.3897 93.7266 27.3897 93.7407 27.3897H93.9661H94.0224C94.0224 27.3897 94.0224 27.3897 94.0083 27.3897C94.0083 27.3897 93.9802 27.3897 93.9661 27.3897C93.9379 27.3897 93.9098 27.3755 93.8675 27.2619C93.7971 27.0775 93.614 26.6091 93.5717 26.5382C93.5717 26.5098 93.5576 26.4956 93.5435 26.4956C93.5435 26.4956 93.5294 26.5098 93.5154 26.5382L93.2196 27.2761C93.2196 27.2761 93.1773 27.3755 93.121 27.3755H93.0928C93.0928 27.3755 93.0928 27.3755 93.121 27.3755H93.2618L93.2196 27.4039ZM93.5013 26.7369L93.6562 27.1342H93.3604L93.5013 26.7369Z" fill="white"/>
<path d="M94.0795 26.6518C94.0795 26.6518 94.0795 26.6234 94.0936 26.6092C94.1077 26.5808 94.1359 26.5808 94.2063 26.5666H94.3753V27.0491C94.3753 27.1627 94.3753 27.2478 94.3753 27.3046C94.3753 27.333 94.3753 27.3614 94.3472 27.3614C94.3472 27.3614 94.319 27.3614 94.3049 27.3614H94.2908C94.2908 27.3614 94.2908 27.3614 94.319 27.3614H94.657H94.6852C94.6852 27.3614 94.6852 27.3614 94.6711 27.3614C94.657 27.3614 94.6289 27.3614 94.6148 27.3614C94.5866 27.3614 94.5725 27.333 94.5725 27.3046C94.5725 27.2478 94.5725 27.1627 94.5725 27.0491V26.5666H94.7134C94.812 26.5666 94.8542 26.6092 94.8542 26.6376V26.666C94.8542 26.666 94.8542 26.666 94.8542 26.6518C94.8542 26.6234 94.8542 26.5382 94.8542 26.5099C94.8542 26.4957 94.8542 26.4815 94.8542 26.4815C94.8542 26.4815 94.812 26.4815 94.7416 26.4815H94.2767C94.2767 26.4815 94.1922 26.4815 94.164 26.4815C94.1359 26.4815 94.1218 26.4673 94.1077 26.4673C94.1077 26.4673 94.1077 26.4673 94.0936 26.4957C94.0936 26.4957 94.0654 26.6092 94.0654 26.6234C94.0654 26.6376 94.0654 26.6376 94.0654 26.6376L94.0795 26.6518Z" fill="white"/>
<path d="M96.2205 26.5381C96.2205 26.5381 96.2628 26.5665 96.2628 26.6091C96.2628 26.6517 96.2628 26.6801 96.2628 26.8504V27.0632C96.2628 27.1768 96.2628 27.2619 96.2628 27.3187C96.2628 27.3471 96.2628 27.3755 96.2346 27.3755C96.2346 27.3755 96.2064 27.3755 96.1923 27.3755C96.1783 27.3755 96.1783 27.3755 96.1783 27.3755C96.1783 27.3755 96.1783 27.3755 96.2064 27.3755H96.5304H96.5586C96.5586 27.3755 96.5586 27.3755 96.5445 27.3755C96.5304 27.3755 96.5022 27.3755 96.4881 27.3755C96.46 27.3755 96.4459 27.3471 96.4459 27.3187C96.4459 27.2761 96.4459 27.191 96.4459 27.0632V26.9639C96.46 26.9639 96.5867 26.9639 96.6149 26.9639C96.6572 26.9639 96.6713 26.9923 96.6713 27.0065C96.6713 27.0207 96.6713 27.0349 96.6713 27.049V27.0632C96.6713 27.0632 96.6713 27.049 96.6713 27.0349C96.6713 27.0349 96.6713 26.9781 96.6713 26.9497C96.6713 26.9071 96.6713 26.8787 96.6713 26.8787C96.6713 26.8787 96.6713 26.8787 96.6572 26.8787C96.6572 26.8787 96.629 26.8929 96.6008 26.8929C96.5868 26.8929 96.5727 26.8929 96.5445 26.8929H96.3895V26.5949V26.5807H96.5727C96.5727 26.5807 96.6431 26.6091 96.6572 26.6233C96.6572 26.6375 96.6572 26.6517 96.6572 26.6659V26.6801C96.6572 26.6801 96.6572 26.6801 96.6572 26.6659C96.6572 26.6659 96.6572 26.5807 96.6572 26.5665C96.6572 26.5381 96.6572 26.524 96.6572 26.5098C96.6572 26.5098 96.6572 26.5098 96.6431 26.5098C96.6431 26.5098 96.6149 26.5098 96.6008 26.5098C96.5727 26.5098 96.3332 26.5098 96.2909 26.5098C96.2628 26.5098 96.1783 26.5098 96.1219 26.5098C96.1078 26.5098 96.0938 26.5098 96.0938 26.5098C96.0938 26.5098 96.0938 26.5098 96.1078 26.5098C96.1219 26.5098 96.1501 26.5098 96.1501 26.5098L96.2205 26.5381Z" fill="white"/>
<path d="M97.1214 26.5383C97.1214 26.5383 97.1636 26.5667 97.1636 26.6093C97.1636 26.6519 97.1636 26.6802 97.1636 26.8505V27.0634C97.1636 27.177 97.1636 27.2763 97.1636 27.3189C97.1636 27.3472 97.1636 27.3756 97.1354 27.3756C97.1354 27.3756 97.1073 27.3756 97.0932 27.3756C97.0791 27.3756 97.0791 27.3756 97.0791 27.3756C97.0791 27.3756 97.0791 27.3756 97.1073 27.3756H97.4312H97.4594C97.4594 27.3756 97.4594 27.3756 97.4453 27.3756C97.4312 27.3756 97.4031 27.3756 97.389 27.3756C97.3608 27.3756 97.3467 27.3472 97.3467 27.3189C97.3467 27.2621 97.3467 27.177 97.3467 27.0634V26.8505C97.3467 26.6802 97.3467 26.6377 97.3467 26.6093C97.3467 26.5667 97.3467 26.5525 97.389 26.5383H97.4172H97.4312C97.4312 26.5383 97.4313 26.5383 97.4031 26.5383C97.3608 26.5383 97.2904 26.5383 97.2622 26.5383C97.2341 26.5383 97.1636 26.5383 97.1073 26.5383C97.0932 26.5383 97.0791 26.5383 97.0791 26.5383C97.0791 26.5383 97.0791 26.5383 97.0932 26.5383C97.1073 26.5383 97.1214 26.5383 97.1354 26.5383H97.1214Z" fill="white"/>
<path d="M97.8118 26.5382C97.8118 26.5382 97.854 26.5666 97.8681 26.6092C97.8681 26.6517 97.8681 26.6801 97.8681 26.8504V27.0633C97.8681 27.1768 97.8681 27.262 97.8681 27.3187C97.8681 27.3471 97.8681 27.3755 97.84 27.3755C97.84 27.3755 97.8118 27.3755 97.7977 27.3755H97.7836C97.7836 27.3755 97.7836 27.3755 97.8118 27.3755H97.9526C97.9526 27.3755 98.1217 27.3755 98.2062 27.3755C98.4175 27.3755 98.5442 27.2904 98.6006 27.2336C98.671 27.1626 98.7274 27.0491 98.7274 26.9072C98.7274 26.7653 98.671 26.6659 98.6147 26.6092C98.4879 26.4814 98.2907 26.4814 98.1498 26.4814C98.0794 26.4814 98.009 26.4814 97.9667 26.4814C97.9386 26.4814 97.8681 26.4814 97.7977 26.4814C97.7836 26.4814 97.7695 26.4814 97.7695 26.4814C97.7695 26.4814 97.7695 26.4814 97.7977 26.4814C97.8259 26.4814 97.8259 26.4814 97.84 26.4814L97.8118 26.5382ZM98.009 26.8362V26.6092C98.009 26.6092 98.009 26.595 98.0231 26.5808C98.0231 26.5808 98.0794 26.5808 98.0935 26.5808C98.1921 26.5808 98.3189 26.5808 98.4316 26.6943C98.4738 26.7369 98.5442 26.8362 98.5442 26.9923C98.5442 27.1059 98.5161 27.2194 98.4456 27.2904C98.3752 27.3471 98.3048 27.3755 98.178 27.3755C98.0794 27.3755 98.0372 27.3471 98.0231 27.3329C98.0231 27.3329 98.0231 27.2762 98.0231 27.2478C98.0231 27.2194 98.0231 27.1343 98.0231 27.0065V26.8646L98.009 26.8362Z" fill="white"/>
<path d="M99.0512 26.5382C99.0512 26.5382 99.0934 26.5666 99.1075 26.6092C99.1075 26.6517 99.1075 26.6801 99.1075 26.8504V27.0633C99.1075 27.1768 99.1075 27.262 99.1075 27.3187C99.1075 27.3471 99.1075 27.3755 99.0793 27.3755C99.0793 27.3755 99.0512 27.3755 99.0371 27.3755H99.023C99.023 27.3755 99.023 27.3755 99.0512 27.3755H99.192C99.192 27.3755 99.3329 27.3755 99.516 27.3755C99.5583 27.3755 99.5723 27.3755 99.5723 27.3471C99.5723 27.3187 99.5864 27.2478 99.5864 27.2194V27.191C99.5864 27.191 99.5864 27.191 99.5864 27.2052C99.5864 27.2478 99.5583 27.2762 99.5301 27.2904C99.5019 27.2904 99.4456 27.2904 99.4174 27.2904C99.3047 27.2904 99.2765 27.2762 99.2765 27.191V26.9214C99.3047 26.9214 99.4174 26.9214 99.4456 26.9214C99.4878 26.9214 99.5019 26.9356 99.516 26.964C99.516 26.9782 99.516 26.9923 99.516 27.0065C99.516 27.0065 99.516 27.0065 99.516 26.9782C99.516 26.9498 99.516 26.9214 99.516 26.9072C99.516 26.8504 99.516 26.822 99.516 26.822C99.516 26.822 99.516 26.822 99.5019 26.8362C99.5019 26.8362 99.4737 26.8504 99.4456 26.8504C99.4174 26.8504 99.2765 26.8504 99.2625 26.8504C99.2625 26.8504 99.2625 26.8504 99.2625 26.8362V26.5382C99.2906 26.5382 99.4033 26.5382 99.4315 26.5382C99.4878 26.5382 99.5019 26.5524 99.5019 26.5808C99.5019 26.5808 99.5019 26.6092 99.5019 26.6234V26.6376C99.5019 26.6234 99.5019 26.5666 99.5019 26.5524C99.5019 26.4956 99.5019 26.4814 99.5019 26.4814H99.4878C99.4878 26.4814 99.4596 26.4814 99.4315 26.4814C99.4033 26.4814 99.1779 26.4814 99.1357 26.4814C99.1075 26.4814 99.0371 26.4814 98.9667 26.4814C98.9526 26.4814 98.9385 26.4814 98.9385 26.4814C98.9385 26.4814 98.9385 26.4814 98.9526 26.4814C98.9667 26.4814 98.9948 26.4814 98.9948 26.4814L99.0512 26.5382Z" fill="white"/>
<path d="M99.9534 26.5382C99.9534 26.5382 99.9956 26.5666 100.01 26.6091C100.01 26.6517 100.01 26.6801 100.01 26.8504V27.0633C100.01 27.1768 100.01 27.262 100.01 27.3187C100.01 27.3471 100.01 27.3755 99.9816 27.3755C99.9816 27.3755 99.9534 27.3755 99.9393 27.3755H99.9252C99.9252 27.3755 99.9252 27.3755 99.9534 27.3755H100.094C100.193 27.3755 100.263 27.3755 100.432 27.3755C100.489 27.3755 100.503 27.3755 100.503 27.3471C100.503 27.3187 100.517 27.2194 100.517 27.2052V27.191C100.517 27.191 100.517 27.191 100.517 27.2052C100.517 27.2336 100.503 27.262 100.489 27.2761C100.46 27.3045 100.418 27.3045 100.348 27.3045C100.263 27.3045 100.235 27.3045 100.207 27.2761C100.179 27.2478 100.179 27.1768 100.179 27.0207V26.8078C100.179 26.6375 100.179 26.5949 100.179 26.5666C100.179 26.524 100.179 26.5098 100.221 26.4956C100.235 26.4956 100.249 26.4956 100.263 26.4956H100.277C100.277 26.4956 100.277 26.4956 100.249 26.4956C100.207 26.4956 100.122 26.4956 100.094 26.4956C100.066 26.4956 99.9956 26.4956 99.9393 26.4956C99.9252 26.4956 99.9111 26.4956 99.9111 26.4956C99.9111 26.4956 99.9111 26.4956 99.9252 26.4956C99.9393 26.4956 99.9534 26.4956 99.9675 26.4956L99.9534 26.5382Z" fill="white"/>
<path d="M100.84 26.5383C100.84 26.5383 100.882 26.5667 100.882 26.6093C100.882 26.6519 100.882 26.6802 100.882 26.8505V27.0634C100.882 27.177 100.882 27.2763 100.882 27.3189C100.882 27.3472 100.882 27.3756 100.854 27.3756C100.854 27.3756 100.826 27.3756 100.812 27.3756H100.798C100.798 27.3756 100.798 27.3756 100.826 27.3756H101.15H101.178C101.178 27.3756 101.178 27.3756 101.15 27.3756C101.136 27.3756 101.108 27.3756 101.094 27.3756C101.051 27.3756 101.051 27.3472 101.051 27.3189C101.051 27.2621 101.051 27.177 101.051 27.0634V26.8505C101.051 26.6802 101.051 26.6377 101.051 26.6093C101.051 26.5667 101.051 26.5525 101.094 26.5383C101.108 26.5383 101.122 26.5383 101.136 26.5383C101.15 26.5383 101.15 26.5383 101.15 26.5383C101.15 26.5383 101.15 26.5383 101.122 26.5383C101.08 26.5383 101.009 26.5383 100.981 26.5383C100.953 26.5383 100.868 26.5383 100.826 26.5383C100.812 26.5383 100.798 26.5383 100.798 26.5383C100.798 26.5383 100.798 26.5383 100.812 26.5383C100.826 26.5383 100.84 26.5383 100.854 26.5383H100.84Z" fill="white"/>
<path d="M101.685 27.4181C101.685 27.4181 101.812 27.4181 101.869 27.3755C101.953 27.3187 101.981 27.2336 101.981 27.1768C101.981 27.0633 101.925 26.9781 101.784 26.8788L101.756 26.8504C101.657 26.7794 101.629 26.7369 101.629 26.6801C101.629 26.6091 101.685 26.5524 101.77 26.5524C101.84 26.5524 101.883 26.5949 101.897 26.6091C101.925 26.6375 101.925 26.6801 101.925 26.6801V26.6943C101.925 26.6943 101.925 26.6943 101.925 26.6659C101.925 26.5666 101.925 26.5382 101.925 26.524C101.925 26.524 101.925 26.524 101.911 26.5098C101.883 26.5098 101.826 26.4956 101.756 26.4956C101.587 26.4956 101.488 26.5949 101.488 26.7227C101.488 26.822 101.531 26.9072 101.657 27.0065L101.714 27.0491C101.812 27.12 101.826 27.1768 101.826 27.2336C101.826 27.2903 101.77 27.3613 101.671 27.3613C101.601 27.3613 101.531 27.3329 101.502 27.2478C101.502 27.2194 101.502 27.2052 101.502 27.191V27.1626C101.502 27.1626 101.502 27.1626 101.502 27.191C101.502 27.2052 101.502 27.2761 101.502 27.3471C101.502 27.3755 101.502 27.3755 101.531 27.3897C101.587 27.4181 101.629 27.4181 101.7 27.4181H101.685Z" fill="white"/>
<path d="M91.995 14.8303C92.1781 14.9154 92.3894 14.8303 92.6148 14.8445C92.5725 14.7451 92.5162 14.6742 92.5443 14.5322C92.6007 14.2484 92.3753 14.1917 92.2767 14.1917C92.0232 14.2058 91.8682 14.2626 91.6006 14.1917C91.7837 14.3761 91.7414 14.7025 91.9809 14.8303H91.995Z" fill="white"/>
<path d="M96.4737 20.4785C95.4736 20.4785 95.0933 20.7623 94.5439 21.1739V24.438C94.5439 24.438 96.9103 23.6149 98.1922 21.3158C97.8964 20.8759 97.4597 20.4785 96.4737 20.4785ZM97.2907 21.7983L96.9949 21.4577L96.4878 21.9119L96.6991 22.1531C96.6991 22.1531 96.9104 22.0538 97.1076 22.2667C96.9667 22.3944 96.7131 22.6073 96.5723 22.735C96.3892 22.5079 96.5159 22.3234 96.5159 22.3234L96.3047 22.0822L95.6849 22.6356L95.4877 22.3944L96.1215 21.8551L95.8962 21.5855C95.8962 21.5855 95.8117 21.6564 95.6849 21.7699C95.5018 21.5571 95.3609 21.2874 95.4877 20.9326C95.8539 20.8475 96.1075 21.032 96.2906 21.2449C96.1638 21.3584 96.0793 21.4294 96.0793 21.4294L96.3047 21.699L96.8258 21.2591L96.53 20.9185C96.7977 20.8901 97.0371 20.9752 97.1639 21.1313C97.2907 21.2874 97.3611 21.5287 97.2907 21.7983Z" fill="white"/>
<path d="M90.3751 17.3562C90.4456 17.5975 90.5019 17.8529 90.516 18.1367C90.516 18.4773 90.2765 18.8747 90.023 19.3146C89.9948 19.3714 89.9666 19.414 89.9385 19.4707C90.685 23.1889 94.2628 24.4236 94.2628 24.4236V17.3704C94.2628 17.3704 91.5724 17.3704 90.3892 17.3704L90.3751 17.3562ZM93.0514 21.7698C92.8683 21.8124 92.5866 21.8266 92.4035 21.8266C92.2204 21.8266 91.9387 21.8124 91.7555 21.7698C91.7696 21.6988 91.7978 21.5853 91.826 21.486C91.6992 21.486 91.5583 21.4292 91.4457 21.3866C91.502 21.1879 91.5865 21.0034 91.6569 20.7338C91.8964 20.7906 92.1359 20.8048 92.4035 20.8048C92.6711 20.8048 92.9106 20.7906 93.15 20.7338C93.2205 20.9892 93.305 21.1879 93.3613 21.3866C93.2486 21.4292 93.1219 21.4718 92.981 21.486C93.0092 21.5995 93.0373 21.6988 93.0514 21.7698ZM91.5865 20.4642C91.5865 20.3932 91.5865 20.2939 91.5865 20.2229C91.7133 20.1803 92.2485 20.1519 92.4035 20.1519C92.5584 20.1519 93.0796 20.1803 93.2205 20.2229C93.2345 20.2939 93.2345 20.3932 93.2205 20.4642C93.0233 20.5209 92.6711 20.5493 92.4035 20.5493C92.1359 20.5493 91.7837 20.5209 91.5865 20.4642ZM93.5726 18.8321C93.3754 19.3146 93.1782 19.7972 93.1219 19.9533C93.0233 19.9391 92.9106 19.9249 92.7838 19.9249C92.9247 19.5133 93.0796 18.9173 93.2205 18.5341C93.3191 18.2787 93.7557 18.3922 93.5726 18.8321ZM92.4035 18.1367C92.4317 17.9097 93.0514 17.8671 92.9388 18.3638C92.8261 18.8463 92.6711 19.4282 92.5584 19.9107C92.5021 19.9107 92.4598 19.9107 92.4035 19.9107C92.3471 19.9107 92.2908 19.9107 92.2485 19.9107C92.1359 19.414 91.995 18.8463 91.8682 18.3638C91.7555 17.8813 92.3753 17.9239 92.4035 18.1367ZM91.5865 18.5341C91.7274 18.9031 91.8823 19.4991 92.0232 19.9249C91.9105 19.9249 91.7978 19.9249 91.6851 19.9533C91.6288 19.8113 91.4316 19.3146 91.2344 18.8321C91.0512 18.3922 91.4879 18.2787 91.5865 18.5341Z" fill="white"/>
<path d="M98.164 18.0518V17.8815H98.333C98.5725 17.8815 98.6852 17.6544 98.7415 17.3848C97.8259 17.3848 94.5439 17.3848 94.5439 17.3848V20.7907C94.8116 20.5921 95.0792 20.4218 95.4173 20.3082V19.5561H95.7553C95.7694 18.733 95.9666 18.1369 96.3469 17.7396L96.4596 17.626L96.5723 17.7396C96.9526 18.1369 97.1498 18.733 97.1639 19.5561H97.516V20.3508C97.8964 20.5069 98.1499 20.7482 98.333 21.0036C98.6429 20.365 98.8683 19.627 98.9528 18.7897C98.9387 18.7897 98.9246 18.7897 98.8964 18.7897C98.5443 18.7897 98.164 18.5343 98.1358 18.0518H98.164Z" fill="white"/>
<path d="M104.629 25.8428C104.418 25.9138 104.165 25.9422 103.784 25.9422H103.305C101.671 25.9138 99.9811 25.4171 98.9528 24.3527C100.375 22.9052 98.6993 21.7131 97.7978 22.9477C97.5161 23.3309 97.2907 23.6006 97.0935 23.9695C96.9386 24.2676 97.0513 24.5656 97.4034 25.0339C97.6006 25.2894 98.0795 25.6867 98.4739 25.9422H90.2901C90.6845 25.6867 91.1634 25.2894 91.3606 25.0339C91.7127 24.5656 91.8395 24.2676 91.6705 23.9695C91.4733 23.6006 91.2479 23.3309 90.9662 22.9477C90.0647 21.7131 88.3885 22.9052 89.8112 24.3527C88.7829 25.4171 87.0926 25.8996 85.4587 25.9422H85.0079C84.6276 25.9422 84.3741 25.8996 84.1628 25.8428C83.8247 25.7577 83.7543 25.9138 83.9374 26.4956C84.0642 26.893 84.1628 27.5316 84.205 27.9716H104.587C104.629 27.5316 104.728 26.893 104.855 26.4956C105.038 25.9138 104.967 25.7577 104.615 25.8428H104.629ZM98.2626 22.9903C98.5303 22.6355 98.9247 22.7349 99.0796 23.0329C99.2486 23.3593 98.9951 23.7425 98.6711 24.0547C98.2063 23.5438 98.1499 23.1464 98.2626 22.9903ZM97.5724 24.6791C97.4034 24.4379 97.347 24.3101 97.4316 24.0831C97.5161 23.8702 97.6851 23.6715 97.8682 23.4019C98.1499 24.523 99.8261 25.5874 101.066 25.9422H99.0937C98.5866 25.6583 97.9387 25.2042 97.5583 24.6791H97.5724ZM89.7126 23.0329C89.8675 22.7349 90.2619 22.6355 90.5295 22.9903C90.6422 23.1464 90.6 23.5438 90.1351 24.0547C89.7971 23.7425 89.5435 23.3451 89.7267 23.0329H89.7126ZM90.9099 23.4019C91.093 23.6715 91.262 23.8702 91.3465 24.0831C91.431 24.3101 91.3747 24.4521 91.2057 24.6791C90.8253 25.2042 90.1915 25.6583 89.6703 25.9422H87.6983C88.9378 25.5874 90.6141 24.523 90.8958 23.4019H90.9099ZM104.249 27.6452H84.5853C84.5008 27.0207 84.3741 26.6092 84.2755 26.2686H104.573C104.46 26.6092 104.348 27.0207 104.263 27.6452H104.249Z" fill="white"/>
<path d="M95.6987 10.289C95.6987 10.289 95.586 10.3174 95.5438 10.3599C95.4733 10.3599 95.4029 10.3316 95.3325 10.3316V9.9342C95.4029 9.90582 95.4592 9.83486 95.4592 9.74971C95.4592 9.63617 95.3747 9.55103 95.262 9.55103C95.1494 9.55103 95.0648 9.63617 95.0648 9.74971C95.0648 9.82067 95.1071 9.89162 95.1634 9.92001V10.3032C95.1634 10.3032 95.0226 10.3032 94.9522 10.289C94.924 10.218 94.8536 10.1755 94.7831 10.1755C94.6705 10.1755 94.5859 10.2606 94.5859 10.3741C94.5859 10.4877 94.6705 10.5728 94.7831 10.5728C94.8536 10.5728 94.9099 10.5444 94.9381 10.4877C95.0085 10.4877 95.093 10.5019 95.1634 10.5161V11.0837C95.1634 11.0837 95.0508 11.1831 95.0508 11.254C95.0508 11.3675 95.1353 11.4527 95.248 11.4527C95.3607 11.4527 95.4452 11.3675 95.4452 11.254C95.4452 11.1689 95.4029 11.1121 95.3325 11.0837V10.5302C95.4029 10.5302 95.4592 10.5444 95.5156 10.5586C95.5438 10.6296 95.6142 10.6864 95.6987 10.6864C95.8114 10.6864 95.8959 10.6012 95.8959 10.4877C95.8959 10.3741 95.8114 10.289 95.6987 10.289Z" fill="white"/>
<path d="M94.0234 10.1755C93.9388 10.1755 93.8684 10.218 93.8402 10.289C93.7698 10.289 93.6994 10.289 93.643 10.3032V9.92001C93.643 9.92001 93.7416 9.82067 93.7416 9.74971C93.7416 9.63617 93.6571 9.55103 93.5444 9.55103C93.4318 9.55103 93.3472 9.63617 93.3472 9.74971C93.3472 9.83486 93.3895 9.90582 93.4599 9.9342V10.3316C93.4599 10.3316 93.3191 10.3458 93.2486 10.3599C93.2205 10.3174 93.1641 10.289 93.0937 10.289C92.981 10.289 92.8965 10.3741 92.8965 10.4877C92.8965 10.6012 92.981 10.6864 93.0937 10.6864C93.1782 10.6864 93.2486 10.6296 93.2768 10.5586C93.3331 10.5586 93.3895 10.5444 93.4599 10.5302V11.0837C93.4599 11.0837 93.3472 11.1831 93.3472 11.254C93.3472 11.3675 93.4318 11.4527 93.5444 11.4527C93.6571 11.4527 93.7416 11.3675 93.7416 11.254C93.7416 11.1831 93.6994 11.1121 93.643 11.0837V10.5161C93.643 10.5161 93.7839 10.5019 93.8543 10.4877C93.8825 10.5444 93.9529 10.5728 94.0234 10.5728C94.136 10.5728 94.2206 10.4877 94.2206 10.3741C94.2206 10.2606 94.136 10.1755 94.0234 10.1755Z" fill="white"/>
<path d="M98.8121 16.8311C98.8121 16.448 98.7557 16.1499 98.6289 16.0222C98.5867 15.9796 98.5444 15.9654 98.4599 15.9654L98.1219 16.008L98.305 15.7242C98.4881 15.4404 98.7416 15.2701 99.0093 15.2559V12.7156H89.8535V15.5539C89.8535 15.5539 89.9239 15.5965 89.9521 15.6107L89.9803 15.639C90.2338 15.8519 90.3324 15.9938 90.2479 16.7034C90.2479 16.7886 90.2902 16.9589 90.3324 17.1292H98.8262C98.8262 17.0298 98.8261 16.9447 98.8402 16.8595L98.8121 16.8311ZM92.2903 15.6958C92.3326 15.8945 92.3749 16.008 92.4735 16.1783C92.1354 16.377 91.2762 16.8879 90.6282 16.306V14.5889C91.1212 14.305 91.3889 14.0922 91.6424 13.6806C91.4452 13.5813 91.2198 13.411 91.0367 13.1697C91.9805 13.4393 92.4594 13.5813 93.5722 13.1697C93.389 13.4535 93.1214 13.638 92.896 13.7799C93.1496 14.1915 93.4031 14.674 93.4876 15.0572C93.1496 15.0288 92.7834 15.114 92.5016 15.3552C92.0791 15.3694 91.5579 15.5113 91.2621 14.5605C91.1071 14.6314 90.9663 14.7308 90.9663 14.7308C91.1353 15.3552 91.4452 15.781 92.2763 15.6816L92.2903 15.6958ZM93.7553 15.9796C93.6708 16.1074 93.1355 16.2777 92.9946 16.1925C92.7693 16.0506 92.6566 15.7668 92.7129 15.639C92.7834 15.4687 93.3609 15.3126 93.5581 15.3694C93.7412 15.4262 93.8257 15.8803 93.7553 15.9796ZM97.6007 13.9502C97.4317 13.9077 96.7133 13.8651 96.4738 14.4044C96.333 14.4044 96.1921 14.3476 96.1076 14.2625C96.009 14.3902 95.8681 14.4611 95.6709 14.5179C95.84 14.8727 96.2062 14.8159 96.4175 14.6456C96.4175 14.6882 96.4175 14.745 96.4175 14.8017C96.4175 15.6816 97.3471 15.9087 97.9247 15.5681C97.8261 15.8519 97.8683 16.2067 97.9247 16.4622H95.6709C95.7132 16.2209 96.009 15.9371 96.2625 15.7668L96.0653 15.4546C95.8259 15.5681 95.5864 15.6532 95.3329 15.7384C94.7131 15.8945 94.7413 15.4546 95.3892 15.2701V15.0998H94.9807C95.0793 14.6456 95.9386 14.0922 96.3189 13.9502C96.3048 13.4677 96.9246 13.3116 97.4317 13.2974C98.0514 13.2832 98.2064 13.9644 98.2064 14.1631C98.2064 14.4469 98.1359 15.0572 97.7838 15.2559C97.2767 15.5397 96.8541 15.1565 96.8541 14.8017C96.8541 14.4186 97.1218 14.2057 97.5725 14.2483C98.0233 14.305 97.9951 14.0496 97.6429 13.9502H97.6007Z" fill="white"/>
<path d="M109.883 10.6153C109.785 10.6437 109.559 10.7146 109.405 10.7288C109.7 10.445 109.869 10.0902 109.869 9.80635C109.729 9.84893 109.475 9.94827 109.25 9.99085C109.7 9.60767 109.954 9.15354 109.841 8.5575C109.7 8.62845 109.503 8.74199 109.306 8.82714C109.7 8.2169 109.7 7.67762 109.531 7.35121C109.348 7.52151 109.137 7.706 108.912 7.84792C109.052 7.13834 109.052 6.68421 108.757 6.37199C108.461 6.93965 108.193 7.3654 107.771 7.8763C107.799 7.40798 107.757 6.82612 107.447 6.51391C107.447 6.51391 107.362 7.16672 107.137 7.37959C107.08 6.74097 106.883 6.38618 106.601 6.04558C106.601 6.04558 106.587 6.71259 106.404 7.12415C106.249 6.57067 105.968 6.13073 105.601 5.71918C105.63 6.95385 105.292 9.26707 104.306 10.8281C104.193 11.7506 104.094 13.1414 102.601 13.9645C102.39 13.8084 102.01 13.6097 101.474 13.6523C101.333 12.9569 102.235 12.3183 103.024 11.8216C103.813 11.3107 104.151 10.8707 104.136 10.1895C104.122 9.43737 103.615 9.13935 103.094 9.11097C102.362 9.08258 101.756 9.74959 101.629 10.0334C101.418 10.1328 100.784 10.3314 100.531 10.4024C100.249 10.4734 99.9248 10.6011 99.7136 10.7714C99.8403 10.8423 100.178 10.8707 100.319 10.8565C100.573 10.814 101.362 10.672 102.122 10.5727C102.404 10.7288 102.841 10.9701 102.376 11.3107C101.728 11.7222 101.46 11.8358 100.545 12.3183C99.1079 13.0846 99.5727 14.9863 99.9248 15.1282C99.9248 15.7668 100.502 16.9447 100.883 17.3421C101.052 18.151 100.826 19.3573 100.587 19.8682C100.39 19.3715 100.038 18.2362 99.8122 17.5692C100.052 16.3061 99.6713 15.7526 99.4037 15.5398C99.3896 15.5398 99.3755 15.5256 99.3473 15.5114V12.3608H96.9105C96.8823 12.1054 96.7837 11.9209 96.6147 11.8641C96.5302 11.2965 96.3611 10.005 96.2625 9.0542C97.319 10.005 96.7415 11.5803 98.0092 12.1622C98.4881 11.6087 98.5022 11.41 98.4177 10.8849C98.8966 10.7572 99.2487 10.3598 99.3755 10.0476C98.9248 10.2605 98.2064 9.87731 98.0092 9.57929C98.798 9.55091 99.5163 8.95486 100.263 8.17432C100.925 7.47893 101.812 7.57828 101.742 8.13175C102.207 8.06079 102.39 7.42217 102.235 7.0248C102.911 6.81193 103.432 6.31523 103.517 5.5205C102.615 5.97463 101.474 5.22247 100.615 6.14493C100.615 4.92445 100.573 3.91685 100.559 3.60463C100.601 3.60463 100.657 3.63301 100.7 3.64721C101.573 3.95942 101.77 5.0096 103.573 3.81751C102.615 3.93104 102.559 3.10793 102.122 3.09373C102.784 2.71056 102.827 1.84487 102.827 1.84487C102.263 2.29901 100.967 2.32739 100.714 2.4693C100.376 2.66799 99.953 2.92344 99.6713 3.07954C98.9248 3.4911 99.4459 5.71918 99.3755 6.54229C98.967 5.32181 98.15 5.5063 97.7275 4.81092C97.4035 5.39277 97.7415 6.37199 97.8824 6.64163C97.4176 7.0248 97.5443 7.72019 97.657 7.91887C98.0514 7.63504 98.6712 7.706 98.8543 8.18851C98.3472 8.50073 97.5162 8.5575 96.9246 8.01822C96.9246 7.84792 96.8682 7.66343 96.671 7.52151C96.7133 7.28025 96.671 7.05319 96.5583 6.8545C97.1922 5.96043 97.2345 4.22906 97.7556 3.73236C97.7979 4.34259 98.1219 4.8393 98.4317 4.91026C98.1782 4.4987 98.1782 3.6614 98.1923 3.27823C98.1923 3.10793 97.8824 2.96601 97.7979 2.96601C97.657 2.96601 97.488 3.24984 97.319 3.42014C97.164 2.58284 97.2485 2.21386 97.319 1.84487C97.6711 2.4835 98.15 2.62541 98.4036 2.59703C97.5584 1.91583 97.6993 1.2914 97.4457 1.26302C97.3049 1.24883 97.1922 1.26302 97.1218 1.26302C96.826 1.26302 96.7837 1.84487 96.7415 2.11452C96.5443 1.75973 96.3611 1.44751 96.0372 1.03595C95.7273 0.227034 95.3329 0.425716 94.9526 0.0567349C95.2484 0.525057 95.0089 0.808889 95.7132 1.1353C95.8963 1.30559 96.1076 1.58943 96.2485 1.8023C96.1358 1.95841 96.0513 2.04356 95.9386 2.15709C95.8541 2.28481 95.8118 2.79571 95.5301 3.16469C95.9386 2.99439 96.0935 2.73894 96.2344 2.49769C97.5021 3.46272 96.4738 5.93205 96.178 6.47133C95.8963 6.28684 95.5442 6.17331 95.2202 6.11654L95.192 6.00301L94.8962 5.02379H95.0371C95.192 5.02379 95.2343 4.91026 95.2061 4.82511L96.0794 5.09475L96.4738 5.20828L96.2344 4.88187L95.8259 4.31421L96.2344 3.74655L96.4738 3.42014L96.0794 3.53367L95.2906 3.77493C95.2343 3.59044 95.0934 3.50529 94.9244 3.4911L95.192 2.58284L95.3047 2.19966L94.9807 2.44092L94.4173 2.85248L93.8539 2.44092L93.5299 2.19966L93.6426 2.58284L93.9102 3.4911C93.7553 3.51948 93.6003 3.60463 93.544 3.77493L92.7552 3.53367L92.3749 3.42014L92.6143 3.74655L93.0228 4.31421L92.6143 4.88187L92.3749 5.20828L92.7552 5.09475L93.6426 4.82511C93.6144 4.91026 93.6426 5.02379 93.8116 5.02379H93.9525L93.6567 6.00301L93.6285 6.11654C93.2904 6.17331 92.9242 6.28684 92.6425 6.48552C91.7833 4.81092 92.0227 3.12212 92.7411 2.55445C92.7411 2.90924 93.0369 3.39176 93.1778 3.4911C93.0792 3.12212 93.2482 2.4693 93.0651 2.3132C92.9383 2.19966 92.727 2.1429 92.5157 2.1429C92.6566 1.90164 92.8679 1.60362 93.1918 1.14949C93.6989 0.90823 93.8398 0.312183 93.9666 0.0141602C93.4172 0.212842 93.0228 0.496674 92.9242 0.964997C92.727 1.22045 92.5157 1.53266 92.2763 1.88745C92.2763 1.44751 92.0509 1.30559 91.741 1.27721C90.8113 1.47589 90.8818 2.1429 90.093 2.61122C90.6282 2.79571 91.4875 1.60362 91.7692 1.73134C91.8114 2.4693 91.6424 3.03697 91.6424 3.44852C91.5015 3.29242 91.4311 3.19308 91.3184 3.16469C91.2058 3.1505 90.8959 3.16469 90.6846 3.40595C90.6282 3.77493 90.6423 4.47032 90.2902 5.30762C90.8113 4.82511 91.0508 3.90265 91.1353 3.63301C91.2621 3.81751 91.417 4.21487 91.4452 4.55547C91.5015 5.22247 91.91 6.32942 92.2622 6.8687C92.1636 7.05319 92.1354 7.26606 92.1636 7.49313C91.91 7.67762 91.8819 7.93306 91.9382 8.11756C91.4452 8.373 90.8395 8.58588 90.5296 8.68522C90.4029 7.64923 91.3748 7.69181 91.4593 7.97564C91.8678 7.49313 91.5861 6.79774 91.2903 6.72678C91.6001 5.90367 91.2903 5.39277 91.0367 5.09475C90.9804 5.97463 90.0085 6.11654 89.8958 6.78355C89.8535 6.24427 89.8253 4.81092 89.7831 4.10134C89.7127 2.79571 88.0787 2.34158 87.8252 2.34158C86.7546 2.39835 86.656 2.25643 86.6842 1.74553C86.149 2.36996 86.3321 2.92344 86.7828 3.17888C86.7265 3.54787 86.1349 3.84589 85.7686 3.93104C86.642 4.73996 87.6421 4.25744 88.121 3.80331C88.1632 3.77493 88.1914 3.74655 88.2196 3.70397C88.3886 4.01619 88.5154 4.58385 88.5154 4.89607C87.6984 4.85349 87.5575 5.49211 87.5575 5.71918C88.5858 5.29343 88.6985 7.28025 88.9661 7.60666C88.6985 7.59247 88.2337 6.96804 87.5575 6.92546C86.7265 6.8687 86.4448 7.32283 86.1067 7.29444C86.163 7.8763 86.8814 8.2169 87.3322 8.28786C87.0927 8.8839 87.304 9.29546 87.797 9.45156C87.797 8.89809 88.4872 8.72779 89.2337 9.16773C90.1211 9.69282 90.586 9.7354 91.2903 9.50833C91.1776 9.76378 90.8536 9.79216 90.4592 10.1895C89.9099 10.743 89.8958 11.4526 89.276 11.7222C90.0085 12.077 91.0931 11.5803 91.248 11.3107C91.5579 11.4952 91.9382 11.3816 92.0509 11.1971C91.6424 10.2747 92.1636 9.66444 92.5298 9.50833C92.4312 10.3882 92.3044 11.3816 92.234 11.8641C92.065 11.9351 91.9664 12.1054 91.9382 12.3608H89.5014V15.5256C89.3746 15.4688 89.2478 15.4262 89.1211 15.3269C88.9098 15.185 88.8534 14.9721 88.5999 14.6883C88.6562 14.0922 89.0788 13.3543 89.3887 13.1981C89.4309 13.1698 89.4169 12.2473 89.4169 12.2473C89.4169 12.2473 89.6281 12.2473 89.6 12.2331C89.3183 12.0628 88.9802 12.1905 88.7407 12.4744C88.5013 12.6731 87.966 13.0278 87.5857 13.1556C87.0786 12.7298 86.2898 12.3466 85.7123 11.7648C85.7123 11.7648 86.4729 11.7648 86.8251 11.6087C86.9237 11.5519 87.1631 11.1546 87.0645 10.7856C86.9518 10.743 86.7687 10.6579 86.6138 10.5585C86.4025 10.445 86.2053 10.3031 86.1067 10.2321C85.7686 9.97665 85.6419 9.76378 85.0644 9.60767C85.1066 9.33803 85.163 9.40899 85.4165 9.23869C85.7405 9.02582 85.9095 8.75618 86.0504 8.50073C86.149 8.30205 86.0504 7.8763 85.7827 8.41558C85.6982 8.60007 85.4447 8.85552 85.163 8.92648C85.1911 8.75618 85.1911 8.67103 85.1911 8.57169C86.0222 7.97564 85.9518 7.45055 85.8813 6.95385C85.8532 6.67001 85.5574 6.54229 85.5714 6.84031C85.5714 7.039 85.7546 7.59247 85.177 7.91887C85.177 7.67762 85.0925 7.56408 85.0503 7.43636C85.5574 6.75516 85.3461 6.10235 85.1348 5.80433C84.9939 5.61984 84.6559 5.54888 84.8108 5.8469C84.9376 6.08816 85.1348 6.76936 84.7545 7.039C84.6277 6.8687 84.4728 6.81193 84.4164 6.58486C84.4587 5.8469 84.4164 5.40696 84.3178 5.13732C84.2333 4.89607 83.9938 4.73996 84.022 5.09475C84.0361 5.5063 84.0784 6.0172 84.0361 6.04558C83.9938 6.07397 83.4586 5.57726 83.2332 5.42115C83.0078 5.26505 82.7543 5.32181 83.0078 5.63403C83.2332 5.90367 83.9234 6.41457 83.8389 6.58486C83.7826 6.68421 83.2896 6.27265 83.036 6.1875C82.7825 6.10235 82.6979 6.23007 82.9092 6.41457C83.2614 6.71259 83.5008 6.89708 84.0784 7.09576C84.6559 7.29444 84.9517 8.10336 84.7686 9.25288C84.7686 9.30965 84.6559 9.29546 84.5995 9.28127C84.5714 8.84133 84.5009 8.31624 84.3882 8.08917C84.2474 7.79115 83.9797 7.77696 84.0784 8.18851C84.1629 8.51492 84.2051 8.86971 84.1488 9.30965C83.6699 9.2245 83.4868 9.09678 83.2896 8.98324C83.2614 8.75618 83.3881 8.40139 83.4022 8.06079C83.4163 7.73438 83.2332 7.5357 83.1205 7.94726C83.0219 8.33043 82.9515 8.52911 82.8811 8.79875C82.7402 8.75618 82.5993 8.68522 82.5289 8.61426C82.5007 8.57169 82.5289 8.14594 82.5007 7.81953C82.4726 7.46474 82.3317 7.46474 82.219 7.79115C82.1768 7.93306 82.1345 8.13175 82.1204 8.35881C81.9514 8.25947 81.8387 8.06079 81.8246 7.90468C81.8528 7.5357 81.9091 7.13834 81.9514 6.88289C81.9796 6.71259 81.8669 6.34361 81.726 6.78355C81.6274 7.09576 81.5993 7.3654 81.5429 7.57828C81.4161 7.57828 81.2612 6.85451 81.1767 6.40037C81.1344 6.1875 80.9654 5.96043 80.9372 6.41457C80.9091 6.92546 81.0077 7.43636 81.1344 7.66343C80.895 7.63504 80.6555 7.1951 80.4865 6.93965C80.3315 6.71259 80.2611 6.93965 80.2752 7.039C80.4161 7.94726 81.1344 8.27366 81.4584 8.33043C81.9655 9.0542 82.9233 9.36642 83.7403 9.7212C82.6839 9.7212 82.4021 10.1328 81.9232 9.86312C81.9514 10.2605 82.1486 10.445 82.3317 10.5443C82.4726 10.6011 82.5993 10.6295 82.6698 10.6437C82.7543 11.1262 83.2191 11.112 83.6135 11.1262C83.5149 12.077 83.6135 13.3259 84.4587 14.2625C84.4305 14.745 84.4023 15.3836 84.4023 15.7952C83.7262 16.4338 83.1205 17.7536 82.8811 18.4916C82.6979 19.0451 82.4303 19.4708 82.0218 19.6695C82.3599 20.0385 82.867 19.854 83.1487 19.6553C83.1628 19.9817 83.2473 20.2088 83.2896 20.3933C83.0924 20.6913 82.9656 20.89 82.9797 21.2448C82.7543 21.3015 82.6134 21.4435 82.4867 21.5996C82.4162 21.6989 82.4867 22.1388 82.5853 22.3091C82.8529 22.9194 82.6416 24.296 82.5853 24.7075C82.6979 24.7075 82.9092 24.7075 82.9515 24.5514C83.0219 24.6082 83.1769 24.7359 83.2614 25.0055C83.2473 25.1191 83.1769 25.5448 83.3882 25.6016C83.5572 25.6442 84.3178 25.6158 84.4305 25.4881C84.3601 25.4029 84.2192 25.19 84.1347 24.9914C84.1347 24.7785 84.1206 24.523 84.0643 24.4237C83.9798 24.2676 83.7544 23.9128 83.6135 23.7709C83.5854 23.5154 83.5572 22.3943 83.6699 21.9685C83.8671 21.8266 85.2052 20.8332 85.4869 19.8682C85.7264 19.9533 85.656 20.6203 85.656 21.486C85.656 21.7131 85.9377 21.8408 86.1067 21.855C86.4729 21.8976 86.98 22.2524 87.5575 23.1039C87.6702 22.9761 87.8111 22.8626 87.8111 22.8626C87.8815 22.962 87.9801 23.2174 88.0224 23.3735C88.0787 23.487 88.5576 23.558 88.9098 23.4587C89.0225 23.4161 89.0929 23.4019 89.1774 23.2742C88.7267 22.4794 88.4449 21.9544 87.8674 21.5002C87.5998 21.3015 87.2336 21.188 86.9378 21.0035C87.135 20.6203 87.6984 18.8322 87.3603 18.1794C87.2476 17.9665 86.8251 17.7536 86.318 17.8388C86.7406 17.3137 87.6139 16.2919 87.7266 15.9797C87.8252 16.0932 88.3463 16.0223 88.7267 16.1642C88.8675 16.221 89.2619 16.7318 89.276 16.9021C89.3042 17.2144 89.3323 17.5975 89.107 18.4632C89.2619 18.4348 89.2337 18.4348 89.3887 18.3639C89.4169 18.5909 89.3464 18.7754 89.1492 19.1302C89.2056 19.4424 89.3323 19.925 89.4873 20.0101C89.5155 19.925 89.5718 19.8256 89.6281 19.7263C89.6422 19.7972 89.6563 19.8824 89.6845 19.9533C89.7127 20.0811 89.7549 20.2088 89.7972 20.3223C89.8394 20.45 89.8958 20.592 89.938 20.7197C89.9944 20.8616 90.0648 21.0035 90.1211 21.1454C90.1916 21.2873 90.2761 21.4435 90.3465 21.5854C90.431 21.7415 90.5296 21.8834 90.6282 22.0253C90.7409 22.1814 90.8536 22.3233 90.9663 22.4653C91.0931 22.6214 91.2198 22.7633 91.3607 22.9052C91.5016 23.0613 91.6565 23.2032 91.8255 23.3451C91.9946 23.487 92.1777 23.629 92.3608 23.7567C92.558 23.8986 92.7552 24.0263 92.9665 24.1541C93.1918 24.2818 93.4172 24.4095 93.6567 24.523C93.9102 24.6508 94.1638 24.7643 94.4173 24.8636C94.4173 24.8636 94.4596 24.8494 94.4736 24.8352C94.5018 24.8352 94.5159 24.8211 94.5441 24.8069C94.5863 24.7927 94.6286 24.7785 94.6708 24.7501C94.9244 24.6508 95.1639 24.523 95.4033 24.3953C95.6287 24.2818 95.84 24.154 96.0513 24.0121C96.2485 23.8844 96.4457 23.7567 96.6288 23.6148C96.7978 23.487 96.9668 23.3451 97.1359 23.189C97.2908 23.0471 97.4317 22.9052 97.5725 22.7491C97.6993 22.6072 97.8261 22.4653 97.9528 22.3091C98.0655 22.1672 98.1782 22.0111 98.2768 21.8692C98.3754 21.7273 98.4599 21.5854 98.5444 21.4293C98.6289 21.2873 98.6994 21.1454 98.7698 21.0035C98.8262 20.8616 98.8966 20.7339 98.9388 20.592C98.9952 20.4642 99.0374 20.3365 99.0797 20.1946C99.1219 20.0811 99.1501 19.9533 99.1783 19.8256C99.2065 19.7121 99.2346 19.6127 99.2487 19.4992C99.2628 19.3999 99.291 19.3147 99.3051 19.2154C99.3051 19.1302 99.3332 19.0593 99.3332 18.9741C99.3332 18.8464 99.3473 18.7187 99.3614 18.5909C99.4459 18.8464 99.6431 19.4424 99.8403 20.0101C99.9812 20.4075 100.108 20.7623 100.192 20.9609C100.291 21.1738 100.995 21.2022 101.066 20.9609C101.178 20.6345 101.263 20.3933 101.446 20.0101C101.587 19.7263 101.77 19.3573 102.052 18.8038C102.235 19.1302 102.488 19.6553 102.629 20.0101C102.7 20.1662 102.742 20.3081 102.756 20.3649C102.812 20.9042 102.784 22.8342 102.629 23.9837C101.052 23.558 100.615 24.3243 100.756 24.9062C100.981 24.6508 101.277 24.6933 101.46 24.8211C101.418 25.2468 101.531 25.5448 101.953 25.6726C102.404 24.4663 104.024 24.7359 104.179 24.8352C104.179 24.6082 104.404 24.0263 103.573 23.8986C103.601 22.8626 103.714 21.5854 103.742 21.3157C103.784 21.0461 103.813 20.89 103.686 20.4642C103.643 20.3365 103.601 20.1804 103.559 20.0101C103.446 19.5844 103.334 19.0451 103.334 18.449C103.474 18.5909 103.827 18.7045 104.066 18.6619C104.249 19.4424 104.517 19.2154 104.658 19.5418C104.728 19.7121 104.742 19.8682 104.77 20.0101C104.784 20.152 104.813 20.2656 104.883 20.3649C105.446 20.3791 105.911 20.2514 106.249 20.0101C106.348 19.9391 106.447 19.854 106.517 19.7547C106.376 18.9174 106.151 18.5058 105.714 17.9949C105.601 17.3137 105.277 16.6893 104.855 16.1358C105.404 15.9513 105.954 15.5114 106.249 15.1992C106.517 15.185 106.813 14.9579 106.841 14.5322C106.996 14.518 107.123 14.5038 107.249 14.4754C107.249 14.3619 107.207 14.1774 107.193 14.0638C107.39 14.0638 107.587 14.0638 107.771 14.0354C107.714 13.8793 107.644 13.709 107.587 13.5955C107.785 13.5955 108.038 13.5813 108.235 13.5671C108.123 13.3684 108.052 13.184 107.982 13.0137C108.207 12.9853 108.573 12.9285 108.869 12.8575C108.771 12.7582 108.672 12.6589 108.503 12.5028C109.264 12.2757 109.602 11.7364 109.644 11.4952C109.531 11.4952 109.292 11.5519 109.165 11.5377C109.588 11.2823 109.883 10.9417 109.926 10.5585L109.883 10.6153ZM95.2906 4.05876L95.7555 3.91685L95.5301 4.22906L95.4737 4.31421L95.5301 4.39936L95.7555 4.71158L95.1638 4.52708C95.2202 4.39936 95.2625 4.27164 95.2906 4.05876ZM93.051 4.69738L93.2764 4.38517L93.3327 4.30002L93.2764 4.21487L93.051 3.90265L93.5158 4.04457C93.544 4.24325 93.5862 4.38517 93.6426 4.51289L93.051 4.69738ZM96.2625 11.8216C96.0935 11.8499 95.8963 11.9351 95.6991 12.0628C95.2343 12.375 94.699 12.3892 94.4032 11.8358C94.1074 12.3892 93.5722 12.375 93.1073 12.0628C92.9242 11.9351 92.727 11.8499 92.5439 11.8216C92.6284 11.2681 92.7552 10.2321 92.8538 9.36642C93.4595 9.08258 94.206 9.02582 94.4032 9.7354C94.5863 9.02582 95.3329 9.09678 95.9386 9.36642C96.0372 10.2463 96.1639 11.2823 96.2485 11.8216H96.2625ZM94.4032 7.94726C94.9948 7.94726 95.4878 8.10336 95.84 8.24528C95.84 8.35881 95.84 8.47235 95.8681 8.61426C95.4737 8.50073 94.9385 8.41558 94.4032 8.41558C93.868 8.41558 93.3327 8.50073 92.9383 8.61426C92.9383 8.47235 92.9524 8.35881 92.9665 8.24528C93.3186 8.11756 93.8116 7.94726 94.4032 7.94726ZM93.3327 7.3654C93.6003 7.29444 93.882 7.25187 94.1497 7.23768L94.3469 7.62085C94.0933 7.62085 93.868 7.64923 93.6567 7.69181L93.3327 7.3654ZM95.2484 7.30864C95.5301 7.3654 95.8118 7.45055 96.0513 7.54989L96.1639 8.00402C95.9808 7.93306 95.7414 7.83372 95.4456 7.74857L95.2484 7.30864ZM100.995 2.68218C101.305 2.68218 101.855 2.6538 102.179 2.49769C101.841 2.92344 101.798 3.06535 101.249 3.13631C101.967 3.20727 102.263 3.84589 102.615 3.94523C101.418 4.31421 101.291 3.12212 100.207 3.19308C100.573 2.92344 100.798 2.8099 100.995 2.69637V2.68218ZM97.9247 7.40798C97.9669 7.0248 98.1923 6.75516 98.3191 6.71259C97.9951 6.34361 97.9247 5.86109 97.8965 5.5205C98.4317 5.74756 99.2205 6.38618 99.3473 7.46474L99.6995 7.22349C99.6009 5.33601 99.6149 5.33601 99.6009 4.04457C99.6009 3.86008 99.6009 3.44852 100.178 3.4911C100.207 3.97361 100.277 5.23666 100.249 7.01061H100.446C100.629 6.51391 101.277 5.94624 102.024 5.98882C102.545 6.0172 102.714 6.0172 103.01 5.87529C102.77 6.47133 101.883 6.72678 101.657 6.76936C102.01 7.06738 101.897 7.47893 101.812 7.57828C101.502 7.039 100.488 7.22349 99.5023 8.34462C99.4318 8.42977 99.3332 8.52911 99.2346 8.62845C99.3051 7.28025 98.2205 7.26606 97.8965 7.39378L97.9247 7.40798ZM96.7555 8.30205C97.2204 8.77037 98.1641 8.94067 98.8966 8.52911C98.8966 8.65684 98.8684 8.79875 98.8121 8.95486C98.4036 9.16773 97.8824 9.29546 97.2767 9.08258C97.3612 9.69282 98.0514 10.147 98.7275 10.3314C98.5022 10.5017 98.2205 10.5727 98.0233 10.5585C98.15 10.9133 98.2205 11.3816 97.9528 11.7648C97.6148 11.5377 97.4457 11.3249 97.319 10.4592C97.2063 9.66444 96.671 8.8839 96.2203 8.62845C96.2203 8.5433 96.2062 8.45815 96.2062 8.3872C96.4316 8.47235 96.6428 8.42977 96.7696 8.30205H96.7555ZM94.9103 4.54128H94.5441L94.5863 3.88846C95.1357 3.64721 95.0934 4.1581 94.9103 4.54128ZM94.4032 5.71918L94.8399 6.04558C94.6568 6.03139 94.5018 6.03139 94.4032 6.03139C94.3046 6.03139 94.1497 6.03139 93.9666 6.04558L94.4032 5.71918ZM94.0088 5.66241L94.206 4.99541H94.5863L94.7835 5.66241L94.4736 5.43535L94.3891 5.37858L94.3046 5.43535L93.9947 5.66241H94.0088ZM94.3187 3.12212L94.4032 3.17888L94.4877 3.12212L94.8117 2.89505L94.6286 3.51948C94.6286 3.51948 94.6286 3.51948 94.6145 3.51948C94.5863 3.44852 94.5018 3.39176 94.4173 3.39176C94.3328 3.39176 94.2483 3.44852 94.2201 3.51948C94.2201 3.51948 94.2201 3.51948 94.206 3.51948L94.0229 2.89505L94.3469 3.12212H94.3187ZM93.9102 4.54128C93.7271 4.14391 93.6848 3.63301 94.2342 3.88846L94.2764 4.54128H93.9102ZM92.6988 6.95385C93.0087 6.58486 93.8116 6.44295 94.4032 6.44295C94.9948 6.44295 95.7977 6.57067 96.1076 6.95385C96.178 7.039 96.2203 7.15253 96.2344 7.26606C95.6991 7.0248 95.023 6.88289 94.4032 6.88289C93.7834 6.88289 93.1073 7.0248 92.5721 7.26606C92.5721 7.15253 92.6284 7.039 92.6988 6.95385ZM92.403 7.73438C92.403 7.73438 92.4453 7.706 92.4735 7.69181L92.7834 7.94726C92.7834 7.94726 92.6566 8.00402 92.6002 8.01822L92.5016 8.06079C92.3749 8.11756 92.2763 8.06079 92.2481 8.00402C92.2199 7.93306 92.2481 7.81953 92.403 7.72019V7.73438ZM86.4729 4.01619C87.0786 3.71816 87.0223 3.26403 87.3744 3.03697C87.149 3.00859 86.7124 2.90924 86.7124 2.58284C87.3181 2.88086 87.5153 2.32739 88.6562 3.06535C87.8956 3.30661 87.3181 4.24325 86.4729 4.002V4.01619ZM88.8957 8.68522C88.5295 8.52911 87.966 8.44396 87.6561 8.8839C87.4871 8.58588 87.7407 8.13175 87.8956 8.00402C87.0927 8.00402 86.642 7.77696 86.5293 7.5357C86.8251 7.3654 87.5716 7.09576 88.1773 7.5357C88.5999 7.84792 88.8112 8.00402 89.3042 8.16013C89.4873 7.97564 89.4169 8.06079 89.4732 8.00402C89.0647 7.72019 88.8816 5.5205 88.0787 5.44954C88.1914 5.16571 88.614 5.19409 88.9379 5.27924C88.9661 4.78253 88.7548 3.97361 88.459 3.50529C88.9239 3.26403 89.2478 3.51948 89.4028 4.10134C89.5718 4.72577 89.3746 6.27265 89.769 7.66343L90.0225 7.43636C89.8958 6.62744 90.7832 6.32942 90.9804 5.91786C91.0508 6.45714 90.9381 6.71259 90.7973 6.91127C91.1212 6.95385 91.2621 7.26606 91.2057 7.49313C90.431 7.37959 89.9803 8.16013 90.1634 8.78456C89.5859 8.91228 89.2056 8.81294 88.8816 8.68522H88.8957ZM91.6424 11.041C91.5438 11.0836 91.248 11.0694 91.1635 10.8707C91.0931 11.1971 90.4451 11.5661 89.9662 11.5235C90.2338 11.2397 90.4029 10.5869 90.924 10.2463C91.4452 9.9057 91.6706 9.66444 91.8537 9.08258C91.6142 9.19612 90.3747 9.52252 90.0225 9.12516C90.7691 9.01163 91.6283 8.62845 92.1354 8.33043C92.2622 8.41558 92.4453 8.45815 92.6425 8.373C92.6284 8.58588 92.6002 8.85552 92.5721 9.15354C91.9523 9.29546 91.4029 10.1044 91.6565 11.0268L91.6424 11.041ZM99.1783 19.0025C99.1783 19.0877 99.1642 19.1586 99.1501 19.2438C99.1501 19.3431 99.1219 19.4283 99.1079 19.5276C99.0797 19.6411 99.0656 19.7405 99.0374 19.854C99.0093 19.9675 98.967 20.0953 98.9388 20.2088C98.8966 20.3365 98.8543 20.4642 98.798 20.592C98.7416 20.7339 98.6853 20.8616 98.6289 20.9893C98.5585 21.1312 98.4881 21.2732 98.4177 21.4151C98.3331 21.557 98.2486 21.6989 98.15 21.8408C98.0514 21.9969 97.9528 22.1388 97.8401 22.2808C97.7275 22.4227 97.6007 22.5788 97.4739 22.7207C97.3331 22.8626 97.1922 23.0187 97.0373 23.1464C96.8823 23.2884 96.7133 23.4303 96.5443 23.558C96.3611 23.6999 96.178 23.8276 95.9808 23.9554C95.7695 24.0831 95.5583 24.2108 95.3329 24.3243C95.1075 24.4521 94.854 24.5656 94.6145 24.6649L94.4877 24.7217L94.4314 24.7501C94.1919 24.6649 93.9384 24.5514 93.713 24.4379C93.4876 24.3243 93.2482 24.1966 93.0369 24.0689C92.8256 23.9412 92.6284 23.8135 92.4453 23.6715C92.2622 23.5438 92.0932 23.4019 91.9241 23.26C91.7692 23.1181 91.6142 22.9761 91.4734 22.8342C91.3325 22.6923 91.2058 22.5504 91.079 22.3943C90.9663 22.2524 90.8536 22.1105 90.755 21.9544C90.6564 21.8124 90.5719 21.6705 90.4733 21.5144C90.3888 21.3725 90.3183 21.2306 90.2479 21.0887C90.1775 20.9609 90.1211 20.819 90.0648 20.6771C90.0085 20.5494 89.9662 20.4217 89.9239 20.2797C89.8817 20.1662 89.8535 20.0385 89.8113 19.9108C89.7831 19.7972 89.7549 19.6837 89.7267 19.5844C89.7267 19.5702 89.7267 19.5418 89.7267 19.5276C90.0085 19.0309 90.4029 18.4774 90.3888 18.1226C90.3606 17.4698 90.0648 16.9163 90.093 16.6325C90.1775 15.9229 90.0648 15.8662 89.8535 15.6959C89.7972 15.6391 89.6986 15.6107 89.6281 15.5681V12.4744H92.1354C92.6425 12.4744 93.868 12.5028 94.4314 12.5028C94.9948 12.5028 96.2062 12.4886 96.7133 12.4744H99.2206V15.412C98.967 15.3411 98.6712 15.4404 98.4599 15.781C98.8684 15.7384 99.0093 16.2777 99.0093 16.8312C99.0093 17.4982 98.8261 18.0375 98.3754 18.0375C98.4036 18.5626 98.9107 18.7187 99.2206 18.5342V18.5909C99.2206 18.7187 99.2205 18.8464 99.1924 18.9741L99.1783 19.0025Z" fill="white"/>
<path d="M72.1193 3.66138H71.415V27.9999H72.1193V3.66138Z" fill="white"/>
</g>
<defs>
<clipPath id="clip0_10739_3580">
<rect width="165.268" height="28" fill="white"/>
</clipPath>
</defs>
</svg>
