<svg width="26" height="26" viewBox="0 0 26 26" fill="none" xmlns="http://www.w3.org/2000/svg">
<path d="M13.9616 26C13.6889 26 13.4606 25.9076 13.2768 25.7228C13.093 25.538 13.0011 25.3086 13.0011 25.0346C13.0011 24.7605 13.093 24.5327 13.2768 24.3509C13.4606 24.1692 13.6889 24.0783 13.9616 24.0783H23.608C23.7255 24.0783 23.8333 24.0294 23.9315 23.9315C24.0294 23.8333 24.0783 23.7255 24.0783 23.608V2.392C24.0783 2.27449 24.0294 2.16667 23.9315 2.06853C23.8333 1.97065 23.7255 1.92171 23.608 1.92171H13.9616C13.6889 1.92171 13.4606 1.8293 13.2768 1.6445C13.093 1.4597 13.0011 1.23028 13.0011 0.956265C13.0011 0.682245 13.093 0.454363 13.2768 0.272618C13.4606 0.0908727 13.6889 0 13.9616 0H23.608C24.2651 0 24.8281 0.234383 25.2969 0.703148C25.7656 1.17191 26 1.73486 26 2.392V23.608C26 24.2651 25.7656 24.8281 25.2969 25.2969C24.8281 25.7656 24.2651 26 23.608 26H13.9616ZM13.7509 13.9609H0.960853C0.688108 13.9609 0.459843 13.8685 0.276059 13.6836C0.0920197 13.4988 0 13.2694 0 12.9954C0 12.7214 0.0920197 12.4935 0.276059 12.3118C0.459843 12.13 0.688108 12.0391 0.960853 12.0391H13.7196L10.665 8.98415C10.4804 8.79985 10.3884 8.57949 10.3889 8.32306C10.3892 8.06663 10.4864 7.83875 10.6806 7.63941C10.8746 7.44008 11.1021 7.34067 11.3631 7.34118C11.6242 7.34194 11.8554 7.43868 12.0567 7.63138L16.6029 12.1776C16.8415 12.4225 16.9608 12.7037 16.9608 13.021C16.9608 13.3384 16.8415 13.616 16.6029 13.8538L12.0724 18.3843C11.893 18.5737 11.6735 18.6667 11.414 18.6634C11.1545 18.6598 10.9204 18.5589 10.7116 18.3606C10.5243 18.1613 10.4319 17.9318 10.4344 17.6724C10.437 17.4129 10.5354 17.1861 10.7296 16.9921L13.7509 13.9609Z" fill="#131212"/>
</svg>
