<svg width="24" height="24" viewBox="0 0 24 24" fill="none" xmlns="http://www.w3.org/2000/svg">
<path d="M22.4516 24C19.8959 24 17.2842 23.3727 14.6167 22.1181C11.9492 20.8635 9.47353 19.092 7.18976 16.8035C4.90577 14.5153 3.13647 12.0396 1.88188 9.37659C0.627294 6.71353 0 4.10412 0 1.54835C0 1.106 0.146235 0.737411 0.438706 0.442587C0.730941 0.147529 1.09635 0 1.53494 0H5.75506C6.11929 0 6.43129 0.118707 6.69106 0.356119C6.95059 0.59353 7.12718 0.896 7.22082 1.26353L8.05165 5.16988C8.10294 5.53576 8.09118 5.85953 8.01635 6.14118C7.94153 6.42282 7.80212 6.65965 7.59812 6.85165L4.29035 10.0722C4.88541 11.1132 5.52871 12.0835 6.22024 12.9833C6.912 13.8831 7.66035 14.7327 8.46529 15.5322C9.30976 16.3925 10.2081 17.1819 11.1604 17.9005C12.1124 18.6191 13.134 19.2769 14.2253 19.8741L17.4173 16.6119C17.6476 16.3627 17.9124 16.1928 18.2114 16.1022C18.5105 16.0119 18.8219 15.9902 19.1456 16.0373L22.7365 16.8064C23.1087 16.8944 23.4124 17.0826 23.6474 17.3711C23.8825 17.6593 24 17.986 24 18.3512V22.4651C24 22.9036 23.8525 23.2691 23.5574 23.5613C23.2626 23.8538 22.894 24 22.4516 24ZM3.42247 8.43635L6.20471 5.74835C6.24376 5.71212 6.27012 5.66235 6.28377 5.59906C6.29741 5.53577 6.29812 5.47694 6.28588 5.42259L5.56729 1.99094C5.55529 1.91847 5.52518 1.86412 5.47694 1.82788C5.42871 1.79188 5.36835 1.77388 5.29588 1.77388H1.97118C1.91682 1.77388 1.87153 1.79188 1.83529 1.82788C1.79906 1.86412 1.78094 1.90941 1.78094 1.96377C1.81835 2.93812 1.97235 3.96047 2.24294 5.03082C2.51353 6.10118 2.90671 7.23635 3.42247 8.43635ZM15.9004 20.7187C16.8554 21.1801 17.8848 21.5374 18.9886 21.7906C20.0924 22.0435 21.1082 22.1869 22.0362 22.2208C22.0906 22.2208 22.1359 22.2027 22.1721 22.1665C22.2081 22.1302 22.2261 22.0849 22.2261 22.0306V18.7313C22.2261 18.6588 22.2081 18.5985 22.1721 18.5502C22.1359 18.502 22.0815 18.4719 22.0091 18.4599L18.8869 17.8189C18.8326 17.8069 18.7851 17.8078 18.7444 17.8214C18.7036 17.8348 18.6607 17.8612 18.6155 17.9005L15.9004 20.7187Z" fill="#131212"/>
</svg>
